<svg id="exN9Ta2zmDy1" xmlns="http://www.w3.org/2000/svg" xmlns:xlink="http://www.w3.org/1999/xlink" viewBox="0 0 300 300" shape-rendering="geometricPrecision" text-rendering="geometricPrecision"><line x1="-15" y1="0" x2="15" y2="0" transform="translate(374.848818 51.676745)" fill="none" stroke="#3f5787" stroke-width="3"/><line x1="-107.476636" y1="0" x2="107.476636" y2="0" transform="matrix(.866997 0.004178 0.004819-.999988 133.231391 208.520168)" fill="none" stroke="#000" stroke-width="3"/><path d="M41.69874,189.66465c0-26.90881,30.57815-5.75385,19.24134,2.74876-9.00101,6.75076-11.63944-13.92652-.54975-15.94283c6.82636-1.24116,23.3697,7.79814,17.59208,17.04233-6.02149,9.63438-14.98038-13.68899-1.09951-19.24134c7.60959-3.04383,21.79071,12.17717,16.49258,19.24134-5.61935,7.49246-14.47354-9.40907-7.14678-14.29357c20.67489-13.78326,7.19564,17.80221,27.48763,13.74382" fill="none" stroke="#737373" stroke-width="2"/><rect width="21.990105" height="24.634472" rx="0" ry="0" transform="translate(113.71633 183.436624)" fill="#229724" stroke-width="0" stroke-linecap="round" stroke-linejoin="round"/><line x1="-0.549752" y1="-36.833426" x2="0.549753" y2="36.833426" transform="translate(40.049477 172.135815)" fill="none" stroke="#000" stroke-width="3"/></svg>
