<svg id="emvuCTpPqKB1" xmlns="http://www.w3.org/2000/svg" xmlns:xlink="http://www.w3.org/1999/xlink" viewBox="0 0 300 300" shape-rendering="geometricPrecision" text-rendering="geometricPrecision"><line x1="-15" y1="0" x2="15" y2="0" transform="translate(374.848818 51.676745)" fill="none" stroke="#3f5787" stroke-width="3"/><line x1="-0.81103" y1="-120.843464" x2="0.81103" y2="120.843464" transform="matrix(.874768 0 0 0.853537 13.904227 173.56199)" fill="none" stroke="#000" stroke-width="3"/><line x1="-124.087584" y1="0" x2="124.087584" y2="0" transform="translate(139.782644 275.231498)" fill="none" stroke="#000" stroke-width="3"/><path d="M14.61369,228.73245c38.40512,7.68101-1.14257-42.02782,39.47012-36.22601c18.72236,2.67462,25.63579,49.28376,7.56961,42.71424-9.65121-3.50953-15.14599-32.3133-4.32549-37.30738c14.05299-6.486,29.95812,3.40939,40.5515,11.35442c4.61642,3.46231,19.53634,14.52692,11.89511,22.16815-12.81523,12.81523-26.63547-28.06116-5.40687-36.226c16.27187-6.25841,53.27999,19.90262,39.47012,35.68532-17.38911,19.87327-24.24219-28.2206,1.08137-32.4412c19.57426-3.26238,11.82601,20.64371,15.67991,30.27845c2.86064,7.15159,32.17397,4.48708,38.38875,3.24412" transform="translate(0 0.000001)" fill="none" stroke="#6c6c6c" stroke-width="2"/><rect width="57.853481" height="61.255247" rx="0" ry="0" transform="matrix(.999838 0.017983-.017983 0.999838 199.543272 212.461016)" fill="#1a951c" stroke-width="0"/></svg>
