<svg id="ek1FZAtqLWQ1" xmlns="http://www.w3.org/2000/svg" xmlns:xlink="http://www.w3.org/1999/xlink" viewBox="0 0 300 300" shape-rendering="geometricPrecision" text-rendering="geometricPrecision"><path d="M131.88355,52.82784c-35.26154,0-71.20552,9.94792-89.46011,42.80618C20.6354,134.8525,50.85351,213.37671,82.34381,238.96258c14.72735,11.96597,40.62126,12.88406,58.67814,12.02421c14.72948-.7014,28.13538-15.27594,38.47747-24.52938c35.26962-31.55703,42.06177-84.19443,26.45326-128.41854-11.07488-31.37883-52.71861-56.15608-83.68849-43.76812" fill="none" stroke="#000"/><path d="M222.3056,144.69279c-.33839,1.69194-1.55466,3.84775,1.92387,3.84775c4.959,0,.83812-9.1003-1.92387-2.88581-1.25559,2.82507,2.08124,4.50382,2.88581.48097" transform="translate(-10.320709-5.033598)" fill="none" stroke="#ff6300" stroke-width="0.6"/><path d="M213.99635,139.50378c-2.18153-13.08917,1.62726-26.63237.30867-39.81829-.23627-2.36273-1.16265-7.24343-3.39536-2.77802-.49558.99116-2.34283,3.08669-1.23468,3.08669c1.73103,0,1.38471-5.88233,4.32136-5.55604c2.00467.22274,3.17143,4.15394,4.0127,5.55604" fill="none" stroke="#d80598"/><path d="M211.527,141.04713c-12.19416,0-24.19117.92601-36.42293.92601-1.23468,0-3.31359,1.17132-3.70403,0-.12265-.36795,2.96373-1.48187,3.08669-1.54334c4.50797-2.25398-2.46935,1.5387-2.46935,2.46935c0,1.19353,4.96985,2.72874,5.86471,3.08669" transform="translate(0 0.000001)" fill="none" stroke="#27b107"/><path d="M215.5397,82.70871c-3.00395,0-5.09599,4.88151-1.54334,6.17338c5.01635,1.82413,3.08669-6.79072,3.08669-6.79072s1.9779,6.02508,2.16068,6.48205" transform="translate(0 0.000001)" fill="none" stroke="#d80598"/><path d="M223.25642,87.64741c0,2.467-1.37336,4.51283,1.23468,5.55604" fill="none" stroke="#d80598"/><path d="M220.4784,90.11676c1.06806.42723,2.24502.61734,3.39536.61734" fill="none" stroke="#d80598"/><path d="M229.12113,90.7341c-.76613.15323-4.28436.98152-3.08669,2.77802c1.99876,2.99814,2.35559-3.23837,4.32136-.61734" transform="translate(.000001 0.000001)" fill="none" stroke="#d80598"/><path d="M234.3685,91.04277c0,1.13179-1.0123,2.88921,0,3.39536.40782.20391.8279-3.49346,3.39536-.92601" fill="none" stroke="#d80598"/><path d="M163.68332,128.08303c-2.47779,0-6.5124,4.69221-3.70403,7.09938c4.90242,4.20207,4.32136-6.48205,4.32136-6.48205s1.13847,5.69234,1.23468,6.17338" fill="none" stroke="#27b107"/><path d="M169.8567,133.94774c-3.43855,0-4.36455,4.52384,0,2.77802" fill="none" stroke="#27b107"/><path d="M228.50379,165.74064c0,2.39811-2.50924,8.38806-6.17338,5.24737-2.24455-1.9239,4.21182-4.40106,7.40805.92601" transform="translate(.000001 0)" fill="none" stroke="#000" stroke-width="0.6"/><path d="M236.22051,166.97531c1.74912,0,3.49825,0,5.24737,0" transform="translate(0 0.000001)" fill="none" stroke="#000" stroke-width="0.6"/><path d="M235.60317,170.67934c2.33226,0,4.47463-.61734,6.79072-.61734" fill="none" stroke="#000" stroke-width="0.6"/><path d="M239.92454,165.43197c0,2.28649-.16935,4.24209-.61734,6.48205" fill="none" stroke="#000" stroke-width="0.6"/><path d="M247.64126,166.97531c-1.35534,1.0165-3.62597,4.47605-.92601,5.55604c3.94753,1.57901,5.45015-4.34254.92601-5.24737" transform="translate(.000001 0)" fill="none" stroke="#000" stroke-width="0.6"/><path d="M214.2927,139.51973c-1.42068,0-3.33614,2.88058-1.59081,3.46235c2.45978.81993,3.39365-4.12775,0-2.71374-2.42063,1.00859.91035,5.19279,2.62016,2.99447.76148-.97905.65592-4.26764-1.31008-3.08804-.27101.16261-.71826,1.80832-.46788,2.0587.54352.54352.75876-1.68439.18715-1.68439-.38475,0-.27767,1.23011,0,1.40366.75093.46933,1.11891-.73552.84219-1.12293-.56378-.7893-2.63942,1.2077-2.24585,2.15227.84712,2.03309,3.59772-.7577,3.36877-2.24585-.40273-2.61772-6.18306-1.74135-4.95958,1.68439c1.77808,4.97863,4.21494-2.34009,3.64951-2.24585-.58946.09824-.72446,2.18698.09358,1.77796.29524-.14762.417-1.59081.18715-1.59081-.67019,0-1.51998,2.53627-.28073,2.433c1.8906-.15755-.27408-3.01442-.74862-1.59081-.34184,1.02552,1.80016.4631,1.59081-.37431-.23591-.94364-2.14155.58649-1.87154,1.2165.44022,1.02717,1.07864-1.3694,1.12292-1.59081" transform="translate(.000001 0.000001)" fill="none" stroke="#ff6300"/><path d="M69.68775,87.29762c-7.20986,3.60493-14.12294,7.63319-21.01428,11.768" fill="none" stroke="#0651e6" stroke-width="0.6"/><path d="M88.18032,84.77591C83.43956,88.72654,50.4598,117.1379,54.97776,117.1379" fill="none" stroke="#0651e6" stroke-width="0.6"/><path d="M126.42631,83.51505c-18.04355,18.04354-49.06643,31.41442-69.34713,51.69513" fill="none" stroke="#0651e6" stroke-width="0.6"/><path d="M149.54202,129.32619c-30.30906,12.12362-65.60027,39.61948-91.20198,60.10085" fill="none" stroke="#0651e6" stroke-width="0.6"/><path d="M160.46945,160.00704c-19.10216,14.85724-45.02926,29.21806-59.68056,48.75314" fill="none" stroke="#0651e6" stroke-width="0.6"/><path d="M183.58516,179.76046c-14.71897,9.81264-40.01026,39.37199-52.95599,44.55028" fill="none" stroke="#0651e6" stroke-width="0.6"/><path d="M179.3823,204.9776c-7.49576,3.21247-12.4044,8.20155-18.07228,13.86943" fill="none" stroke="#0651e6" stroke-width="0.6"/><path d="M135.06215,104.50831c-21.27779,12.15874-59.28259,37.11403-76.79825,54.62968" fill="none" stroke="#0651e6" stroke-width="0.6"/></svg>
