<svg id="eFPnhcA2CsK1" xmlns="http://www.w3.org/2000/svg" xmlns:xlink="http://www.w3.org/1999/xlink" viewBox="0 0 300 300" shape-rendering="geometricPrecision" text-rendering="geometricPrecision"><path d="M53.66839,170.23894c-13.94945,1.99278-49.52866,25.87352-23.01721,39.12925c36.71557,18.35779,63.16018-40.28011,20.71549-40.28011" transform="matrix(.877278 0 0 1.141816 5.780925-27.07844)" fill="none" stroke="#001fd6"/><path d="M81.28904,180.59668c-4.74831,0-38.47948,5.27799-29.92237,16.68747c13.70058,18.26744,71.33107-15.25076,40.28011-17.83833-4.45616-.37135-8.72904-.57543-13.23489-.57543" transform="matrix(.877278 0 0 1.141816 9.189744-27.056734)" fill="none" stroke="#d53903" stroke-width="0.6"/><path d="M115.81485,167.36179c-22.10244,0-40.89067,28.64237-16.11204,38.55382c30.3263,12.13051,61.37704-37.97839,14.38575-37.97839" transform="matrix(.877278 0 0 1.141816 13.874788-26.601285)" fill="none" stroke="#001fd6"/><path d="M155.51953,179.44582c-7.14101-1.02014-42.05592-4.11715-33.37495,11.5086c9.84405,17.7193,79.40198-12.08403,31.07323-12.08403" transform="matrix(.877278 0 0 1.141816 17.849598-26.595934)" fill="none" stroke="#d53903" stroke-width="0.6"/><path d="M182.56474,167.36179c-24.05266,0-40.95445,30.75584-14.96118,38.55382c30.28805,9.08641,56.90037-30.98853,11.5086-38.55382" transform="matrix(.877278 0 0 1.141816 21.961357-26.561594)" fill="none" stroke="#001fd6"/><path d="M225.722,181.17211c-11.95423,0-46.13996-6.96302-43.15726,10.93317c3.86178,23.1707,72.69898-4.56449,37.97839-11.5086" transform="matrix(.877278 0 0 1.141816 25.302651-27.017359)" fill="none" stroke="#d53903" stroke-width="0.6"/><path d="M240.10776,171.3898c-16.9873-5.66243-26.04442,29.84277-9.78231,32.79952c26.30236,4.78225,33.02732-33.37495,6.32973-33.37495" transform="matrix(.877278 0 0 1.141816 29.175131-26.616319)" fill="none" stroke="#001fd6"/><path d="M271.18099,185.77555c-7.32467-1.22078-28.87758-4.55838-26.46979,7.48059c2.42392,12.11958,49.51299,2.08195,24.16807-8.05602" transform="matrix(.877278 0 0 1.141816 31.959959-27.173411)" fill="none" stroke="#d53903" stroke-width="0.6"/></svg>
