<svg id="etrGAEejcI01" xmlns="http://www.w3.org/2000/svg" xmlns:xlink="http://www.w3.org/1999/xlink" viewBox="0 0 300 300" shape-rendering="geometricPrecision" text-rendering="geometricPrecision"><line x1="-15" y1="0" x2="15" y2="0" transform="translate(374.848818 51.676745)" fill="none" stroke="#3f5787" stroke-width="3"/><line x1="0.243838" y1="-73.151478" x2="-0.243839" y2="73.151479" transform="translate(18.057355 204.258353)" fill="none" stroke="#000" stroke-width="3"/><line x1="-111.132635" y1="0" x2="111.132635" y2="0" transform="translate(128.18999 276.409832)" fill="none" stroke="#000" stroke-width="3"/><path d="M73.41431,157.18296c-21.45263,0-37.13569,24.28446-16.13093,32.68636c29.10153,11.64061,43.10947-21.55535,13.15944-33.53535" transform="translate(.000002 1.849822)" fill="none" stroke="#0049da"/><path d="M67.47133,194.5388c0,18.12558.4245,36.26709.4245,54.33576" fill="none" stroke="#0049da"/><path d="M64.49985,252.69504c-8.01322,5.72373-13.58014,12.30411-18.67792,20.80041" transform="translate(3.39598-4.244975)" fill="none" stroke="#0049da"/><path d="M69.59383,250.57255c7.36285,7.36285,17.1841,9.93534,19.52691,21.6494" transform="translate(-1.698-2.122485)" fill="none" stroke="#0049da"/><path d="M69.59383,223.82917c3.59522-8.38885,16.21552-14.14409,23.7719-18.67792" transform="translate(-1.698 0.4245)" fill="none" stroke="#0049da"/><path d="M63.22635,224.25367c-9.80185-4.90093-14.02716-14.34085-22.0739-20.37591" transform="translate(4.006306-.420414)" fill="none" stroke="#0049da"/><path d="M238.96858,30.68252c-23.44941-3.34991-34.10268,34.34864-10.18796,40.32732c20.15259,5.03815,34.64371-41.17632,9.33896-41.17632" transform="translate(-.726738 2.163657)" fill="none" stroke="#11df9a"/><path d="M231.75211,73.55683c0,15.2594-1.27349,30.25408-1.27349,45.4213" fill="none" stroke="#11df9a"/><path d="M225.80914,122.37411c-12.48337,7.49002-13.90275,9.65776-23.3474,19.10242" transform="translate(4.66948-3.962976)" fill="none" stroke="#11df9a"/><path d="M231.75211,119.82713c1.81001,10.86005,15.45134,14.6442,19.10242,23.7719" transform="translate(-1.27349-1.415996)" fill="none" stroke="#11df9a"/><path d="M231.32761,97.75322c6.66492-3.99896,15.90736-12.56161,20.80041-18.67792" transform="translate(-.212245 0)" fill="none" stroke="#11df9a"/><path d="M225.38464,96.47973c-8.39056-1.39843-18.08709-14.64952-23.3474-21.22491" transform="translate(5.730725 1.27349)" fill="none" stroke="#11df9a"/><path d="M29.42745,103.2967c2.00467,2.00468,4.1718,4.26185,5.85248,6.50276" fill="none" stroke="#0049da" stroke-width="0.6"/><path d="M39.50673,105.8978c-3.00621,3.00621-5.23222,6.20763-8.12845,9.10386" fill="none" stroke="#0049da" stroke-width="0.6"/><path d="M42.43297,110.44973c-2.19847.43969-2.16943,1.39052-1.95083,3.57652.47274,4.72737,8.8588-2.52006,1.95083-3.90166" transform="translate(0 0.000001)" fill="none" stroke="#0049da" stroke-width="0.6"/><path d="M48.61059,110.77487c0,6.50681,4.81784,7.44917,6.17762.65028" fill="none" stroke="#0049da" stroke-width="0.6"/><path d="M60.31556,111.42515c-.35648,1.78238-.32514,3.38434-.32514,5.20221c0,1.61117.08246-4.08896,1.62569-4.55193.51904-.15571,1.08379,0,1.62569,0" transform="translate(.000001 0)" fill="none" stroke="#0049da" stroke-width="0.6"/><path d="M38.53131,127.03177c-2.84639-7.11597-3.25138,10.81977-3.25138,13.00552" transform="translate(0 0.000001)" fill="none" stroke="#0049da" stroke-width="0.6"/><path d="M31.37828,134.50994c2.39503-.39917,4.72822-.32514,7.15303-.32514" transform="translate(0 0.000001)" fill="none" stroke="#0049da" stroke-width="0.6"/><path d="M41.78269,134.50994c0,2.53641.32514,4.96438.32514,7.47817c0,2.52782,1.42293-6.00701,3.90165-6.50276" fill="none" stroke="#0049da" stroke-width="0.6"/><path d="M51.53683,135.48535c-1.8716.31193-4.76785,3.42614-3.25138,5.85248c3.96502,6.34404,4.57537-10.21009,6.8279-1.95083.17346.63602.21676,1.30055.32514,1.95083" transform="translate(.000001 0.000001)" fill="none" stroke="#0049da" stroke-width="0.6"/><path d="M59.66528,135.81049c-.41135,2.46809,1.85185,7.47817-.65028,7.47817-1.19709,0-.53928-2.39874-.32514-3.57652.19553-1.0754.79245-2.25359,1.95083-2.6011c2.13597-.64079,2.26587.1348,2.92624,1.95083.0297.08168.32514,3.25138.32514,3.25138s.47409-6.88602,3.57652-4.22679c1.07692.92308.97541,3.64876.97541,4.87707" transform="translate(.000001 0)" fill="none" stroke="#0049da" stroke-width="0.6"/><path d="M72.99593,139.06187c8.76756,1.75351,2.29375-6.92494-.65028-1.62569-3.10053,5.58096,3.53486,6.50276,7.15304,6.50276" transform="translate(.000001 0)" fill="none" stroke="#0049da" stroke-width="0.6"/><path d="M207.8414,143.47126c1.45412,2.32659,3.32584,4.54357,5.53833,6.20293" fill="none" stroke="#11df9a" stroke-width="0.6"/><path d="M215.37353,146.35119c-1.41025,3.52563-3.47514,6.69404-4.87373,10.19053" fill="none" stroke="#11df9a" stroke-width="0.6"/><path d="M218.69653,149.67419c-10.05557,2.01111,9.34642,6.95443.6646.44307" fill="none" stroke="#11df9a" stroke-width="0.6"/><path d="M223.57026,151.00339c.82363,4.94177,3.9876,9.16468,3.9876,1.55073" fill="none" stroke="#11df9a" stroke-width="0.6"/><path d="M231.32393,152.99719c0,10.52759-1.55901-.44307,2.21533-.44307" transform="translate(.000001 0.000001)" fill="none" stroke="#11df9a" stroke-width="0.6"/><path d="M247.53131,148.76634c-4.18414-1.67365-1.36485,7.67008-1.36485,9.72459" fill="none" stroke="#11df9a" stroke-width="0.6"/><path d="M243.43675,155.2494c1.59233,0,3.18466,0,4.77699,0" fill="none" stroke="#11df9a" stroke-width="0.6"/><path d="M251.62588,154.73758c.39012,1.56047-.03691,6.21568.68243,4.77699.82768-1.65538-1.47962-5.28881,1.53546-5.28881" fill="none" stroke="#11df9a" stroke-width="0.6"/><path d="M257.25591,154.56697c0,1.2518,0,7.74426,0,3.75335" transform="translate(0 0.084425)" fill="none" stroke="#11df9a" stroke-width="0.6"/><path d="M257.25591,152.00787c-.43291,1.29874-.41175,1.37633-.17061.17061" transform="translate(.00001 0.035683)" fill="none" stroke="#11df9a" stroke-width="0.6"/><path d="M260.49744,157.6379c3.68106.73621,3.09971-3.65241,1.02364-2.72971-2.95018,1.31119-.75151,4.77699,1.70607,4.77699" fill="none" stroke="#11df9a" stroke-width="0.6"/><path d="M265.44504,155.59062c1.0539,1.0539,1.10122,2.64459,1.36485,4.09456.1225.67375.17061,2.73208.17061,2.04728c0-6.30523,4.26517-8.16948,4.26517-1.02364" fill="none" stroke="#11df9a" stroke-width="0.6"/><path d="M277.38752,150.3018c0,2.33706.17061,4.68131.17061,6.99488c0,1.31292,1.26959,4.85233.34121,3.92396-.61987-.61987-1.45079-5.78244-3.24153-2.5591-1.76944,3.18499,3.07092,5.00557,3.07092,2.3885" transform="translate(0 0.000001)" fill="none" stroke="#11df9a" stroke-width="0.6"/></svg>
