<svg id="ewKFrVGj9IR1" xmlns="http://www.w3.org/2000/svg" xmlns:xlink="http://www.w3.org/1999/xlink" viewBox="0 0 300 300" shape-rendering="geometricPrecision" text-rendering="geometricPrecision"><line x1="-15" y1="0" x2="15" y2="0" transform="translate(374.848818 51.676745)" fill="none" stroke="#3f5787" stroke-width="3"/><path d="M36.30837,28.01309c-3.5766,28.6128,15.70453,61.24919,21.9814,88.44898c5.06799,21.96131,2.26735,44.36625,5.75703,66.46757c9.02267,57.14361,37.69302,111.01452,103.62661,82.16857c11.6195-5.08353,23.15682-14.85392,31.402-24.59823c17.41607-20.58263,15.07157-44.5818,18.8412-69.08441c5.13214-33.35888,5.71078-67.19049,10.46733-100.48641c2.33538-16.34763,8.79608-32.46631,12.03743-48.6731" transform="translate(.000001 0)" fill="none" stroke="#1659df" stroke-width="2"/><path d="M99.63575,236.83641c24.51905-24.51904,56.7331-21.47892,86.87888-9.4206" transform="translate(0 0.000001)" fill="none" stroke="#1d9e09" stroke-width="1.5"/><path d="M83.93474,185.02311c35.96377-10.27536,76.9898-10.87505,113.04721-3.66357" transform="translate(0 0.000001)" fill="none" stroke="#1d9e09" stroke-width="1.5"/><path d="M86.02821,135.82663c33.72166-9.63475,81.22128-23.17782,114.61731-3.1402" fill="none" stroke="#1d9e09" stroke-width="1.5"/><path d="M67.18701,70.40579c27.52063-9.17354,123.28381-20.64204,144.97258,1.04673" transform="translate(0 0.000001)" fill="none" stroke="#1d9e09" stroke-width="1.5"/><path d="M224.5073,227.39055c-13.02074,2.17012-8.65335,8.25401-1.22155,7.63469.71732-.05978,1.81581.33843,2.13771-.30539.06734-.13468-10.60433-.16499-7.02392,5.80237c1.57352,2.62253,10.31432,4.84728,9.46702.61078" fill="none" stroke="#1d9309"/><path d="M231.53122,130.58264c2.13818-1.06909,8.60575-3.48623,9.77241.30539.80552,2.61792-7.43378,4.17095-5.49698,6.10775.7445.7445,12.66285,4.3408,3.66465,7.94008-1.45717.58287-3.36844.30539-4.8862.30539" transform="translate(0 0.000001)" fill="none" stroke="#1d9309"/><path d="M255.35146,135.77423c-7.27533.90942-10.89939,9.24162-2.13771,10.99396" transform="translate(.000001 0)" fill="none" stroke="#1d9309"/><path d="M250.15987,140.35504c2.75302,0,5.93833-.7802,7.94008,1.22155" fill="none" stroke="#1d9309"/><path d="M9.39959,64.18329c-1.29283,7.75696.29952,8.23983,7.74044,8.23983" fill="none" stroke="#1d9309"/><path d="M17.88911,64.93237c0,6.10434-.24969,12.13683-.24969,18.2275" fill="none" stroke="#1d9309"/><path d="M31.37246,70.17589c-3.25033-1.30013-6.88502,2.2634-5.49322,5.74291.53045,1.32613,3.96036,1.10965,3.99507,1.24846.09933.3973-4.20139,2.9205-4.49445,3.99507-.79684,2.92176,2.94873,3.60983,4.99384,2.9963c1.18118-.35435,2.55583-1.27202,3.74538-1.74784" transform="translate(0 0.000001)" fill="none" stroke="#1d9309"/><path d="M44.40325,182.38112c-9.91702,1.9834-.92111,3.61978,0,5.46201.9627,1.92541-3.34957,3.79026-2.731,5.85215c1.03317,3.44391,5.43361.92228,5.85215-1.17043" transform="translate(0 0.000001)" fill="none" stroke="#1d9309"/><path d="M19.43408,187.06284c.24977-1.24886.43717-2.80154,1.17043-3.90143c4.68393-7.02589,12.86241,8.85009,7.02258,12.09444-.40259.22366-4.0096.76611-4.29158.39014-1.13196-1.50928,8.72461-1.82295,9.36344-1.95072" fill="none" stroke="#1d9309"/></svg>
