<svg id="eohOwxt8zre1" xmlns="http://www.w3.org/2000/svg" xmlns:xlink="http://www.w3.org/1999/xlink" viewBox="0 0 300 300" shape-rendering="geometricPrecision" text-rendering="geometricPrecision"><path d="M45.79681,102.49794c-3.54379,21.26274-27.8048,65.4734-15.38735,86.16915" transform="translate(.000001 0)" fill="none" stroke="#08c632" stroke-width="2"/><path d="M48.87428,89.16224c-.17097.85485-.34194,1.70971-.51291,2.56456" fill="none" stroke="#08c632" stroke-width="2"/><path d="M66.82619,77.87818c0,21.04202-.36864,48.61432-5.12912,69.24307-1.8338,7.94646-2.24359,16.02607-3.59038,24.10685-.59625,3.57749-1.53873,14.39798-1.53873,10.77114c0-58.35863,43.71849-63.45117,22.56811,0" fill="none" stroke="#08c632" stroke-width="2"/><path d="M77.59733,105.57541c-7.46347,3.19863-16.78639,8.06689-22.56811,13.84861" fill="none" stroke="#08c632" stroke-width="2"/><path d="M117.60444,108.13997c-4.33145-.48127-8.47081-.51291-12.82279-.51291-17.47279,0,5.21784,28.58996,14.36153,14.87444c9.68866-14.53299,6.52504-51.52489-12.82279-55.39445" transform="translate(0 0.000001)" fill="none" stroke="#08c632" stroke-width="2"/><path d="M131.45305,71.72324c-1.67037,8.35183-2.8004,50.52742,5.64203,52.8299c15.79549,4.30786,20.51646-41.21381,20.51646-50.26534" transform="translate(0 0.000001)" fill="none" stroke="#08c632" stroke-width="2"/><path d="M144.27584,80.44274c0,23.91369-9.74532,46.42216-9.74532,69.75598" fill="none" stroke="#08c632" stroke-width="2"/><path d="M99.65253,164.04734c14.15063,0,29.55105-2.78804,43.59749-5.12912" fill="none" stroke="#08c632" stroke-width="2"/><path d="M104.78165,198.92533c-13.43432,5.03787-4.92263,20.65575,6.66785,15.38735c10.26948-4.66794,11.59348-43.08458-9.23241-43.08458" fill="none" stroke="#08c632" stroke-width="2"/><path d="M135.55635,175.33139c-.91678,10.08458-19.65691,53.58122-.51291,49.75243" fill="none" stroke="#08c632" stroke-width="2"/><path d="M124.7852,194.30912c4.22133,0,8.36355.55271,12.30988-1.02582" fill="none" stroke="#08c632" stroke-width="2"/><path d="M157.09863,150.71163c3.99397,0,7.83682-.51291,11.79697-.51291" fill="none" stroke="#08c632" stroke-width="2"/><path d="M154.53408,159.43113c4.90168.70024,8.59252-.51291,13.3357-.51291" fill="none" stroke="#08c632" stroke-width="2"/><path d="M186.84751,110.19162c-5.14281,15.42841-5.12912,63.14288-5.12912,81.55295" fill="none" stroke="#08c632" stroke-width="2"/><path d="M212.49309,113.26909c0,27.06293-1.87064,57.05402-7.18076,83.60459" fill="none" stroke="#08c632" stroke-width="2"/><path d="M182.2313,152.76328c8.54192,0,17.0546-.51291,25.64558-.51291" transform="translate(0-1.282275)" fill="none" stroke="#08c632" stroke-width="2"/><path d="M194.54118,105.0625c1.93346-9.6673,5.30486-10.40531,7.18076-1.02582" transform="translate(0 0.000001)" fill="none" stroke="#08c632" stroke-width="2"/><path d="M224.29006,121.47567c.85732-6.00127,9.3993-15.48302,13.3357-5.64203c5.70505,14.26261-8.66535,58.17724,13.3357,60.01066c16.48811,1.37401,13.39022-56.9441,26.15849-59.49775" transform="translate(0 0.000001)" fill="none" stroke="#08c632" stroke-width="2"/><path d="M253.52602,136.35011c0,25.51974-5.77744,53.50696-10.77114,78.47548" fill="none" stroke="#08c632" stroke-width="2"/></svg>
