<svg width="731" height="160" xmlns="http://www.w3.org/2000/svg">
 <g id="Layer_1">
  <title>Layer 1</title>
  <polyline stroke-linecap="round" id="svg_3" points="813.5,-18.5 813.5,-18.5 " stroke="url(#svg_2)" fill="none"/>
  <path stroke-width="4" d="m133.5,103.5c0,-1 -0.4595,-2.0535 0,-4c1.02748,-4.3525 3.2242,-6.90282 4,-9c1.4305,-3.867 2.67964,-6.02583 3,-8c0.50655,-3.12144 2,-4 3,-6c1,-2 2.4588,-2.69344 3,-4c0.76537,-1.84776 0.48625,-2.82375 1,-5c0.22975,-0.97325 1.4588,-2.69344 2,-4c0.38269,-0.92388 0.4588,-2.69344 1,-4c0.76537,-1.84776 1.5405,-4.0535 2,-6c0.51375,-2.17625 1.43463,-6.15098 4,-8c0.81125,-0.58471 1.4588,-0.69344 2,-2c0.38269,-0.92388 0.47427,-1.14935 1,-2c1.17557,-1.90211 3.07613,-1.38268 4,-1c1.30656,0.54119 1.77025,1.02675 2,2c0.51375,2.17625 2.51945,5.03874 3,8c0.50655,3.12144 0.46927,5.30448 2,9c1.0824,2.61312 1.5405,3.0535 2,5c0.51375,2.17625 1.4588,3.69344 2,5c0.76537,1.84776 1,5 2,7c1,2 1.4588,3.69344 2,5c0.76537,1.84776 0,3 1,5c1,2 1.48625,2.82375 2,5c0.4595,1.9465 1,2 1,3c0,1 0.1731,1.85273 1,3c1.30745,1.814 0.29289,3.29289 1,4c0.70711,0.70711 1.70711,1.29289 1,2c-0.70711,0.70711 -2,0 -4,0c-2,0 -4,0 -7,0c-2,0 -4,0 -7,0c-2,0 -3,0 -5,0c-1,0 -3,0 -4,0c-1,0 -3,0 -4,0c-1,0 -2,0 -3,0c-1,0 -2,0 -3,0c-1,0 -2,0 -3,0c-1,0 -2,0 -3,0c-1,0 -2,0 -3,0c-1,0 -2,0 -3,0c-1,0 -1,-1 -2,-1c-1,0 -2,0 -3,0l0,-1" id="svg_4" stroke="url(#svg_2)" fill="none"/>
  <path stroke-width="4" d="m219.5,41.5c0,1 0.22975,2.02675 0,3c-1.02748,4.3525 -2.4588,5.69344 -3,7c-0.76537,1.84776 -2,4 -2,5c0,2 -0.69255,4.18601 -2,6c-0.8269,1.14727 -1,3 -1,4c0,1 -1,4 -1,6c0,1 0,2 0,4c0,1 0,3 0,4c0,1 0,3 0,6c0,1 0,3 0,4c0,1 0,3 0,4c0,1 0,2 0,3c0,1 0,2 0,3c0,2 0.61731,2.07612 1,3c0.5412,1.30656 1.47427,1.14935 2,2c1.17557,1.90211 2.38687,1.91761 5,3c0.92387,0.38268 2,0 3,0l0,1l1,0" id="svg_5" stroke="url(#svg_2)" fill="none"/>
  <path stroke-width="4" d="m184.5,41.5c1,0 2,0 5,0c2,0 3.69344,-0.45881 5,-1c1.84776,-0.76537 4,0 5,0c3,0 4,0 5,0c2,0 3,0 4,0c2,0 3,0 4,0c1,0 2,0 3,0c1,0 2,0 3,0c1,0 2,0 3,0c1,0 2,0 4,0c1,0 2,0 3,0c1,0 2,0 3,0c1,0 2,0 3,0c1,0 2,0 3,0c1,0 2.29289,-0.70711 3,0c0.70711,0.70711 1,1 2,1c1,0 1,1 2,1l1,0l1,0" id="svg_6" stroke="url(#svg_2)" fill="none"/>
  <path stroke-width="4" d="m240.5,99.5c0,-1 -1,-1 -3,-1c-1,0 -2,0 -3,0c-1,0 -0.69344,1.4588 -2,2c-0.92387,0.38268 -1.29289,0.29289 -2,1c-0.70711,0.70711 0,2 0,4c0,2 0,3 0,4c0,1 -0.70711,2.29289 0,3c0.70711,0.70711 1.29289,0.29289 2,1c0.70711,0.70711 1.4588,0.69344 2,2c0.38269,0.92388 1,1 2,1c1,0 2,0 3,0c1,0 2,0 3,0c1,0 1.61731,-1.07612 2,-2c0.5412,-1.30656 1.4588,-1.69344 2,-3c0.76537,-1.84776 1,-3 1,-4c0,-1 0,-2 0,-3c0,-2 0,-4 0,-5c0,-1 -1.29289,-0.29289 -2,-1c-0.70711,-0.70711 0,-2 -1,-2c-1,0 -1,-1 -2,-1c-1,0 -2,0 -3,0c-1,0 -2,0 -3,0l-1,0l-1,0" id="svg_7" stroke="url(#svg_2)" fill="none"/>
  <path stroke-width="4" d="m281.5,60.5c1,1 2,1 4,1c4,0 7,0 10,0c4,0 7,0 11,0c3,0 5,0 6,0c1,0 2,0 4,0c1,0 2,0 3,0c2,0 4,-1 6,-1c1,0 2,0 3,0l1,0" id="svg_8" stroke="url(#svg_2)" fill="none"/>
  <path stroke-width="4" d="m278.5,87.5c1,0 3,0 8,0c4,0 6.87857,-0.49346 10,-1c3.94836,-0.64073 8,0 10,0c3,0 5,0 8,0c2,0 4.02582,0.32037 6,0c3.12143,-0.50654 4,-1 5,-1c2,0 3,0 5,0c1,0 2,0 3,0l1,0" id="svg_9" stroke="url(#svg_2)" fill="none"/>
  <path stroke-width="4" d="m448.5,17.5c-1,0 -1.1731,0.85273 -2,2c-1.30746,1.81399 -1.9176,2.38687 -3,5c-0.38269,0.92388 -1,3 -1,4c0,1 -1,2 -1,4c0,2 -1,4 -1,5c0,2 -0.48627,3.82375 -1,6c-0.22977,0.97325 0,3 0,4c0,2 -1,3 -1,5c0,2 0,4 0,5c0,1 0,2 0,3c0,1 0,2 0,3c0,1 0,2 0,3c0,1 -0.70709,2.29289 0,3c0.70709,0.70711 1,1 1,2c0,1 1.29291,0.29289 2,1c0.70709,0.70711 1,1 2,1c1,0 2,0 3,0c1,0 2,0 3,0l1,0l1,0l1,-1" id="svg_10" stroke="url(#svg_2)" fill="none"/>
  <path stroke-width="4" d="m409.5,19.5c1,0 2,0 3,0c2,0 6,-1 7,-1c2,0 3,0 4,0c3,0 5,0 7,0c1,0 2,0 3,0c1,0 4,0 6,0c1,0 2,0 3,0c1,0 2,0 3,0c2,0 3,0 4,0c1,0 2,0 3,0c1,0 2,0 4,0c2,0 3,0 4,0c1,0 2,0 3,0c1,0 2,0 3,0c1,0 2,0 3,0c1,0 2,0 3,0l1,0l1,0" id="svg_11" stroke="url(#svg_2)" fill="none"/>
  <path stroke-width="4" d="m395.5,82.5c1,0 2,0 4,0c1,0 5,0 7,0c3,0 6,0 10,0c3,0 6,0 7,0c3,0 5,0 8,0c2,0 4,0 6,0c2,0 4,0 5,0c2,0 4,0 5,0c1,0 2,0 3,0c1,0 2,0 3,0c2,0 3,0 4,0c2,0 3,0 4,0c1,0 4,0 6,0c3,0 4,0 5,0c1,0 2,0 3,0c2,0 3,0 4,0c2,0 4,0 5,0c1,0 2,0 3,0c1,0 2,0 3,0c2,0 3,0 4,0l1,0l1,0l1,0" id="svg_12" stroke="url(#svg_2)" fill="none"/>
  <path stroke-width="4" d="m385.5,86.5c2,0 5.133,-0.4305 9,1c2.09717,0.77579 6,1 8,1c5,0 8,1 13,1c2,0 4.87857,0.49346 8,1c1.97418,0.32037 5,0 6,0c2,0 3,0 4,0c2,0 3,0 6,0c3,0 5,0 6,0c2,0 3,0 4,0c2,0 3,0 4,0c1,0 2,0 3,0c1,0 2,0 3,0c1,0 3,0 4,0c1,0 2,0 3,0c3,0 6,0 7,0c2,0 3,0 5,0c1,0 2,0 3,0c1,0 2,0 4,0c1,0 2,0 3,0c2,0 3,0 4,0c2,0 3,0 4,0l1,0l1,0l1,0" id="svg_15" stroke="url(#svg_2)" fill="none"/>
  <path stroke-width="4" d="m431.5,108.5c1,0 2,0 3,0c1,0 1.82376,0.48626 4,1c0.97324,0.22975 3.07611,0.61732 4,1c1.30655,0.5412 2.186,1.69255 4,3c1.14728,0.8269 3.29871,1.94854 5,3c1.9021,1.17557 2,3 3,4c1,1 2,2 2,3c0,1 1.4588,1.69344 2,3c0.38269,0.92388 1.48627,3.82375 2,6c0.22977,0.97325 -1.56537,4.15099 1,6c0.81125,0.58472 1,2 1,3c0,1 0,2 0,3c0,1 -0.70709,3.29289 0,4c0.70709,0.70711 1,1 1,2c0,1 0,2 0,3c0,1 -1,1 -2,1c-1,0 -2,0 -3,0c-2,0 -3,0 -4,0c-1,0 -1.4588,-0.69344 -2,-2c-0.76538,-1.84776 0,-3 0,-4c0,-1 0,-2 0,-3c0,-1 0,-2 0,-3c0,-2 0,-3 0,-5c0,-1 1,-1 1,-2c0,-1 1,-3 1,-4c0,-1 1.61731,-3.07613 2,-4c0.5412,-1.30656 1.61731,-2.07612 2,-3c1.0824,-2.61313 2.29291,-3.29289 3,-4c0.70709,-0.70711 1,-1 2,-2c1,-1 1.29291,-1.29289 2,-2c0.70709,-0.70711 -0.41422,-1.58578 1,-3c1.41422,-1.41422 2.29291,-1.29289 3,-2c0.70709,-0.70711 0.29291,-1.29289 1,-2c0.70709,-0.70711 1,-1 2,-1c1,0 1,-1 2,-2l0,-1l0,-1" id="svg_16" stroke="url(#svg_2)" fill="none"/>
 </g>
 <defs>
  <linearGradient spreadMethod="pad" y2="0" x2="1" y1="0" x1="0" id="svg_2">
   <stop stop-opacity="0.99609" offset="0" stop-color="#0000ff"/>
   <stop stop-opacity="0.99609" offset="1" stop-color="#ffff00"/>
  </linearGradient>
 </defs>
</svg>