<svg width="731" height="160" xmlns="http://www.w3.org/2000/svg">
 <g id="Layer_1">
  <title>Layer 1</title>
  <path stroke-width="4" d="m41.5,30.5c0,1 0.38268,2.07612 0,3c-1.08239,2.61312 -3.45881,3.69344 -4,5c-0.38268,0.92388 -1.45881,2.69344 -2,4c-0.76537,1.84776 -1,4 -2,6c-1,2 -1.48626,2.82375 -2,5c-0.45951,1.9465 0.45951,4.0535 0,6c-0.51374,2.17625 -2,3 -2,5c0,3 0,4 0,7c0,3 0,6 0,9c0,3 0,5 0,7c0,2 0,5 0,8c0,1 0,3 0,5c0,2 0,5 0,7c0,1 0,3 0,5c0,1 0.23463,3.15224 1,5c0.5412,1.30656 1.29289,1.29289 2,2c0.70711,0.70711 1.29289,4.29289 2,5c0.70711,0.70711 1,1 2,2c1,1 1.61732,1.07612 2,2c0.54119,1.30656 1.29289,1.29289 2,2c0.70711,0.70711 2,1 2,2l0,1" id="svg_1" stroke="url(#svg_2)" fill="none"/>
  <polyline stroke-linecap="round" id="svg_4" points="-2.5,-278.5 -2.5,-278.5 " stroke="url(#svg_2)" fill="none"/>
  <path stroke-width="4" d="m65.5,68.5c0,1 -0.29289,1.29289 -1,2c-0.70711,0.70711 -1.45881,1.69344 -2,3c-0.38268,0.92388 -0.45881,1.69344 -1,3c-0.76537,1.84776 0.38268,4.07612 0,5c-0.54119,1.30656 -0.77025,3.02675 -1,4c-0.51374,2.17625 -1.49346,2.87856 -2,6c-0.32037,1.97417 0,3 0,5c0,2 0,3 0,5c0,2 0,5 0,7c0,3 0,4 0,6c0,1 0,2 0,3c0,1 0,3 0,4c0,2 0.29289,3.29289 1,4c0.70711,0.70711 0.61732,2.07612 1,3c0.54119,1.30656 1,2 1,3l0,-1" id="svg_5" stroke="url(#svg_2)" fill="none"/>
  <path stroke-width="4" d="m70.5,46.5c0,1 -1.48626,0.82375 -2,3c-0.22975,0.97325 -1,3 0,3c1,0 0,-2 0,-4c0,-2 0,-3 -1,-3c-1,0 -2.29289,-0.70711 -3,0c-0.70711,0.70711 0.38268,2.07612 0,3c-0.54119,1.30656 -1.70711,2.29289 -1,3c0.70711,0.70711 2,0 2,-1c0,-1 0,-2 0,-4l0,-1l-1,0" id="svg_6" stroke="url(#svg_2)" fill="none"/>
  <path stroke-width="4" d="m95.5,38.5c-1,1 -0.08099,2.107 -1,6c-0.51374,2.17625 -0.31074,7.08025 -1,10c-0.51374,2.17625 -1,5 -1,9c0,3 0.24437,5.01498 0,7c-0.50378,4.09222 -1,8 -1,9c0,2 0,3 0,6c0,3 0.32037,6.02583 0,8c-0.50654,3.12144 -0.75563,5.01498 -1,7c-0.50378,4.09222 -0.51127,6.02997 -1,10c-0.50378,4.09222 -1,7 -1,10c0,3 0,5 0,6c0,2 -0.49622,3.90779 -1,8c-0.24437,1.98502 0.38268,3.07613 0,4c-0.5412,1.30656 -1,0 -1,-1c0,-4 0,-6 0,-9c0,-4 -0.86935,-9.12872 0,-12c1.04483,-3.45084 1.85273,-6.1731 3,-7c1.814,-1.30745 2.33749,-4.31001 4,-7c0.7435,-1.203 2.61732,-3.07612 3,-4c0.5412,-1.30656 2,-2 4,-2c1,0 2,0 3,0c2,0 3,0 5,0c1,0 2.07612,0.61732 3,1c1.30656,0.5412 1,3 1,5c0,2 0,4 0,6c0,2 0,3 0,4c0,1 0,2 0,3c0,2 0,3 0,4c0,1 0,2 0,3c0,1 0,2 0,3c0,1 0,2 0,3c0,1 0,2 0,3c0,1 0,2 0,3c0,1 0,2 0,3l1,0l0,-1" id="svg_7" stroke="url(#svg_2)" fill="none"/>
  <path stroke-width="4" d="m80.5,76.5c2,0 2.82375,-0.48626 5,-1c2.91975,-0.68926 5,0 7,-1c2,-1 4,-1 6,-2c2,-1 2,-2 3,-2c1,0 1.186,-0.69255 3,-2c1.14727,-0.8269 1,-2 2,-3l1,0" id="svg_9" stroke="url(#svg_2)" fill="none"/>
  <path stroke-width="4" d="m138.5,84.5c0,2 0.2565,2.797 1,4c1.66251,2.68999 0.41885,5.41886 2,7c1.58115,1.58114 1.61731,2.07612 2,3c0.5412,1.30656 0.83981,2.01291 1,3c0.50655,3.12144 2,5 2,7c0,2 0,3 0,5c0,1 0.4588,1.69344 1,3c0.38269,0.92388 0,2 0,3c0,1 0,3 0,6c0,1 0,2 0,4c0,1 -0.61731,2.07613 -1,3c-0.5412,1.30656 -1,2 -2,3c-1,1 -2.1731,1.85274 -3,3c-1.30745,1.814 -2.07613,2.61731 -3,3c-1.30656,0.5412 -2,1 -3,1c-2,0 -3,-3 -3,-5c0,-2 0,-4 0,-7c0,-1 0.48625,-2.82375 1,-5c0.4595,-1.9465 1.49345,-3.87856 2,-7c0.16019,-0.98709 1.1731,-1.85273 2,-3c1.30745,-1.814 1.61731,-4.07612 2,-5c0.5412,-1.30656 1.29289,-2.29289 2,-3c0.70711,-0.70711 1.4588,-1.69344 2,-3c0.38269,-0.92388 0.61731,-1.07612 1,-2c0.5412,-1.30656 1.29289,-1.29289 2,-2c1.41422,-1.41422 1,-4 2,-5c1,-1 2,-2 2,-3l1,-1l2,0l0,-1" id="svg_10" stroke="url(#svg_2)" fill="none"/>
  <path stroke-width="4" d="m166.5,80.5c0,-1 0,-2 0,-4c0,-2 1.4588,-2.69344 2,-4c0.38269,-0.92388 0.69344,-2.4588 2,-3c0.92387,-0.38268 2,-1 2,-2c0,-1 -0.70711,-2.29289 0,-3c0.70711,-0.70711 1.5405,-2.0535 2,-4c0.51375,-2.17625 0.69344,-4.54119 2,-4c0.92387,0.38268 0,3 0,4c0,1 0,2 0,3c0,1 -0.38269,2.07612 0,3c0.5412,1.30656 1,2 1,3c0,1 0,2 0,3c0,1 -0.70711,2.29289 0,3c0.70711,0.70711 1,1 2,1c1,0 3.9176,0.61313 5,-2c0.38269,-0.92388 1.29289,-1.29289 2,-2c0.70711,-0.70711 0,-2 0,-3c0,-1 0,-2 0,-3c0,-1 0,-2 0,-3c0,-2 0,-3 0,-4l0,-1" id="svg_11" stroke="url(#svg_2)" fill="none"/>
  <path stroke-width="4" d="m215.5,97.5c-1,0 -2,0 -4,0c-1,0 -1.69344,0.4588 -3,1c-0.92387,0.38268 -1.29289,0.29289 -2,1c-0.70711,0.70711 0.38269,2.07612 0,3c-0.5412,1.30656 -1,3 -1,4c0,1 0,2 0,3c0,1 0,2 0,3c0,1 0,2 0,3c0,1 1.29289,2.29289 2,3c0.70711,0.70711 1,1 2,2c1,1 2,1 3,1c1,0 3,0 4,0c1,0 2,0 4,0c1,0 2,-1 3,-1c2,0 3.23463,-1.15224 4,-3c0.5412,-1.30656 2,-4 2,-8c0,-3 0,-7 0,-10c0,-3 0,-7 0,-10c0,-3 -0.4588,-4.69344 -1,-6c-1.53073,-3.69552 -1,-6 -2,-9c-1,-3 -1.5405,-4.0535 -2,-6c-0.51375,-2.17625 -2.48625,-3.82375 -3,-6c-0.22975,-0.97325 -0.2565,-1.797 -1,-3c-1.66251,-2.68999 -2.48625,-3.82375 -3,-6c-0.22975,-0.97325 -1,-1 -1,-2c0,-1 -0.61731,-1.07612 -1,-2c-0.5412,-1.30656 -2,-1 -2,-2l-1,0l-1,0" id="svg_12" stroke="url(#svg_2)" fill="none"/>
  <path stroke-width="4" d="m242.5,134.5c0,-1 1.48625,-2.82375 2,-5c0.4595,-1.9465 1.48625,-3.82375 2,-6c0.4595,-1.9465 0.29289,-2.29289 1,-3c0.70711,-0.70711 1,-2 1,-4c0,-2 0.77025,-3.02675 1,-4c0.51375,-2.17625 1.29289,-2.29289 2,-3c2.12132,-2.12132 2,-5 1,-5c-1,0 0,3 0,6c0,3 0,6 0,7c0,2 0,4 0,5c0,1 0.29289,1.29289 1,2c0.70711,0.70711 1.4588,0.69344 2,2c0.38269,0.92388 1,1 2,1c1,0 2,0 3,0c1,0 1,-1 2,-2c1,-1 3.9176,-3.38687 5,-6c1.14804,-2.77164 2,-4 2,-6c0,-1 0,-2 0,-3c0,-1 0,-2 0,-3l0,-1l0,-1" id="svg_13" stroke="url(#svg_2)" fill="none"/>
  <path stroke-width="4" d="m285.5,93.5c1,0 2,0 3,0c2,0 5,0 6,0c1,0 3,0 4,0c1,0 3,0 4,0c2,0 4.01498,0.24437 6,0c4.09222,-0.50378 5.82376,-1.48626 8,-2c0.97324,-0.22975 2,0 3,0c1,0 1.69345,-0.4588 3,-1c0.92389,-0.38268 2,0 3,0l1,0l1,0" id="svg_14" stroke="url(#svg_2)" fill="none"/>
  <path stroke-width="4" d="m346.5,70.5c1,0 1,3 2,7c1,4 1.31073,9.08025 2,12c1.0275,4.3525 3,6 3,8c0,3 0.49347,3.87856 1,7c0.32037,1.97417 0,3 0,4c0,2 0,3 0,4c0,1 0,0 0,-1c0,-3 0,-5 0,-8c0,-4 -0.4595,-7.0535 0,-9c0.51373,-2.17625 0.78986,-3.07844 2,-6c0.85571,-2.06586 0.33749,-5.31001 2,-8c0.7435,-1.203 1.9176,-2.38687 3,-5c0.38269,-0.92388 1,-2 2,-2c1,0 2,0 3,0c1,0 3.4588,-0.30656 4,1c0.38269,0.92388 2,3 3,4c1,1 1.1731,2.85273 2,4c1.30746,1.814 2,5 2,6c0,3 0,5 0,7c0,2 0,4 0,5c0,1 0,2 0,3c0,1 -0.49347,0.12144 -1,-3c-0.64072,-3.94835 0,-7 0,-13c0,-5 0,-8 0,-9c0,-1 -0.22977,-2.02675 0,-3c0.51373,-2.17625 1,-3 1,-4c0,-1 0.69345,-3.4588 2,-4c0.92389,-0.38268 2,0 3,0c1,0 3.1731,-0.14727 4,1c1.30746,1.814 1.61731,2.07612 2,3c0.5412,1.30656 2,3 2,5c0,1 0,3 0,5c0,1 0,2 0,3c0,1 0,2 0,3c0,1 0.48627,1.82375 1,4c0.22977,0.97325 0,2 0,3c0,1 -0.76538,2.15224 0,4c0.5412,1.30656 1,2 1,3l0,1" id="svg_15" stroke="url(#svg_2)" fill="none"/>
  <path stroke-width="4" d="m425.5,72.5c0,-1 -0.82376,-1.48626 -3,-2c-1.9465,-0.4595 -3,0 -5,0c-1,0 -2,0 -3,0c-1,0 -2,0 -3,0c-1,0 -2,1 -3,2c-1,1 -1.77023,3.02675 -2,4c-0.51373,2.17625 -1,3 -1,4c0,2 -1,3 -1,5c0,3 0,5 0,7c0,2 0,4 0,5c0,2 0.9176,3.38687 2,6c0.38269,0.92388 1.41885,1.41886 3,3c1.58115,1.58114 0.69345,4.4588 2,5c0.92389,0.38268 2,1 3,1c1,0 2,0 3,0c1,0 4,0 5,0c1,0 2,0 3,-1c1,-1 1.69345,-1.4588 3,-2c0.92389,-0.38268 1.29291,-0.29289 2,-1c0.70709,-0.70711 1,-1 2,-2c1,-1 2,-2 3,-3l0,-1" id="svg_16" stroke="url(#svg_2)" fill="none"/>
  <path stroke-width="4" d="m444.5,38.5c1,0 2,0 3,0c1,0 1.4588,0.69344 2,2c0.38269,0.92388 2.48627,2.82375 3,5c0.4595,1.9465 1.29291,2.29289 2,3c1.41422,1.41422 0,4 0,6c0,1 1.4588,3.69344 2,5c0.38269,0.92388 0.48627,1.82375 1,4c0.22977,0.97325 -0.68927,3.08025 0,6c0.51373,2.17625 1,3 1,4c0,1 1,2 1,3c0,3 0,4 0,5c0,1 0,2 0,4c0,2 0,4 0,6c0,2 0,4 0,5c0,2 0,4 0,5c0,2 0,4 0,6c0,2 0,3 0,4c0,1 0,2 0,3c0,1 0,2 0,3c0,1 -0.4588,1.69344 -1,3c-0.38269,0.92388 -1,2 -1,3c0,1 -1.4588,1.69344 -2,3c-0.38269,0.92388 -0.29291,1.29289 -1,2c-0.70709,0.70711 -0.61731,1.07613 -1,2c-1.0824,2.61313 -2.69345,3.4588 -4,4c-0.92389,0.38269 -2,1 -2,2l-1,0" id="svg_18" stroke="url(#svg_2)" fill="none"/>
  <path stroke-width="4" d="m482.5,59.5c0,2 1.95517,4.54916 3,8c0.57956,1.91418 0.22421,3.90282 1,6c1.43048,3.867 0.31073,7.08025 1,10c1.0275,4.3525 2,6 2,8c0,1 0,4 0,6c0,1 0.4588,2.69344 1,4c0.38269,0.92388 0,2 0,3c0,1 0.0979,2.82443 2,4c0.85065,0.52573 1,1 2,1c1,0 2,0 3,0c1,0 2,0 3,0c1,0 3,0 4,0c1,0 2,0 3,0c1,0 2,0 4,0c1,0 2.02673,0.22975 3,0c2.17627,-0.51374 3,-2 4,-3c1,-1 2,-2 2,-3c0,-1 1,-1 1,-3c0,-2 1.25653,-3.797 2,-5c1.66254,-2.68999 1,-5 1,-6c0,-1 0,-3 0,-4c0,-2 0,-3 0,-4c0,-2 0,-3 0,-6c0,-3 0,-6 0,-7c0,-2 0,-3 0,-4c0,-1 0,-2 0,-5l0,-1l0,-1" id="svg_19" stroke="url(#svg_2)" fill="none"/>
  <path stroke-width="4" d="m551.5,44.5c0,1 0,3 0,4c0,3 -0.49347,3.87856 -1,7c-0.32037,1.97417 -0.48627,3.82375 -1,6c-0.22974,0.97325 -1,3 -1,4c0,2 -1,3 -1,6c0,2 0.68927,6.08025 0,9c-0.51373,2.17625 -2,6 -2,8c0,2 0,4 0,7c0,1 -0.45953,3.0535 0,5c0.51373,2.17625 1,4 3,6c1,1 1.4588,1.69344 2,3c0.38269,0.92388 0.29291,1.29289 1,2c0.70709,0.70711 1.29291,0.29289 2,1c0.70709,0.70711 1.29291,0.29289 2,1c0.70709,0.70711 0.61731,1.07612 1,2c0.5412,1.30656 2,1 2,2l2,1" id="svg_20" stroke="url(#svg_2)" fill="none"/>
  <path stroke-width="4" d="m565.5,63.5c1,0 2.07611,-0.38268 3,0c2.6131,1.08239 2.69257,4.186 4,6c0.8269,1.14727 2.20679,2.81266 4,5c2.28589,2.78832 2.71411,4.21168 5,7c0.89661,1.09367 1.77026,3.02675 2,4c0.51373,2.17625 2.23462,2.15224 3,4c0.5412,1.30656 1.4588,1.69344 2,3c0.38269,0.92388 0.69257,1.186 2,3c0.8269,1.14727 1.07611,1.61732 2,2c1.30658,0.5412 1.77026,1.02675 2,2c0.51373,2.17625 2,2 3,3l1,0l0,1l1,0" id="svg_21" stroke="url(#svg_2)" fill="none"/>
  <path stroke-width="4" d="m507.5,70.5c0,1 0,5 0,9c0,2 0,7 0,10c0,2 0,4 0,7c0,3 0,6 0,7c0,2 0,3 0,5c0,2 0,4 0,6c0,1 0,3 0,5c0,1 0.22977,2.02675 0,3c-0.51373,2.17625 -1.4588,2.69344 -2,4c-0.38269,0.92388 0.70709,2.29289 0,3c-0.70709,0.70711 -0.61731,1.07613 -1,2c-0.5412,1.30656 -1,2 -1,3c0,1 -1,2 -1,3c0,1 -1,2 -1,3c0,1 -0.4588,1.69344 -1,3c-0.38269,0.92387 0,2 -1,3l-1,0" id="svg_22" stroke="url(#svg_2)" fill="none"/>
  <path stroke-width="4" d="m594.5,63.5c-1,0 -0.23462,1.15224 -1,3c-1.0824,2.61313 -2.95514,3.54916 -4,7c-0.57959,1.91418 -1.4588,2.69344 -2,4c-0.76538,1.84776 -0.69257,4.186 -2,6c-0.8269,1.14727 -0.23462,2.15224 -1,4c-0.5412,1.30656 -1.54047,2.0535 -2,4c-0.51373,2.17625 -1.9176,3.38687 -3,6c-0.76538,1.84776 -0.69257,3.186 -2,5c-0.8269,1.14727 -1.47424,3.14935 -2,4c-1.1756,1.90211 -2,2 -3,3l0,1l-1,1l0,1" id="svg_23" stroke="url(#svg_2)" fill="none"/>
  <path stroke-width="4" d="m605.5,44.5c0,1 0.4588,1.69344 1,3c0.38269,0.92388 0.1731,1.85273 1,3c1.30743,1.81399 0.61731,3.07612 1,4c0.5412,1.30656 1.48627,1.82375 2,4c0.45953,1.9465 0.23462,3.15224 1,5c0.5412,1.30656 2,3 3,5c1,2 1.29291,5.29289 2,6c0.70709,0.70711 1.48627,0.82375 2,3c0.22974,0.97325 0,3 0,4c0,2 0,4 0,5c0,2 0,3 0,4c0,1 0,2 0,3c0,1 0,2 0,3c0,1 -1,2 -1,3c0,1 -1,2 -1,3c0,1 -1,2 -2,3c-1,1 -1,2 -2,3c-1,1 -1.29291,1.29289 -2,2c-0.70709,0.70711 -1.29291,1.29289 -2,2c-0.70709,0.70711 -2,0 -2,1l-1,0l0,1" id="svg_24" stroke="url(#svg_2)" fill="none"/>
  <path stroke-width="4" d="m632.5,69.5c1,0 2,0 3,0c3,0 4.29291,0.29289 5,1c0.70709,0.70711 1,1 2,1c1,0 2,1 3,1c1,0 2.87854,0.49346 6,1c0.98706,0.16018 2,1 3,1l1,0l1,0l1,0" id="svg_25" stroke="url(#svg_2)" fill="none"/>
  <path stroke-width="4" d="m632.5,96.5c1,0 2,0 3,0c1,0 2.02673,0.22975 3,0c2.17627,-0.51374 3,-1 4,-1c1,0 2,-1 3,-1c1,0 3,-1 4,-1c1,0 1.82373,-0.48626 4,-1c0.97327,-0.22975 2,0 3,0l1,0" id="svg_26" stroke="url(#svg_2)" fill="none"/>
  <path stroke-width="4" d="m699.5,57.5c0,-1 -1,-1 -2,-1c-2,0 -3,0 -4,0c-1,0 -2,0 -3,0c-2,0 -3,1 -4,2c-1,1 -1.07611,1.61732 -2,2c-1.30658,0.54119 -2,1 -3,3c-1,2 -2.1731,2.85273 -3,4c-1.30743,1.814 -1.54047,4.0535 -2,6c-0.51373,2.17625 -1.25653,2.797 -2,4c-1.66254,2.68999 -2,7 -2,9c0,3 0,5 0,7c0,2 0,4 0,5c0,1 0,3 0,5c0,2 0,5 0,6c0,2 -1.41418,3.58578 0,5c0.70709,0.70711 2,1 3,3c1,2 2,2 3,3c1,1 2.07611,0.61732 3,1c1.30658,0.5412 2.29291,0.29289 3,1c0.70709,0.70711 1.07611,0.61732 2,1c1.30658,0.5412 1.82373,1.48626 4,2c0.97327,0.22975 2,0 3,0c1,0 3,0 4,0c2,0 2.69342,-1.4588 4,-2c0.92389,-0.38268 2.0979,-0.82443 4,-2c0.85065,-0.52573 1.29291,-1.29289 2,-2c0.70709,-0.70711 1.07611,-0.61732 2,-1c1.30658,-0.5412 1.33746,-2.31001 3,-5c0.74347,-1.203 1.61731,-3.07612 2,-4c0.5412,-1.30656 1,-2 1,-3c0,-1 1,-2 1,-3c0,-1 0.48627,-1.82375 1,-4c0.45953,-1.9465 0.78986,-3.07844 2,-6c0.85571,-2.06586 1,-3 1,-4c0,-1 0,-3 0,-4c0,-1 0,-3 0,-5c0,-1 0,-2 0,-3c0,-1 0,-2 0,-4c0,-2 0,-4 0,-6c0,-1 -1,-1 -1,-2c0,-1 -1,-2 -1,-3c0,-1 -1,-1 -1,-2c0,-1 -1,-1 -2,-1c-1,0 -1,-1 -2,-1c-1,0 -2,-1 -3,-1c-1,0 -2,0 -3,0c-1,0 -2,-1 -4,-1c-1,0 -2,-1 -3,-1c-1,0 -2,0 -3,0l-1,0" id="svg_27" stroke="url(#svg_2)" fill="none"/>
 </g>
 <defs>
  <linearGradient spreadMethod="pad" y2="0" x2="1" y1="0" x1="0" id="svg_2">
   <stop offset="0" stop-color="#007f00"/>
   <stop offset="1" stop-color="#ff80ff"/>
  </linearGradient>
 </defs>
</svg>