<svg width="731" height="160" xmlns="http://www.w3.org/2000/svg">
 <g id="Layer_1">
  <title>Layer 1</title>
  <polyline stroke-linecap="round" id="svg_3" points="330.5,349.5 191.5,208.5 " stroke-width="4" stroke="url(#svg_1)" fill="none"/>
  <path d="m96.5,27.5c-1,0 -2,0 -4,0c-4,0 -6,0 -9,0c-2,0 -3,1 -4,1c-2,0 -3,1 -5,2c-2,1 -3,2 -4,3c-2,2 -3,4 -4,6c-1,2 -2.2565,2.797 -3,4c-1.66251,2.68999 -2.45881,4.69344 -3,6c-0.38268,0.92388 -1.49346,4.87856 -2,8c-0.48055,2.96126 0.24437,4.01498 0,6c-0.50377,4.09222 -1,7 -1,10c0,1 0,5 0,7c0,3 -0.28978,6.04291 0,7c1.04483,3.45084 2.1731,3.85273 3,5c1.30745,1.814 2,4 3,6c1,2 1.1731,3.85273 2,5c1.30745,1.814 1.29289,4.29289 2,5c0.70711,0.70711 1.69344,1.4588 3,2c0.92388,0.38268 0.69344,1.4588 2,2c1.84776,0.76537 3,0 5,0c1,0 2,0 3,0c1,0 2.69344,-0.4588 4,-1c0.92388,-0.38268 1.29289,-0.29289 2,-1c0.70711,-0.70711 2.41886,-1.41886 4,-3c1.58114,-1.58114 2.14935,-1.47427 3,-2c1.90211,-1.17557 2.48626,-2.82375 3,-5c0.22975,-0.97325 1,-4 1,-5c0,-1 0,-2 0,-3c0,-2 0,-3 0,-4c0,-2 0,-3 0,-4c0,-1 0.30745,-2.186 -1,-4c-0.8269,-1.14727 -0.29289,-2.29289 -1,-3c-0.70711,-0.70711 -0.29289,-1.29289 -1,-2c-0.70711,-0.70711 -3,-1 -4,-1c-1,0 -2,0 -3,0c-1,0 -2.29289,-0.70711 -3,0c-0.70711,0.70711 -1,1 -2,2c-1,1 -0.61732,2.07612 -1,3c-0.5412,1.30656 -0.61732,2.07612 -1,3c-0.5412,1.30656 -2,2 -2,3c0,1 -0.51374,1.17625 0,-1c0.22975,-0.97325 1,-2 2,-4c1,-2 2.29289,-3.29289 3,-4c0.70711,-0.70711 1,-1 2,-1c1,0 2,0 4,0c2,0 5,0 6,0c1,0 2,0 3,0c2,0 4,0 5,0c1,0 3.07612,-0.38268 4,0c1.30656,0.5412 1.77025,1.02675 2,2c0.51374,2.17625 1,3 1,5c0,2 0,3 0,5c0,1 0,2 0,4c0,1 0.38268,3.07612 0,4c-0.5412,1.30656 -1,3 -1,6c0,1 -1,2 -1,4c0,1 -1.29289,1.29289 -2,2c-1.41422,1.41422 -1.1731,2.85273 -2,4c-1.30745,1.814 -1.70711,3.29289 -1,4c0.70711,0.70711 2,1 4,1c2,0 3,0 4,0c1,0 2,0 3,0l1,0l1,0" id="svg_7" stroke-width="4" stroke="url(#svg_6)" fill="none"/>
  <path d="m123.5,132.5c0,-1 0,-2 0,-3c0,-1 1.41886,-2.41886 3,-4c1.58115,-1.58114 2.69255,-3.186 4,-5c0.8269,-1.14727 1.33749,-3.31001 3,-6c0.7435,-1.203 1.07613,-1.61732 2,-2c1.30656,-0.5412 2.41885,-4.41886 4,-6c1.58115,-1.58114 2.61731,-1.07612 3,-2c0.5412,-1.30656 0.69255,-2.186 2,-4c0.8269,-1.14727 1,-2 1,-3c0,-1 0,-2 0,-1c0,1 0,4 0,7c0,3 0,5 0,8c0,1 -0.29289,1.29289 -1,2c-1.41422,1.41422 0,3 0,4c0,1 -0.70711,2.29289 0,3c0.70711,0.70711 2,0 3,0c1,0 2.69344,-0.4588 4,-1c0.92387,-0.38268 1,-1 2,-2c1,-1 0.69344,-2.4588 2,-3c0.92387,-0.38268 2,0 2,-1c0,-1 1,-2 1,-3c0,-1 1,-2 1,-3c0,-1 0,-2 0,-3l0,-1l0,-1l0,-1" id="svg_8" stroke-width="4" stroke="url(#svg_6)" fill="none"/>
  <path d="m170.5,99.5c0,1 0,3 0,4c0,1 0,3 0,5c0,2 0,3 0,4c0,2 1,5 1,6c0,1 0,2 0,3c0,1 1,1 1,2c0,1 0.29289,1.29289 1,2c0.70711,0.70711 0.61731,0.92388 1,0c0.5412,-1.30656 1.23463,-2.15224 2,-4c0.5412,-1.30656 0.77025,-2.02675 1,-3c0.51375,-2.17625 1.14935,-2.47427 2,-3c1.90211,-1.17557 1,-3 1,-4c0,-1 1,-1 1,-2c0,-1 0,-2 0,-3c0,-1 0,-2 1,-2l0,-1l0,-1" id="svg_9" stroke-width="4" stroke="url(#svg_6)" fill="none"/>
  <path d="m206.5,69.5c0,1 0,3 0,5c0,3 0.95517,5.54916 2,9c0.57957,1.91418 0,3 0,5c0,1 -0.76537,2.15224 0,4c0.5412,1.30656 1,2 1,3c0,1 -0.70711,2.29289 0,3c0.70711,0.70711 1,1 1,2c0,1 0,2 0,3c0,1 0,2 0,3l0,1l0,1" id="svg_11" stroke-width="4" stroke="url(#svg_6)" fill="none"/>
  <path d="m192.5,89.5c1,0 3,0 4,0c2,0 3,0 5,0c2,0 4,0 5,0c1,0 2.07613,-0.38268 3,0c1.30656,0.5412 3,1 4,1c1,0 2,0 3,0c1,0 2,0 3,0l1,0l1,0" id="svg_13" stroke-width="4" stroke="url(#svg_6)" fill="none"/>
  <path d="m238.5,111.5c0,1 2,1 3,1c2,0 3,0 4,0c1,0 2,0 4,0c1,0 2,0 3,0c1,0 2,0 3,0c1,0 2,0 3,0l1,0l1,0" id="svg_14" stroke-width="4" stroke="url(#svg_6)" fill="none"/>
  <path d="m307.5,108.5c0,-1 0,-2 0,-3c0,-1 -1,-1 -1,-2c0,-1 -0.29291,-1.29289 -1,-2c-0.70709,-0.70711 -0.77023,-3.02675 -1,-4c-0.51373,-2.17625 -1.23462,-3.15224 -2,-5c-0.5412,-1.30656 -1.34619,-1.70546 -3,-4c-1.30746,-1.814 -2.4588,-3.69344 -3,-5c-0.38269,-0.92388 -0.61731,-2.07612 -1,-3c-0.5412,-1.30656 -1.14935,-1.47427 -2,-2c-1.9021,-1.17557 -0.29291,-3.29289 -1,-4c-0.70709,-0.70711 -0.47427,-1.14935 -1,-2c-1.17557,-1.90211 -1.77023,-3.02675 -2,-4c-0.51373,-2.17625 -1.4588,-2.69344 -2,-4c-0.38269,-0.92388 0,-2 -1,-3c-1,-1 -1.48627,-1.82375 -2,-4c-0.22977,-0.97325 0.70709,-2.29289 0,-3c-0.70709,-0.70711 -0.29291,-1.29289 -1,-2c-0.70709,-0.70711 -1,-1 -1,-2c0,-1 0.30655,-2.45881 -1,-3c-0.92389,-0.38268 -2,1 -3,2c-1,1 -2,2 -2,3c0,1 -1.18875,2.41529 -2,3c-2.56537,1.84902 -0.69254,4.18601 -2,6c-0.8269,1.14727 -2,2 -2,3c0,2 -1,3 -1,5c0,1 0,2 0,3c0,1 -0.29291,3.29289 -1,4c-0.70709,0.70711 -0.77023,1.02675 -1,2c-0.51373,2.17625 -1.48627,2.82375 -2,5c-0.22977,0.97325 -0.4588,2.69344 -1,4c-0.38269,0.92388 -0.4588,1.69344 -1,3c-0.38269,0.92388 -1,2 -1,3c0,1 -0.29291,1.29289 -1,2c-0.70709,0.70711 -1,1 -1,2c0,1 0.38269,2.07612 0,3c-0.5412,1.30656 -2,2 -2,3c0,1 -1,1 -1,2c0,1 -1,1 -1,2l-1,0" id="svg_15" stroke-width="4" stroke="url(#svg_6)" fill="none"/>
  <path d="m339.5,98.5c-1,0 -2,0 -3,0c-1,0 -2.02676,0.77025 -3,1c-2.17624,0.51374 -3.1731,1.85273 -4,3c-1.30746,1.814 -2,2 -2,3c0,1 0,3 0,5c0,1 0,2 0,3c0,1 0.4588,1.69344 1,3c0.38269,0.92388 1,1 2,1c1,0 2,0 3,0c1,0 3,1 4,1c1,0 2,0 3,0c1,0 2.07611,0.38268 3,0c1.30655,-0.5412 2,-2 2,-3c0,-2 0,-3 0,-4c0,-2 0,-3 0,-4c0,-1 0,-2 0,-3c0,-1 0,-2 0,-3c0,-1 0,-2 0,-4c0,-1 0,-2 0,-1c0,1 0,3 0,4c0,2 0.75565,4.01498 1,6c0.50378,4.09222 1,6 1,8c0,1 0,3 0,6c0,1 0,2 0,3c0,1 0,2 0,3c0,1 0,2 0,3c0,1 0,3 0,4c0,1 0.70709,2.29289 0,3c-0.70709,0.70711 -1,1 -2,2c-1,1 -3.29291,1.29289 -4,2c-0.70709,0.70711 -1,1 -2,1c-1,0 -1.29291,0.29289 -2,1c-0.70709,0.70711 -2,0 -3,0c-1,0 -2,0 -4,0c-1,0 -2,0 -4,0c-1,0 -2,-1 -3,-2c-1,-1 -2.29291,-0.29289 -3,-1c-0.70709,-0.70711 -1,-1 -1,-2l0,-2l-1,-1l0,-1" id="svg_18" stroke-width="4" stroke="url(#svg_6)" fill="none"/>
  <path d="m356.5,119.5c0,-1 0.61731,-1.07612 1,-2c0.5412,-1.30656 2,-2 3,-3c1,-1 2.4588,-2.69344 3,-4c0.38269,-0.92388 0.61731,-2.07612 1,-3c0.5412,-1.30656 0.69254,-2.186 2,-4c0.8269,-1.14727 1,-2 1,-3c0,-1 1,-2 1,-3c0,-1 1,-1 1,0c0,1 0,2 0,3c0,1 0,3 0,5c0,2 0,3 0,4c0,1 0,2 0,3c0,1 0.82443,2.09789 2,4c0.52573,0.85065 0.29291,2.29289 1,3c0.70709,0.70711 2,0 4,0c2,0 3,0 4,0c1,0 2,0 2,-1c0,-1 0.4588,-1.69344 1,-3c0.38269,-0.92388 1,-2 1,-5c0,-2 0,-4 0,-5c0,-1 0,-2 0,-3l0,-1l0,-1l0,-1" id="svg_19" stroke-width="4" stroke="url(#svg_6)" fill="none"/>
  <path d="m393.5,98.5c-1,0 -1.76538,2.15224 -1,4c0.5412,1.30656 1,2 1,3c0,3 -0.22977,4.02675 0,5c0.51373,2.17625 0.29291,3.29289 1,4c0.70709,0.70711 1.4588,0.69344 2,2c0.38269,0.92388 1,2 1,3c0,1 0.29291,2.70711 1,2c0.70709,-0.70711 0.1731,-1.85273 1,-3c1.30746,-1.814 2,-3 2,-5c0,-2 0.61731,-3.07612 1,-4c0.5412,-1.30656 1,-2 1,-3c0,-2 1,-4 1,-5l0,-1" id="svg_20" stroke-width="4" stroke="url(#svg_6)" fill="none"/>
  <path d="m431.5,69.5c1,0 2,1 3,1c1,0 3,0 4,0c1,0 2,0 4,0c2,0 3,0 4,0c1,0 2,0 3,0c1,0 2,0 3,0c2,0 3,0 4,0c1,0 2,0 3,0c1,0 2,0 3,0c1,0 2,0 3,0l0,1" id="svg_21" stroke-width="4" stroke="url(#svg_6)" fill="none"/>
  <path d="m429.5,86.5c1,0 2.0535,-0.4595 4,0c2.17624,0.51374 3,1 5,1c2,0 4,0 5,0c1,0 2,0 3,0c1,0 2,0 3,0c1,0 2,0 3,0c1,0 2,0 3,0c1,0 2,0 3,0c1,0 2.07611,0.38268 3,0c1.30655,-0.5412 2,-1 3,-1l1,0l1,0l1,0" id="svg_22" stroke-width="4" stroke="url(#svg_6)" fill="none"/>
  <path d="m506.5,42.5c0,1 -1.07611,0.61732 -2,1c-1.30655,0.54119 -2,2 -3,2c-1,0 -1.29291,0.29289 -2,1c-0.70709,0.70711 0,2 0,3c0,1 0,2 0,3c0,1 0,2 0,4c0,1 0,2 0,3c0,1 0.07611,1.61732 1,2c1.30655,0.54119 2,1 3,1c1,0 3,0 4,0c3,0 5,0 6,0c1,0 2,0 3,0c1,0 1,-1 1,-3c0,-1 0,-2 0,-4c0,-1 0,-2 0,-4c0,-1 0.38269,-2.07612 0,-3c-0.5412,-1.30656 -1.61731,-2.07612 -2,-3c-0.5412,-1.30656 -1.82373,-2.48626 -4,-3c-0.97324,-0.22975 -1,-1 -2,-1l-1,0l-1,0l-1,0" id="svg_23" stroke-width="4" stroke="url(#svg_6)" fill="none"/>
  <path d="m504.5,88.5c1,0 2.29291,0.70711 3,0c0.70709,-0.70711 1,-1 2,-1c1,0 1.85272,-1.1731 3,-2c1.81396,-1.30745 3.4588,-1.69344 4,-3c0.38269,-0.92388 0.29291,-1.29289 1,-2c0.70709,-0.70711 2,0 2,-1c0,-1 0.29291,-2.29289 1,-3c0.70709,-0.70711 1,-1 1,-2c0,-1 0,-2 0,-3c0,-1 0,-2 0,-3c0,-1 0.70709,-2.29289 0,-3c-0.70709,-0.70711 -2,-1 -3,-1c-1,0 -1.69342,-0.4588 -3,-1c-0.92389,-0.38268 -2,0 -4,0c-2,0 -3.07611,0.38268 -4,0c-1.30655,-0.54119 -2,-1 -3,-1c-1,0 -2,0 -3,0c-1,0 -2,0 -3,0c-1,0 -1.29291,0.29289 -2,1c-0.70709,0.70711 -1,1 -1,2c0,1 -1.4588,1.69344 -2,3c-0.38269,0.92388 0,2 0,3c0,1 0,2 0,3c0,3 0,4 0,5c0,1 -0.30655,2.4588 1,3c0.92389,0.38268 0.61731,1.07612 1,2c0.5412,1.30656 2.07611,1.61732 3,2c1.30655,0.5412 2,2 3,2c1,0 2,0 3,0l1,0" id="svg_24" stroke-width="4" stroke="url(#svg_6)" fill="none"/>
  <path d="m538.5,57.5c0,-1 -0.30658,-2.45881 1,-3c1.84778,-0.76537 3,-1 4,-1c1,0 2,0 3,0c1,0 2,0 3,0c1,0 3,0 4,0c1,0 2,0 3,0c1,0 1.29291,0.29289 2,1c0.70709,0.70711 2,1 3,1c1,0 2,0 3,0c1,0 2,0 3,0c1,0 2,0 3,0c1,0 2,0 3,0c1,0 2.07611,0.38268 3,0c1.30658,-0.54119 1.4588,-1.69344 2,-3c0.38269,-0.92388 0.29291,-1.29289 1,-2c0.70709,-0.70711 1,-1 2,-1l0,-1l0,-1" id="svg_25" stroke-width="4" stroke="url(#svg_6)" fill="none"/>
  <path d="m545.5,81.5c0,-1 1,-2 1,-4c0,-1 -0.70709,-2.29289 0,-3c0.70709,-0.70711 1,-1 1,-2c0,-1 -0.70709,-2.29289 0,-3c0.70709,-0.70711 0.61731,-1.07612 1,-2c0.5412,-1.30656 0.29291,-2.29289 1,-3c0.70709,-0.70711 1,-1 1,-2c0,-1 0,-2 0,-3l0,-1l0,-1l0,-1" id="svg_26" stroke-width="4" stroke="url(#svg_6)" fill="none"/>
  <path d="m562.5,79.5c1,0 1.4588,-0.69344 2,-2c0.38269,-0.92388 0.29291,-1.29289 1,-2c0.70709,-0.70711 -0.70709,-2.29289 0,-3c0.70709,-0.70711 1,-1 1,-2c0,-1 0,-2 0,-3c0,-1 1,-1 1,-2c0,-1 0.29291,-1.29289 1,-2c0.70709,-0.70711 1,-1 1,-2c0,-1 0,-2 0,-3l0,-1" id="svg_27" stroke-width="4" stroke="url(#svg_6)" fill="none"/>
  <path d="m613.5,36.5c0,-1 -0.61731,-0.92388 -1,0c-0.5412,1.30656 -1,2 -2,3c-1,1 -0.61731,2.07612 -1,3c-0.5412,1.30656 -1.29291,1.29289 -2,2c-0.70709,0.70711 0.66254,2.31001 -1,5c-0.74347,1.203 0.41418,2.58578 -1,4c-0.70709,0.70711 -0.61731,1.07612 -1,2c-0.5412,1.30656 -1.4588,1.69344 -2,3c-0.38269,0.92388 0,2 0,3c0,1 0,2 0,3c0,1 0,2 0,3c0,1 0,2 0,3c0,1 0,2 0,3c0,1 0,2 0,3c0,1 1.29291,0.29289 2,1c0.70709,0.70711 0.82373,1.48626 3,2c0.97327,0.22975 2,0 3,0c1,0 2,0 3,0c1,0 2,-1 4,-1c1,0 1.61731,-1.07612 2,-2c0.5412,-1.30656 2,-1 2,-2c0,-1 -0.38269,-2.07612 0,-3c0.5412,-1.30656 0.61731,-3.07612 1,-4c0.5412,-1.30656 1,-2 1,-3c0,-1 0,-2 0,-3c0,-1 0,-2 -1,-2c-1,0 -2,0 -3,0c-1,0 -2,0 -3,0c-1,0 -1.92389,0.38268 -1,0c1.30658,-0.54119 3.05353,-0.54049 5,-1c2.17627,-0.51374 3,-1 6,-1c2,0 3,0 4,0c1,0 2.07611,-0.38268 3,0c1.30658,0.54119 1,2 1,4c0,1 0,2 0,3c0,1 0,2 0,3c0,2 0.70709,3.29289 0,4c-0.70709,0.70711 -1.29291,1.29289 -2,2c-0.70709,0.70711 -1,2 -1,3c0,1 -1,1 -1,2c0,1 -0.29291,1.29289 -1,2c-0.70709,0.70711 -2,1 -1,1c1,0 2,0 4,0l1,0l1,0l1,0" id="svg_28" stroke-width="4" stroke="url(#svg_6)" fill="none"/>
  <path d="m495.5,100.5c1,0 2,0 3,0c2,0 3,0 5,0c2,0 4,0 8,0c3,0 6,0 9,0c4,0 5,-1 6,-1c1,0 2,0 3,0c1,0 2,0 3,0c1,0 2,0 3,0c1,0 2,0 3,0c1,0 2,0 3,0c1,0 2,0 3,0c1,0 2,0 3,0c2,0 3,0 5,0c1,0 2,0 4,0c1,0 2,0 3,0c1,0 4,0 5,0c1,0 2,0 3,0c2,0 3,0 5,0c2,0 4,0 6,0c3,0 5,0 10,0c2,0 5,0 6,0c1,0 3,0 5,0c1,0 2,0 4,0c1,0 2,0 4,0c3,0 4,0 5,0c1,0 2,0 4,0c4,0 5,0 6,0c1,0 2,0 3,0c1,0 2,0 3,0c1,0 2,0 3,0l1,0" id="svg_29" stroke-width="4" stroke="url(#svg_6)" fill="none"/>
  <path d="m557.5,122.5c0,-1 -0.07611,-1.61732 -1,-2c-1.30658,-0.5412 -2,-1 -4,-1c-1,0 -3,0 -5,0c-1,0 -3,0 -6,0c-2,0 -3.02673,0.77025 -4,1c-2.17627,0.51374 -3.9176,1.38687 -5,4c-0.76538,1.84776 -0.77026,3.02675 -1,4c-0.51373,2.17625 -2,4 -2,5c0,2 0,3 0,4c0,1 0,2 0,3c0,1 0,2 0,3c0,1 1.07611,1.61731 2,2c1.30658,0.5412 2.69342,1.4588 4,2c0.92389,0.38269 1.85272,0.1731 3,1c1.81396,1.30745 3,1 4,1c2,0 3,0 4,0c2,0 2.69342,0.4588 4,1c0.92389,0.38269 2,0 3,0c1,0 2.29291,0.70711 3,0c0.70709,-0.70711 1,-1 1,-2l1,0l0,-1l1,-1" id="svg_30" stroke-width="4" stroke="url(#svg_6)" fill="none"/>
  <path d="m575.5,111.5c0,1 -1,2 -1,5c0,1 0.38269,2.07612 0,3c-0.5412,1.30656 -1,2 -1,3c0,1 0,2 0,3c0,1 0,2 0,3c0,1 0,2 1,2c1,0 2,0 3,0c1,0 2.07611,0.38269 3,0c1.30658,-0.5412 1.29291,-1.29289 2,-2c0.70709,-0.70711 1,-1 2,-1l1,-1" id="svg_31" stroke-width="4" stroke="url(#svg_6)" fill="none"/>
  <path d="m667.5,70.5c0,1 0,2 0,4c0,2 0,4 0,5c0,1 0,2 0,5c0,1 0,3 0,4c0,2 0.76538,3.15224 0,5c-0.5412,1.30656 -1.48627,3.82375 -2,6c-0.22974,0.97325 0,3 0,6c0,1 -1,3 -1,4c0,1 0,2 0,4c0,2 -1,3 -1,4c0,1 -0.4588,1.69344 -1,3c-0.38269,0.92388 0,2 0,3c0,1 0,2 0,3l0,1l0,1l-1,0" id="svg_32" stroke-width="4" stroke="url(#svg_6)" fill="none"/>
  <path d="m644.5,65.5c2,0 3,0 4,0c2,0 3,0 4,0c1,0 2,0 4,0c1,0 2,0 3,0c1,0 1.82373,0.48626 4,1c1.94647,0.4595 4,0 5,0c1,0 2,0 3,0c1,0 2,0 3,0c1,0 2,0 3,0c1,0 2,0 3,0c1,0 1.29291,1.29289 2,2c0.70709,0.70711 2,0 3,0l1,0" id="svg_33" stroke-width="4" stroke="url(#svg_6)" fill="none"/>
  <path d="m670.5,140.5c1,-1 1.41888,-1.41885 3,-3c1.58112,-1.58115 3.8244,-2.09789 5,-4c0.52576,-0.85065 0.77026,-2.02675 1,-3c0.51373,-2.17625 2.4588,-2.69344 3,-4c0.38269,-0.92388 -0.22974,-2.02675 0,-3c0.51373,-2.17625 1,-3 1,-4c0,-2 0,-3 0,-4c0,-1 0,-2 0,-3c0,-1 1,-1 1,0c0,2 1,2 1,3c0,2 0.61731,4.07612 1,5c0.5412,1.30656 0.61731,2.07612 1,3c0.5412,1.30656 2,1 2,2c0,1 1,2 2,2c1,0 2.29291,0.70711 3,0c0.70709,-0.70711 -0.22974,-2.02675 0,-3c0.51373,-2.17625 2,-3 2,-4c0,-1 1,-1 1,-2c0,-1 0,-2 0,-3l0,-1l0,-1l0,-1" id="svg_34" stroke-width="4" stroke="url(#svg_6)" fill="none"/>
  <path d="m287.5,109.5c1,0 1.69345,1.4588 3,2c0.92389,0.38268 2,0 3,0c2,0 4,0 6,0c1,0 3,0 4,0c1,0 2,0 3,0c1,0 2,0 3,0c1,0 2,0 3,0l1,0" id="svg_36" stroke-width="4" stroke="url(#svg_6)" fill="none"/>
  <path d="m586.5,112.5c0,1 0,2 0,3c0,2 -1.4588,3.69344 -2,5c-0.38269,0.92388 0,2 0,3c0,2 -1,2 -1,3c0,1 -1,1 -1,2c0,1 0,2 0,3c0,1 0,2 0,3c0,1 0,2 0,3c0,1 0,2 0,3l-1,1l0,1l-1,0" id="svg_41" stroke-width="4" stroke="url(#svg_6)" fill="none"/>
  <path d="m684.5,68.5c0,0 0.29291,0.29289 1,1c0.70709,0.70711 0,2 0,3c0,1 -0.70709,2.29289 0,3c0.70709,0.70711 1,1 1,2l0,1l0,1l0,1" id="svg_42" stroke-width="4" stroke="url(#svg_6)" fill="none"/>
  <path d="m644.5,63.5c0,1 0.38269,2.07612 0,3c-0.5412,1.30656 -1.29291,1.29289 -2,2c-0.70709,0.70711 0,2 0,3c0,1 0,2 0,3l0,1l0,1" id="svg_43" stroke-width="4" stroke="url(#svg_6)" fill="none"/>
  <path d="m703.5,112.5c1,0 1,1 1,2c0,1 0,2 0,3c0,1 0,2 0,3c0,1 0,2 0,3c0,1 -0.38269,2.07612 0,3c0.5412,1.30656 0.61731,2.07613 1,3c0.5412,1.30656 2.29291,1.70711 3,1c0.70709,-0.70711 1,-2 1,-3c0,-1 0.4588,-1.69344 1,-3c0.38269,-0.92388 0.29291,-1.29289 1,-2c0.70709,-0.70711 0.61731,-2.07612 1,-3c0.5412,-1.30656 1,-2 2,-2c1,0 1.29291,-0.29289 2,-1c0.70709,-0.70711 1,-2 1,-3l0,-1" id="svg_44" stroke-width="4" stroke="url(#svg_6)" fill="none"/>
 </g>
 <defs>
  <radialGradient spreadMethod="pad" id="svg_6">
   <stop stop-opacity="0.99609" offset="0" stop-color="#7f00ff"/>
   <stop stop-opacity="0.99609" offset="1" stop-color="#00bfbf"/>
  </radialGradient>
 </defs>
</svg>