<svg width="600" height="450" xmlns="http://www.w3.org/2000/svg">
 <g id="Layer_1">
  <title>Layer 1</title>
  <path stroke-width="4" d="m114.5,119c0,-1 -0.82443,-1.09789 -2,-3c-1.05146,-1.7013 -2.33199,-6.22936 -4,-10c-1.45864,-3.29733 -1.69255,-5.186 -3,-7c-0.8269,-1.14727 -2,-1 -2,-2c0,-1 -0.29289,-1.29289 -1,-2c-0.70711,-0.70711 -1.48626,-1.82375 -2,-4c-0.22975,-0.97325 -0.61732,-1.07612 -1,-2c-0.5412,-1.30656 -2.37641,-2.08031 -4,-6c-0.38268,-0.92388 -0.04869,-3.28912 -2,-8c-1.37978,-3.33109 -3.5405,-5.0535 -4,-7c-1.02749,-4.3525 -3.48626,-6.82375 -4,-9c-0.22975,-0.97325 -1,-2 -1,-3c0,-1 -1.5412,-1.69344 -1,-3c0.38268,-0.92388 1.87856,0.49346 5,1c1.97417,0.32037 4.01291,0.83982 5,1c3.12144,0.50654 6,2 8,2c2,0 6.87856,2.49346 10,3c1.97417,0.32037 5,0 7,0c1,0 2.69344,0.45881 4,1c1.84776,0.76537 5,1 7,1c3,0 6,0 9,0c2,0 4,0 6,0c1,0 3.29289,-0.70711 4,0c0.70711,0.70711 -1.07613,2.61732 -2,3c-1.30656,0.5412 -3.1731,3.85273 -4,5c-2.6149,3.62798 -4,6 -6,10c-1,2 -2.23463,4.15224 -3,6c-1.0824,2.61313 -4.34619,3.70546 -6,6c-1.30745,1.814 -1,3 -2,4c-1,1 -1.67963,3.02583 -2,5c-0.50654,3.12144 -2.4588,4.69344 -3,6c-1.14805,2.77164 -2.48626,3.82375 -3,6c-0.22975,0.97325 -0.4588,1.69344 -1,3c-0.38268,0.92388 0,2 0,3l-1,0l-1,1l0,1" id="svg_3" stroke="#bf0000" fill="none"/>
  <path stroke-width="4" d="m167.83333,58.66667c0,0.66666 0.24437,1.34832 0,3.33333c-0.33585,2.72814 -0.66666,4.66666 -0.66666,6.66666c0,3.33334 0,6.66667 0,9.33334c0,2.66666 0,6 0,8.66666c0,1.33334 0,4 0,7.33334c0,0.66666 0,2 0,4c0,1.33334 -0.66667,3.33334 -0.66667,5.33334c0,1.33333 0,2 0,2.66666c0,1.33334 0,2 0,2.66666c0,0.66667 0,1.33334 0,2c0,0.66667 0,2 0,2.66667c0,0.66666 0,1.33333 0,2c0,0.66666 0,1.33333 0,2c0,0.66666 0,1.33333 0,2l0,0.66666l0,-0.66666" id="svg_6" stroke="#bf0000" fill="none"/>
  <path stroke-width="4" d="m232.5,80.66666c0.66667,0 1.33333,0.66667 3.33333,0.66667c1.33334,0 2.66667,0 3.33334,0c2,0 4,0.66666 4.66666,0.66666c1.33334,0 2,0 2.66667,0c1.33333,0 2.66667,0 4.66667,0c0.66666,0 1.33333,0 2.66666,0c0.66667,0 2,0 3.33333,0c0.66669,0 1.33334,0 2,0l0.66669,0l0.66666,0" id="svg_7" stroke="#bf0000" fill="none"/>
  <path stroke-width="4" d="m233.16667,101.33334c0.66666,0 1.33333,0 2,0c1.33333,0 2.66666,0 4,0c1.33333,0 3.33333,0 4.66666,0c1.33334,0 3.33334,0 4,0c1.33334,0 2.66667,0 3.33334,0c0.66666,0 1.33333,0 2,0c0.66666,0 1.33333,0 2.66666,0c0.66667,0 1.33333,0 2.00002,0c0.66666,0 1.33331,0 2,0l0.66666,0l0.66666,0l0.66669,0" id="svg_8" stroke="#bf0000" fill="none"/>
  <path stroke-width="4" d="m316.49999,273.99999c-0.66666,0 -1.33331,0 -2,0c-1.33331,0 -3.43948,-0.25957 -5.33331,0.66667c-2.15927,1.05607 -2.66669,2 -3.33334,2.66666c-1.33334,1.33334 -2.66666,2.66666 -4.66666,4c-2,1.33334 -2.66669,2 -3.33334,2.66666c-0.66666,0.66667 -1.12839,0.79068 -2,2c-1.65381,2.29454 -2.4617,3.45734 -3.33334,4.66667c-1.10254,1.52968 -1.69421,3.1351 -2.66666,5.33333c-1.112,2.51376 -1.33334,4 -1.33334,6c0,1.33334 0,4 0,5.33334c0,2 0,3.99999 0.66669,5.33334c0.66666,1.33332 1.33331,2 1.33331,2.66666c0,0.66666 0.19528,0.86193 0.66669,1.33334c0.47141,0.4714 1.9122,0.85906 4.66666,2c1.94769,0.80677 3.38123,0.46082 6.66666,1.33333c2.03757,0.54111 3.33334,0.66667 5.33334,0.66667c2.66666,0 4,0.66666 4.66666,0.66666c0.66669,0 1.33334,0 2.66669,0c0.66666,0 1.33331,0.00001 2,-0.66666c0.66666,-0.66666 2,-2.00001 3.33331,-3.33334c1.33334,-1.33334 2.94592,-2.27926 4,-3.33334c1.05411,-1.05409 2.63678,-3.03276 3.33334,-5.33333c0.38638,-1.27612 0.58511,-4.044 1.33334,-5.33334c1.20648,-2.07897 1.08893,-3.34832 1.33331,-5.33334c0.33585,-2.72814 0.66669,-4.66666 0.66669,-7.33333c0,-1.33334 0,-2.66667 0,-4c0,-1.33334 0.30634,-2.03567 0,-3.33334c-0.3425,-1.45084 -1.12836,-2.12402 -2,-3.33334c-0.55127,-0.76485 -1.14014,-1.36193 -1.33334,-2c-0.69656,-2.30057 -1.52859,-2.19527 -2,-2.66666c-0.47141,-0.47141 -0.46228,-0.97253 -1.33334,-1.33334c-0.61591,-0.25511 -0.71741,-0.41155 -1.33331,-0.66666c-0.87106,-0.3608 -0.66669,-1.33333 -1.33334,-1.33333c-0.66666,0 -1.52859,0.4714 -2,0c-0.47141,-0.47141 -0.66666,-0.66667 -1.33334,-0.66667c-1.33331,0 -2,0 -2.66666,0c-0.66666,0 -1.33334,0 -2,0c-0.66666,0 -0.66666,0.66667 -0.66666,1.33333l0,0.66667" id="svg_9" stroke="#bf0000" fill="none"/>
  <path stroke-width="4" d="m168.5,58.66667c0.66667,0 2,0.66666 4.66667,1.33333c2.66666,0.66667 5.33333,0.66667 7.33333,0.66667c1.33333,0 2.58571,0.32897 4.66667,0.66666c0.65805,0.10678 2.66666,0 3.33333,0c0.66667,0 1.79562,0.30587 2.66667,0.66667c0.61591,0.25512 1.33333,0 2,0c0.66666,0 1.33333,0 2,0l0.66666,0l0.66667,0l0.66667,0" id="svg_10" stroke="#bf0000" fill="none"/>
  <path stroke-width="4" d="m167.83333,85.33334c0.66667,0 1.33334,0 2,0c0.66667,0 1.33334,0 2.66667,0c0.66667,0 2,0 2.66667,0c0.66666,0 2,0 2.66666,0c0.66667,0 1.33334,0 2,0c0.66667,0 1.33334,0 2,0c0.66667,0 1.33334,0 2,0c0.66667,0 1.33334,0 2,0c0.66667,0 1.33334,0 2,0l0,0.66666l0.66667,0" id="svg_12" stroke="#bf0000" fill="none"/>
  <path stroke-width="4" d="m165.83333,118.66666c0.66667,0 2,0 2.66667,0c2.66667,0 4,0 4.66667,0c1.33333,0 2,0 2.66666,0c0.66667,0 1.33334,0 2,0c0.66667,0 2,0 3.33334,0c0.66666,0 1.33333,0 2,0c0.66666,0 1.79562,-0.30587 2.66666,-0.66666c0.61592,-0.25513 1.38409,0.25512 2,0c0.87105,-0.36079 1.33334,-0.66666 2,-0.66666c0.66667,0 1.33334,0 2,0c0.66667,0 1.33334,0 2,0l0.66667,0l0.66667,0l0.66666,0" id="svg_13" stroke="#bf0000" fill="none"/>
  <path stroke-width="4" d="m114.5,224.66667c0,-0.66667 -0.5135,-0.68451 -0.66666,-1.33334c-0.3425,-1.45084 -1.02699,-2.70233 -1.33334,-4c-0.34249,-1.45082 -0.66667,-2 -2,-4.66666c-0.66667,-1.33334 -1.94507,-2.92459 -2.66666,-4.66667c-0.51025,-1.23184 -0.66667,-1.33333 -0.66667,-2c0,-0.66667 -0.76286,-1.9561 -1.33333,-3.33333c-0.80677,-1.94771 -1.97012,-1.69943 -2.66667,-4c-0.38638,-1.27614 -0.89745,-1.80363 -2,-3.33334c-0.87163,-1.20932 -0.92339,-2.91467 -2.66666,-5.33333c-1.10254,-1.52969 -1.63921,-2.4623 -2,-3.33333c-0.25513,-0.61592 -1.33334,-2 -1.33334,-2.66667c0,-0.66667 -0.78206,-1.23515 -1.33333,-2c-0.87164,-1.20932 -0.99084,-1.88251 -1.33334,-3.33333c-0.30634,-1.29767 -0.97253,-2.4623 -1.33334,-3.33334c-0.51025,-1.23184 -0.66666,-2 -0.66666,-2.66666c0,-0.66667 0.27614,-1.72386 -0.66666,-2.66667c-0.47141,-0.47141 -1.80473,-0.86194 -1.33334,-1.33333c0.47141,-0.47141 1.33334,0 2,0c0.66666,0 1.91904,0.32896 4,0.66666c1.31612,0.21358 1.8825,0.32417 3.33334,0.66667c0.64883,0.15317 2.60519,0.99748 5.33333,1.33333c1.32335,0.1629 3.33334,0 4.66667,0c1.33333,0 2.54916,0.32417 4,0.66667c3.24416,0.76584 5.33333,0.66667 7.33333,0.66667c2,0 4,0 5.33334,0c0.66666,0 2.19526,-0.47141 2.66666,0c0.4714,0.47139 1.33334,0.66666 2.00001,0.66666c0.66666,0 2,0 3.33333,0c0.66667,0 1.33333,0 2,0c1.33333,0 2,0 2.66667,0c0.66666,0 2,0 2.66666,0c0.66667,0 1.52861,-0.47139 2,0c0.94281,0.94281 -0.04796,1.96884 -1.33333,4c-2.07874,3.28482 -2.40709,5.43953 -3.33333,7.33334c-1.05608,2.15929 -2,3.33333 -2.66667,5.33333c-0.66667,2 -1.68996,2.87383 -2.66667,4c-1.38129,1.59264 -1.42953,2.62276 -2,4c-0.80676,1.94771 -1.12836,2.79068 -1.99999,4c-0.55128,0.76485 -0.15642,1.43483 -0.66667,2.66667c-0.36079,0.87103 -1.2784,1.59125 -2,3.33333c-0.51025,1.23183 -1.18016,2.68451 -1.33333,3.33333c-0.3425,1.45085 -0.86193,1.52859 -1.33334,2c-0.47141,0.47141 -0.99084,1.21584 -1.33334,2.66667c-0.15317,0.64883 -0.66666,1.33333 -1.33333,2c-0.66667,0.66667 -0.86193,0.86192 -1.33334,1.33333c-0.47141,0.47141 -0.19526,0.86194 -0.66666,1.33334c-0.4714,0.47139 -0.66667,1.33333 -1.33334,2.66666l-0.66666,0l-0.66667,0.66667" id="svg_14" stroke="#bf0000" fill="none"/>
  <path stroke-width="4" d="m113.83334,330.66666c0,-0.66666 -0.27924,-0.94589 -1.33334,-2c-1.05408,-1.05408 -2.63678,-2.36609 -3.33334,-4.66666c-0.38638,-1.27612 -1.38932,-3.30679 -2,-4.66666c-1.47073,-3.27505 -2.52657,-5.38562 -3.33333,-7.33334c-0.57047,-1.37726 -1.44872,-2.56848 -2,-3.33334c-0.87162,-1.20932 -2,-2.66666 -2.66667,-4.66666c-0.66666,-2 -1.07819,-2.71741 -1.33333,-3.33334c-0.3608,-0.87103 -1.38227,-1.28775 -2,-2c-2.18398,-2.51819 -3.25178,-4.04401 -4,-5.33331c-1.20649,-2.07898 -1.79503,-3.45737 -2.66667,-4.66669c-0.55127,-0.76483 -1.6575,-1.21582 -2,-2.66666c-0.15317,-0.64883 -0.97253,-1.79562 -1.33333,-2.66666c-0.25513,-0.61594 -0.97254,-1.12897 -1.33334,-2c-0.25513,-0.61594 -0.86193,-1.52859 -1.33334,-2c-0.47142,-0.47141 -0.32417,-1.21585 -0.66666,-2.66669c-0.15317,-0.64883 -0.47142,-1.52859 0,-2c0.47141,-0.47141 2,0 2.66666,0c0.66667,0 2,0.66669 2.66667,0.66669c1.33333,0 2,0 3.33333,0c0.66667,0 2,0 3.33334,0c1.33334,0 2.66666,0 3.33334,0c2,0 4,0 6,0c1.33333,0 3.33333,0 5.33333,0c2,0 3.8825,0.99081 5.33334,1.33331c1.29767,0.30634 2.66666,0 3.33334,0c1.33333,0 2.66666,0 4,0c1.33333,0 2,0 2.66666,0c2,0 3.33334,0 4,0c1.33333,0 2,0 2.66667,0c0.66666,0 1.33333,0 2,0c0.66666,0 1.33333,0 2,0c0.66666,0 1.33333,-0.66666 2,-0.66666c1.33333,0 1.79562,-0.30588 2.66666,-0.66666c0.61592,-0.25513 1.33334,0 2,0c0.66667,0 1.38409,0.25513 2,0c0.87106,-0.36081 0.80678,0.71893 0,2.66666c-1.14095,2.75446 -2.22131,4.81955 -3.33333,7.33334c-0.97243,2.19821 -1.6106,3.17401 -2.66667,5.33331c-0.92624,1.8938 -1.1702,4.08801 -2.66666,6.66669c-1.20648,2.07898 -1.55833,2.87332 -2.66667,4.66666c-0.99133,1.604 -1.44873,1.90182 -2,2.66666c-0.87164,1.20932 -1.14273,3.47446 -2.66666,5.33334c-0.59773,0.7291 -0.06528,1.88297 -1.33334,2.66666c-0.5671,0.35049 -0.97253,0.46231 -1.33334,1.33334c-0.25512,0.61591 -0.30587,1.12897 -0.66666,2c-0.51025,1.23184 -0.11539,1.90182 -0.66666,2.66666c-0.87164,1.20932 -1.63921,2.46231 -2,3.33334c-0.25512,0.61591 -0.86194,2.19525 -1.33334,2.66666c-0.47141,0.47141 -0.66666,0.66669 -0.66666,1.33334c0,0.66666 -0.19527,0.86194 -0.66667,1.33334c-0.4714,0.47141 -0.19524,1.52859 -0.66666,2c-0.47141,0.47141 -1.33334,0.66666 -2,0.66666l-0.66666,0l0,0.66666l-0.66667,0" id="svg_15" stroke="#bf0000" fill="none"/>
  <path stroke-width="4" d="m115.83334,434.66666c0,0.66669 -1.14275,-0.80777 -2.66667,-2.66666c-1.19546,-1.45822 -2,-3.33334 -2.66666,-5.33334c-0.66666,-2 -1.79502,-3.45734 -2.66666,-4.66666c-0.55127,-0.76483 -1.44873,-1.90182 -2,-2.66666c-0.87164,-1.20932 -0.82308,-2.1015 -1.33334,-3.33334c-0.36079,-0.87103 -1.33334,-1.33334 -2.66666,-2.66666c-1.33334,-1.33334 -2.0962,-2.62277 -2.66667,-4c-0.80678,-1.94769 -1.42953,-3.28943 -2,-4.66669c-0.80676,-1.94772 -2.00001,-4 -2.66666,-5.33331c-1.33334,-2.66669 -2.32417,-4.54919 -2.66666,-6c-0.30634,-1.29767 -0.87383,-3.38684 -1.33334,-5.33334c-0.34249,-1.45084 -1.12839,-3.45734 -2,-4.66666c-0.55127,-0.76486 -0.99084,-1.88251 -1.33334,-3.33334c-0.15317,-0.64883 -0.30587,-1.79562 -0.66666,-2.66666c-0.25513,-0.61594 0,-1.33334 0,-2c0,-0.66669 -0.86193,-0.86194 -1.33334,-1.33334c-0.4714,-0.47141 0,-1.33334 0.66667,-1.33334c0.66666,0 1.33333,0 2,0c0.66666,0 1.33333,0 2,0c0.66666,0 2,0 3.33333,0c1.33334,0 3.33334,0 4,0c1.33334,0 2.66667,0 4,0c1.33334,0 2,0 2.66667,0c1.33333,0 2,0 2.66666,0c0.66666,0 2,0 3.33334,0c0.66666,0 2,0 3.33333,0c2.66667,0 3.33334,0 5.33334,0c1.33334,0 2.66666,0 3.33334,0c0.66666,0 1.33333,0 2,0c0.66666,0 1.33333,0 2,0c0.66666,0 2,0 2.66666,0c0.66667,0 1.33333,0 2,0c0.66667,0 1.33333,0 2,0c0.66667,0 1.33333,0 2,0c1.33333,0 2,0 2.66667,0c0.66666,0 1.52859,-0.47141 2,0c0.47142,0.47141 0.25511,1.38409 0,2c-0.36079,0.87106 -0.82309,2.1015 -1.33334,3.33334c-0.36079,0.87103 -1.02698,2.03568 -1.33333,3.33334c-0.3425,1.45081 -0.41156,2.71741 -0.66667,3.33331c-0.36079,0.87106 -0.46169,1.45737 -1.33333,2.66669c-0.55127,0.76483 -0.99564,2.58569 -1.33333,4.66666c-0.10678,0.65805 0.51025,2.1015 0,3.33334c-0.7216,1.74207 -1.33334,2.66666 -2,4.66666c-0.66667,2 -0.36034,3.36902 -0.66667,4.66666c-0.3425,1.45084 -0.66667,2.66669 -1.33333,3.33334c-0.66667,0.66666 -0.78207,1.23517 -1.33334,2c-0.87164,1.20932 -1.33334,2.66666 -1.33334,3.33334c0,0.66666 -0.97253,1.12894 -1.33334,2c-0.25511,0.61591 0.20437,2.30588 -0.66666,2.66666c-0.61592,0.25513 -0.51349,0.68448 -0.66666,1.33334c-0.3425,1.45081 -0.41155,2.05075 -0.66667,2.66666c-0.36079,0.87103 -0.19527,1.52859 -0.66666,2c-0.47141,0.47141 -0.86193,0.86194 -1.33334,1.33334c-0.4714,0.47141 -0.66666,1.33331 -0.66666,2.66666c0,0.66666 -0.97253,0.46228 -1.33334,1.33334c-0.25511,0.61591 -0.19526,0.86191 -0.66666,1.33331c-0.47142,0.47141 -0.66666,0.66669 -0.66666,1.33334c0,0.66666 -0.66667,1.33334 -0.66667,2c0,0.66666 -0.66666,0.66666 -1.33333,1.33334l0,0.66666" id="svg_16" stroke="#bf0000" fill="none"/>
  <path stroke-width="4" d="m153.83333,186.66667c0,0.66666 -0.25513,1.38408 0,2c0.7216,1.74208 1.74487,1.38408 2,2c0.36079,0.87103 1.90182,2.11539 2.66667,2.66666c1.20934,0.87163 2,2 2.66667,2.66667c0.66666,0.66667 1.07822,0.71742 1.33333,1.33333c0.36079,0.87105 1.45734,1.12836 2.66667,2c0.76485,0.55127 0.68449,1.18018 1.33333,1.33334c1.45082,0.34248 1.79504,1.45732 2.66667,2.66666c0.55127,0.76485 1.33333,1.33333 2,2c0.66667,0.66667 0.86192,0.86194 1.33333,1.33334c0.47139,0.47139 0.66667,0.66666 1.33333,2l0.66667,0l0,0.66666" id="svg_17" stroke="#bf0000" fill="none"/>
  <path stroke-width="4" d="m161.83333,393.33334c0,0.66666 0.66667,1.33331 1.33334,2c1.33331,1.33331 2.54176,3.47119 4,4.66666c1.85889,1.52393 3.45732,2.4617 4.66666,3.33334c0.76485,0.55127 1.12836,0.79068 2,2c0.55127,0.76483 2.1154,1.90182 2.66667,2.66666c0.87164,1.20932 1.38408,1.74487 2,2c0.87105,0.36078 1.94507,0.92459 2.66667,2.66666c0.25513,0.61594 0.66666,0.66669 1.33333,1.33334c1.33334,1.33334 1.38408,1.74487 2,2c0.87105,0.36078 1.33331,0.66666 2,1.33334c0.66667,0.66666 1.07822,0.71741 1.33333,1.33331c0.36079,0.87106 1.38409,1.07822 2,1.33334c0.87105,0.36078 0.66667,1.33334 1.33334,1.33334l0.66666,0.66666l0.66667,0.66666" id="svg_18" stroke="#bf0000" fill="none"/>
  <path stroke-width="4" d="m174.5,186.66667c0,0.66666 -0.47031,0.89746 -2,2c-1.20932,0.87163 -2.40923,0.198 -4,2c-0.98656,1.11755 -1.33333,1.33333 -2,2c-0.66667,0.66666 -1.61258,1.61256 -2.66667,2.66666c-1.05409,1.05409 -2.31616,2.09956 -2.66666,2.66667c-0.78372,1.26808 -2.30588,1.12895 -2.66667,2c-0.25513,0.61592 -0.39052,1.72386 -1.33333,2.66667c-0.47141,0.47141 -0.4623,0.97253 -1.33334,1.33333c-0.61591,0.25511 -0.86194,0.86194 -1.33333,1.33333c-0.47141,0.47141 -0.86194,0.86195 -1.33333,1.33334c-0.47139,0.47139 -0.4623,0.97253 -1.33334,1.33333c-0.61591,0.25511 -0.97253,0.4623 -1.33333,1.33333c-0.25513,0.61592 -0.4623,0.97255 -1.33333,1.33334c-0.61592,0.25513 -1.33334,0.66666 -1.33334,1.33333c0,0.66667 -0.66666,0.66667 -1.33333,0.66667l0,0.66666" id="svg_19" stroke="#bf0000" fill="none"/>
  <path stroke-width="4" d="m190.5,392.66666c-0.66667,0 -1.18016,0.68451 -1.33333,1.33334c-0.3425,1.45084 -0.66669,2 -1.33334,2.66666c-0.66667,0.66669 -1.63921,1.12897 -2,2c-0.25513,0.61594 -0.97253,1.12897 -1.33333,2c-0.25513,0.61594 -0.78207,0.56851 -1.33333,1.33334c-0.87164,1.20935 -1.38409,1.74487 -2,2c-0.87105,0.36078 -2,1.33334 -2.66667,2c-1.33334,1.33334 -2.27924,2.27924 -3.33333,3.33334c-1.05409,1.05411 -2.3661,1.30344 -4.66667,2c-1.27612,0.38638 -2.76817,0.82306 -4,1.33331c-1.74208,0.72159 -1.79562,1.63922 -2.66667,2c-0.61591,0.25513 -0.97253,0.46231 -1.33333,1.33334c-0.25513,0.61591 -0.19525,0.86194 -0.66667,1.33334c-0.47139,0.47141 -0.41154,0.71741 -0.66666,1.33331c-0.36079,0.87106 -0.66667,1.33334 -1.33334,1.33334l0,0.66666l-0.66666,0" id="svg_20" stroke="#bf0000" fill="none"/>
  <path stroke-width="4" d="m165.83333,274c0,0.66666 0,2 0,3.33334c0,2.66666 -0.24437,4.68164 0,6.66666c0.33585,2.72812 0.66667,4.66666 0.66667,7.33334c0,1.33331 0.66667,2 0.66667,2.66666c0,1.33334 0,2 0,2.66666c0,0.66669 0,1.33334 0,2.66669c0,2 0,3.33331 0,4c0,0.66666 0,2.66666 0,4c0,0.66666 0,2.66666 0,4c0,2 0,2.66666 0,3.33331c0,0.66669 0,2 0,4c0,2 0,2.66669 0,3.33334c0,0.66666 0,1.33334 0,2.66666c0,0.66669 0,2 0,2.66669l0,0.66666l0,0.66666" id="svg_21" stroke="#bf0000" fill="none"/>
  <path stroke-width="4" d="m209.83333,372.66666c0,0.66669 0,2 0,4c0,2 0,4.66669 0,6.66669c0,2 0,3.33331 0,5.33331c0,0.66669 0,3.33334 0,4.66669c0,2 0,3.33331 0,5.33331c0,2 0,2.66669 0,5.33334c0,1.33334 0,2.66666 0,4.66666c0,0.66669 0,2.66669 0,4c0,0.66669 0,2.66669 0,4c0,1.33334 0,2 0,2.66669c0,1.33331 0,2 0,2.66666c0,0.66666 0,1.33334 0,2c0,0.66666 0,1.33334 0,2c0,0.66666 0,1.33334 0,2c0,0.66666 0,1.33334 0,2l0,0.66666l0,0.66669" id="svg_22" stroke="#bf0000" fill="none"/>
  <path stroke-width="4" d="m167.16667,274c0.66666,0 1.33333,0 2.66666,0c0.66667,0 1.33334,0 2,0c0.66667,0 2,0 3.33334,0c1.33333,0 3.38408,-0.25513 4,0c0.87103,0.36078 1.38408,0.41153 2,0.66666c0.87105,0.36081 1.12895,1.63922 2,2c0.61591,0.25513 1.33333,0 2,0.66669c0.66666,0.66666 0.89166,0.87332 2,2.66666c0.99133,1.604 2.66666,3.33334 3.33333,5.33334c0.66667,2 1.0782,3.38406 1.33333,4c0.36079,0.87103 0.19525,1.52859 0.66667,2c0.47141,0.47141 0.66667,0.66666 0.66667,1.33331c0,0.66669 0.25513,2.05075 0,2.66669c-0.36079,0.87103 -1.33334,0.66666 -2,0.66666c-0.66667,0 -1.79561,0.97253 -2.66667,1.33334c-0.61592,0.25513 -2.05075,-0.25513 -2.66667,0c-0.87103,0.36078 -2,0.66666 -3.33333,0.66666c-0.66667,0 -1.33333,0 -2,0c-1.33333,0 -1.33333,0.66666 -2,0.66666c-0.66667,0 -1.33333,0 -2.66667,0c-0.66666,0 -1.33333,0 -2,0c-0.66666,0 -1.33333,0 -2,0c-0.66666,0 -1.52858,0.19528 -2,0.66669c-0.47139,0.47141 -1.33333,0.66666 0,0.66666c0.66667,0 2,0 3.33334,0c0.66666,0 2.03568,0.36032 3.33333,0.66666c1.45084,0.3425 2.66667,1.33334 5.33333,1.33334c1.33334,0 3.38409,-0.25513 4,0c0.87105,0.36078 1.35118,0.51349 2,0.66666c1.45085,0.3425 2.4623,0.97256 3.33334,1.33334c0.61591,0.25513 1.0782,0.71741 1.33333,1.33334c0.36079,0.87103 0.86194,0.86191 1.33333,1.33331c0.47141,0.47141 0.86194,0.19528 1.33334,0.66669c0.47139,0.47141 0.41153,1.38406 0.66666,2c0.36079,0.87103 1.33334,0.66666 1.33334,1.33331c0,0.66669 0,1.33334 0,2.66669c0,0.66666 0,1.33331 0,2c0,0.66666 -0.66667,0.66666 -0.66667,1.33331c0,0.66669 -0.19527,0.86194 -0.66667,1.33334c-0.47139,0.47141 -0.19527,0.86194 -0.66666,1.33334c-0.47139,0.47141 -0.86194,0.86191 -1.33334,1.33331c-0.47142,0.47141 -0.05075,1.07822 -0.66666,1.33334c-0.87105,0.36078 -0.66667,1.33334 -2.66667,1.33334c-0.66667,0 -0.54918,0.99081 -2,1.33331c-0.64883,0.15317 -1.33333,0 -2.66667,0c-0.66666,0 -1.79562,0.97256 -2.66666,1.33334c-0.61592,0.25513 -1.33334,0 -2.66667,0c-0.66667,0 -1.33333,0 -2,0c-0.66667,0 -1.21584,0.32416 -2.66667,0.66666c-0.64882,0.15317 -1.12894,0.30588 -2,0.66669c-0.61591,0.25513 -1.33333,0 -2,0c-0.66666,0 -1.33333,0 -2,0l-0.66666,0l-0.66667,0l-0.66667,0" id="svg_23" stroke="#bf0000" fill="none"/>
  <path stroke-width="4" d="m211.83333,374c-0.66666,0 0,0 0.66667,0c0.66667,0 1.33333,0 2,0c0.66667,0 1.35117,-0.15317 2,0c1.45082,0.3425 2.4623,1.63922 3.33333,2c0.61592,0.25513 2.71742,-0.25513 3.33334,0c0.87103,0.36078 1.33333,0.66666 2,0.66666c0.66666,0 0.46228,0.97256 1.33333,1.33334c0.61592,0.25513 1.52859,-0.47141 2,0c0.47139,0.47141 0.66666,0.66666 1.33333,1.33334c0.66666,0.66666 0.66667,1.33331 1.33334,1.33331c0.66666,0 0.66666,0.66669 1.33333,1.33334c0.66667,0.66666 0.66667,1.33334 0.66667,2c0,0.66666 0,2 0,2.66666c0,0.66669 0,1.33334 0,2c0,0.66669 0,1.33334 0,2c0,0.66669 -0.32417,1.21585 -0.66667,2.66669c-0.15317,0.64883 -0.86194,0.86191 -1.33333,1.33331c-0.47142,0.47141 -0.66667,2 -1.33334,2c-0.66666,0 -2.12399,0.46173 -3.33333,1.33334c-0.76485,0.55127 -1.33333,0.66666 -2.66667,0.66666c-0.66666,0 -1.38408,-0.25513 -2,0c-0.87105,0.36081 -1.38408,0.41156 -2,0.66669c-0.87103,0.36078 -1.33333,0.66666 -2,0.66666c-0.66666,0 -1.33333,0 -2,0c-0.66666,0 -1.33333,0 -2,0c-0.66666,0 -1.52859,0.19525 -2,0.66666c-0.47142,0.47141 -0.66666,0.66669 0,0.66669c0.66667,0 1.33334,0 2.66667,0c1.33333,0 3.33333,0 4.66667,0c1.33333,0 3.33333,0 4.66666,0c0.66667,0 2.66667,0 4,0c1.33334,0 2,0 2.66667,0c0.66667,0 1.33333,0 2,0c0.66667,0 1.33333,0 2,0c0.66667,0 0.86194,0.19525 1.33333,0.66666c0.47139,0.47141 0.66667,0.66666 0.66667,1.33334c0,1.33331 0.30588,1.79562 0.66667,2.66666c0.25513,0.61591 0.66666,1.33334 0.66666,2c0,0.66666 0,2 0,2.66666c0,0.66669 0,1.33334 0,2c0,0.66669 0,1.33334 0,2.66669c0,0.66666 0.27615,1.72385 -0.66666,2.66666c-0.47141,0.47141 -1.99998,0.66666 -2.66667,1.33334c-0.66667,0.66666 -1.12894,1.63919 -2,2c-0.61592,0.25513 -0.68451,0.51349 -1.33333,0.66666c-1.45084,0.3425 -2.05075,0.41153 -2.66667,0.66666c-0.87106,0.36081 -1.52859,0.19528 -2,0.66669c-0.47139,0.47141 -0.4623,0.97253 -1.33333,1.33331c-0.61592,0.25513 -0.86194,0.19528 -1.33334,0.66669c-0.47139,0.47141 -0.71741,0.41153 -1.33333,0.66666c-0.87105,0.36078 -0.86191,0.86194 -1.33333,1.33334c-0.47141,0.47141 -1.33334,0.66666 -2,0.66666c-0.66667,0 -0.66667,0.66666 -1.33334,0.66666c-0.66666,0 -1.33333,0 -2,0c-0.66666,0 -1.12894,0.30588 -2,0.66669c-0.61591,0.25513 -1.33333,0 -2,0c-0.66666,0 -1.33333,0 -2,0l-0.66666,0" id="svg_24" stroke="#bf0000" fill="none"/>
  <path stroke-width="4" d="m186.5,172c0,0.66667 0,1.33333 0,2c0,1.33333 0,2.66667 0,4c0,2 0,3.33333 0,6c0,1.33333 0,2.66667 0,4c0,0.66667 0,2 0,3.33333c0,2.66667 0,4 0,5.33334c0,1.33333 0,2.66666 0,5.33333c0,1.33333 0,3.33333 0,5.33333c0,2 0,3.33334 0,4c0,1.33334 0.32417,1.88249 0.66667,3.33334c0.15317,0.64882 0,1.33333 0,2c0,0.66666 0,1.33333 0,2c0,0.66666 0,1.33333 0,2c0,0.66666 0,1.33333 0,2l0,0.66666l0.66666,0.66667l0.66667,-2" id="svg_25" stroke="#bf0000" fill="none"/>
  <path stroke-width="4" d="m234.5,288c0.66667,0 1.33333,0 2,0c2,0 3.33333,0 5.33333,0c2,0 2.66667,0 3.33334,0c1.33333,0 2,0 2.66666,0c0.66667,0 1.33334,0 2,0c0.66667,0 1.33334,0 2,0c0.66667,0 1.21585,-0.32416 2.66667,-0.66666c0.64883,-0.15317 1.33333,0 2,0c0.66666,0 1.33334,0 2,0l0.66666,0l0.66669,0l0.66666,0" id="svg_26" stroke="#bf0000" fill="none"/>
  <path stroke-width="4" d="m231.16667,307.33334c0.66666,0 2,0 2.66666,0c0.66667,0 2,0 2.66667,0c0.66667,0 2,0 3.33333,0c1.33334,0 2,0 3.33334,0c0.66666,0 1.33333,0 2,0c2,0 3.33333,0 4.66666,0c1.33334,0 2,0 2.66667,0c0.66667,0 1.33333,0 2,0c0.66667,0 1.33333,0 2,0c0.66666,0 1.33334,0 2,0c0.66666,0 1.33334,0 2,0l0.66666,0l0.66669,0l0.66666,0" id="svg_27" stroke="#bf0000" fill="none"/>
  <path stroke-width="4" d="m255.16667,398c0.66666,0 1.99998,0 3.99998,0c2,0 4,0 6,0c0.66669,0 1.33334,0 2,0c0.66669,0 1.33334,0 2.66669,0c0.66666,0 1.33331,0 2,0c1.33331,0 2,0 2.66666,0c1.33334,0 2,0 2.66666,0c0.66669,0 1.33334,0 2,0l0.66669,0" id="svg_28" stroke="#bf0000" fill="none"/>
  <path stroke-width="4" d="m255.83333,410c0.66667,0 2.00002,0 3.33333,0c1.33334,0 2.66669,0 4,0c0.66669,0 1.33334,0 2.66669,0c0.66666,0 1.33331,0 2.66666,0c0.66666,0 1.33334,0 2,0c0.66666,0 2,0.66666 2.66666,0.66666c0.66669,0 2,0 2.66669,0c0.66666,0 1.33331,0 2,0c0.66666,0 1.33331,0 2,0l0.66666,0" id="svg_30" stroke="#bf0000" fill="none"/>
  <path stroke-width="4" d="m187.16667,172.5c0.66666,0 3.43481,-0.51024 4.66666,0c0.87105,0.36079 2,0.66667 2.66667,0.66667c1.33333,0 1.52861,0.19527 2,0.66666c0.47141,0.47141 1.38408,-0.25513 2,0c0.87105,0.36079 1.33333,0.66667 2,0.66667c0.66667,0 1.33333,0 3.33333,0c1.33334,0 2,0 2.66667,0c0.66667,0 1.33333,0 2,0c0.66667,0 2,0 2.66667,0c0.66666,0 2,0 2.66666,0c0.66667,0 1.33334,0 2,0l0.66667,0l0,0.66667l0.66667,0" id="svg_31" stroke="#bf0000" fill="none"/>
  <path stroke-width="4" d="m187.16667,194.66667c0,0.66666 1.33333,0.66666 2,0.66666c0.66666,0 1.33333,0.66667 2,0.66667c1.33333,0 2,0 2.66666,0c0.66667,0 1.33334,0 3.33334,0c2.66666,0 4.66666,0 6.66666,0c1.33334,0 2.66667,0 3.33334,0c0.66666,0 1.33333,0 2,0l0.66666,0l0,0.66667" id="svg_32" stroke="#bf0000" fill="none"/>
  <path stroke-width="4" d="m189.16667,221.33333c0.66666,0 2,0 4,0c3.33333,0 5.33333,0 8,0c1.33333,0 3.43481,0.51024 4.66666,0c0.87105,-0.36079 1.33334,-0.66666 2,-0.66666c0.66667,0 1.33334,0 2,0c0.66667,0 0.86194,-0.19527 1.33334,-0.66667c0.47139,-0.47139 1.33333,0 2,0c0.66666,0 1.33333,0 2,0c0.66666,0 1.33333,0 2,0l0.66666,0l0.66667,0l0.66667,-0.66667" id="svg_33" stroke="#bf0000" fill="none"/>
  <path stroke-width="4" d="m235.83333,184c0,0.66667 0.66667,0.66667 1.33334,0.66667c1.33333,0 2.66666,0 3.33333,0c2,0 3.33333,0 4,0c1.33333,0 2.66667,0 4,0c1.33333,0 2,0 3.33333,0c1.33334,0 3.33334,0 4.66667,0c0.66666,0 2,0 2.66666,0c0.66669,0 1.33334,0 2,0c0.66669,0 1.33334,0 2,0c0.66669,0 1.33334,0 2,0.66666l0,0.66667l0,0.66667" id="svg_34" stroke="#bf0000" fill="none"/>
  <path stroke-width="4" d="m234.5,198.66667c1.33333,0 2.60519,0.33081 5.33333,0.66666c1.32335,0.16292 3.33334,0 4.66667,0c1.33333,0 3.33333,0 4,0c1.33333,0 2,0 2.66667,0c1.33333,0 3.33333,0 4,0c1.33333,0 1.99998,0 3.33333,0c1.33334,0 2.66666,0 3.33334,0c0.66666,0 1.33331,0 2,0c0.66666,0 1.33331,0 2,0c0.66666,0 0.66666,-0.66666 1.33331,-0.66666l0.66669,0" id="svg_35" stroke="#bf0000" fill="none"/>
  <path d="m283.83334,102.33334c0,-0.66667 0,-2.66667 0,-5.33334c0,-4 0,-6.66666 0,-9.33334c0,-3.33333 0.05399,-5.40466 0.66666,-8c0.3425,-1.45083 0.66666,-3.33333 0.66666,-4.66666c0,-2 0.99084,-3.8825 1.33334,-5.33334c0.76584,-3.24416 0.9975,-6.60519 1.33334,-9.33333c0.08145,-0.66167 0.86191,-2.19527 1.33331,-2.66667c0.47141,-0.47142 0.66669,-0.66668 2,-2c0.66669,-0.66668 1.12897,-2.30587 2,-2.66667c0.61594,-0.25513 0.66669,-0.66667 1.33334,-0.66667c1.33334,0 2,0 2.66666,0c0.66669,0 1.43289,0.31619 2,0.66667c1.2681,0.78371 2,2.66666 2.66669,3.33333c0.66666,0.66666 1.12894,0.97254 2,1.33334c0.61591,0.25512 1.33331,1.33332 2,2c0.66666,0.66666 0.99081,1.21584 1.33331,2.66667c0.30634,1.29766 1.33334,2 1.33334,2.66666c0,1.33334 0.66666,2 0.66666,2.66666c0,0.66667 0,1.33334 0,2c0,1.33334 0,2 0,2.66667c0,1.33333 0,2 0,2.66666c0,0.66666 0,1.33334 -0.66666,2c-0.66666,0.66666 -0.98285,0.76623 -1.33334,1.33334c-0.78369,1.26806 -2.03568,0.36034 -3.33331,0.66666c-1.45084,0.34249 -2,0.66666 -2.66669,0.66666c-0.66666,0 -2,0 -3.33331,0c-0.66669,0 -1.33334,0 -2,0c-0.66669,0 -1.33334,0 -2,0c-0.66669,0 -1.38409,0.25511 -2,0c-0.87106,-0.36079 -1.33334,-0.66667 -2,-1.33333c-0.66669,-0.66668 -1.33334,-0.66668 -2,-1.33334c-0.66669,-0.66667 -1.33334,-0.66666 -1.33334,-1.33334c0,-0.66666 -0.66666,-0.66666 -1.33334,-1.33333l0,-0.66667l0,-0.66666l0,-0.66666" id="svg_36" stroke-width="4" stroke="#bf0000" fill="none"/>
  <path d="m341.16666,53.83334c0,0.66667 -0.8143,0.54625 -1.33331,1.33334c-1.97632,2.99718 -2.32898,4.5857 -2.66669,6.66667c-0.21359,1.31611 -0.78204,2.56849 -1.33331,3.33333c-0.87164,1.20934 -0.66669,2 -0.66669,4c0,1.33334 -0.36032,2.70234 -0.66666,4c-0.3425,1.45084 -0.51349,2.68451 -0.66666,3.33334c-0.3425,1.45084 -0.46173,2.124 -1.33334,3.33334c-0.55127,0.76484 -0.66666,1.99999 -1.33334,2.66666c-0.66666,0.66666 -0.78204,1.23516 -1.33331,2c-0.87164,1.20934 -0.78207,2.56849 -1.33334,3.33334c-0.87161,1.20933 -0.89166,2.20667 -2,4c-0.99133,1.604 -0.86194,2.86192 -1.33334,3.33333c-0.47141,0.4714 -0.41153,0.71741 -0.66666,1.33334c-0.36078,0.87103 -0.1564,2.1015 -0.66666,3.33334c-0.36081,0.87105 -1.33334,2 -1.33334,2.66666c0,0.66666 -0.66666,2 -0.66666,2.66666l0,0.66667l0,0.66666l0,0.66666" id="svg_37" stroke-width="4" stroke="#bf0000" fill="none"/>
  <path d="m367.5,65.50001c-0.66666,0 -1.33334,0 -3.33334,0c-2,0 -2.36609,1.30344 -4.66666,2c-1.27612,0.38638 -2.27924,0.9459 -3.33334,2c-1.05408,1.05409 -1.33331,2 -3.33331,4c-1.33334,1.33334 -2.32419,3.21583 -2.66669,4.66666c-0.15317,0.64883 0,2.66667 0,4c0,0.66667 -0.51025,1.43484 0,2.66667c0.36081,0.87105 1.33334,2.00001 2,2.66666c0.66669,0.66667 1.25238,0.99564 3.33334,1.33334c1.97418,0.32037 4.03568,0.36032 5.33334,0.66666c1.45081,0.34249 2.66666,0.66666 4,0.66666c1.33331,0 2,0 2.66666,0c1.33334,0 2.12402,0.20498 3.33334,-0.66666c0.76483,-0.55126 1.33331,-1.33334 2,-1.33334c0.66666,0 -0.01782,-0.15318 -0.66669,0c-1.45081,0.3425 -4.02859,0.47349 -4.66666,0.66667c-2.30057,0.69655 -4,1.33333 -5.33334,2c-1.33331,0.66666 -1.79562,1.6392 -2.66666,2c-0.61591,0.25512 -1.90182,0.78206 -2.66666,1.33333c-1.20932,0.87164 -2,1.33333 -3.33334,2.66667c-0.66666,0.66666 -0.39053,1.72385 -1.33334,2.66666c-0.47141,0.4714 -1.63919,1.12895 -2,2c-0.25513,0.61591 0,2 0,2.66666c0,1.33334 0,3.33334 0,4c0,0.66667 0.56851,0.78207 1.33334,1.33334c1.20932,0.87164 2.66666,1.33334 4.66666,1.33334c2.66669,0 5.33334,0.66666 7.33334,0.66666c2.66666,0 5.33334,0 6,0c0.66666,0 2,0 2.66666,0c0.66669,0 1.38409,0.25511 2,0c0.87106,-0.36079 1.63922,-1.12897 2,-2c0.25513,-0.61592 0.66669,-1.33334 0.66669,-2l0.66666,-0.66666l0.66666,-0.66667l0.66669,-0.66666" id="svg_38" stroke-width="4" stroke="#bf0000" fill="none"/>
  <path d="m393.5,104.16667c-0.66666,0 -1.33334,0 -2,0c-0.66666,0 -1.33334,1.33334 -2,2c-0.66666,0.66667 -0.97253,1.12895 -1.33334,2c-0.25513,0.61592 0,1.33334 0,2c0,0.66667 0,1.33334 0,2c0,0.66667 0.19528,0.86192 0.66669,1.33334c0.47141,0.47141 0.66666,1.33334 1.33331,1.33334c0.66669,0 1.33334,0 2,0c0.66669,0 1.33334,0 2,0c0.66669,0 1.43289,0.35048 2,0c1.2681,-0.78371 0.66669,-2 0.66669,-2.66667c0,-0.66666 0,-1.33333 0,-2c0,-1.33333 0,-2 0,-2.66666c0,-1.33334 0,-2 0,-2.66666c0,-0.66667 0,-1.33334 -0.66669,-1.33334c-0.66666,0 -1.33331,0 -2,0c-0.66666,0 -0.66666,-0.66666 -1.33331,-0.66666l-0.66669,0l-0.66666,0" id="svg_39" stroke-width="4" stroke="#bf0000" fill="none"/>
  <path d="m289.16666,190.66667c0,0 0.66669,0 1.33334,0c0.66666,0 2,0 3.33334,0c0.66666,0 1.33331,0 2.66666,0c0.66666,0 1.33334,0 2.66666,0c0.66669,0 2.05075,0.25513 2.66669,0c0.87103,-0.36079 1.36899,-0.36034 2.66666,-0.66667c1.45084,-0.3425 2,-0.66667 2.66666,-0.66667c0.66669,0 1.33334,-0.66666 2,-0.66666c0.66669,0 1.52859,0.47139 2,0c0.47141,-0.47141 0.66669,-0.66667 1.33334,-0.66667c1.33334,0 2,0 2.66666,0c0.66669,0 1.33334,0 2,0c0.66669,0 1.33334,0 2,0l0.66669,0" id="svg_40" stroke-width="4" stroke="#bf0000" fill="none"/>
  <path d="m350.5,176.66667c-0.66666,0 -1.33334,0 -2,0c-0.66666,0 -2,0 -2.66666,0c-0.66669,0 -1.63922,-0.20438 -2,0.66666c-0.25513,0.61592 -0.30588,1.12895 -0.66669,2c-0.51025,1.23184 0,2.66667 0,4.66667c0,1.33333 -0.14008,2.05229 0.66669,4c0.57047,1.37723 1.33331,2 2,2.66667c0.66666,0.66666 1.33331,1.33333 2,1.33333c0.66666,0 1.33331,0 2,0c1.33331,0 2,0 2.66666,0c0.66666,0 1.98169,-0.43167 2.66666,-3.33333c0.15317,-0.64883 -0.20496,-1.45734 0.66669,-2.66667c0.55127,-0.76485 0.66666,-2 0.66666,-4c0,-1.33333 -0.30634,-2.70233 0,-4c0.3425,-1.45082 0.9975,-2.60519 1.33334,-5.33333c0.1629,-1.32335 0,-2 0,-4c0,-0.66667 0,-2 0,-3.33334c0,-2 0,-3.33333 0,-4.66666c0,-1.33334 -0.52658,-2.71896 -1.33334,-4.66667c-0.57047,-1.37723 -1.33334,-2 -2,-2.66667c-1.33334,-1.33334 -2.19525,-1.52861 -2.66666,-2c-0.47141,-0.47139 -0.71744,-0.41153 -1.33334,-0.66666c-0.87103,-0.36079 -1.4856,0.09871 -3.33334,-0.66667c-0.87103,-0.36079 -1.33331,-0.66667 -2,-0.66667c-0.66666,0 -1.33331,-0.66666 -2,-0.66666l-0.66666,0l-0.66666,0l-0.66669,0" id="svg_41" stroke-width="4" stroke="#bf0000" fill="none"/>
  <path d="m368.5,148.66667c0,1.33333 0.99838,5.28386 1.33334,8.66666c0.32846,3.31712 1.66504,6.6172 2,10c0.26279,2.65369 0.66666,4.66667 0.66666,6.66667c0,2 0,4 0,4.66667c0,1.33333 -0.76535,2.81889 0,4.66666c0.36078,0.87105 0.66666,2 0.66666,2.66667c0,0.66667 0,1.33333 0,2.66667c0,0.66666 0,1.33333 0,2c0,0.66666 0.66669,1.33333 0.66669,2l0,0.66666l0,0.66667l0.66666,0.66667" id="svg_42" stroke-width="4" stroke="#bf0000" fill="none"/>
  <path d="m335.16666,204c0.66669,0 2,0 2.66669,0c2.66666,0 5.33331,0 8,0c2,0 4.66666,0 8,0c3.33331,0 6.60519,-0.99748 9.33331,-1.33333c1.98502,-0.24437 2.66669,0 4,0c0.66669,0 1.33334,0 2,0c2,0 2.66669,0 4,0c2,0 3.33334,0 5.33334,0c1.33334,0 2,0 2.66666,0c1.33334,0 2,0 3.33334,0l0.66666,0" id="svg_43" stroke-width="4" stroke="#bf0000" fill="none"/>
  <path d="m349.16666,234c-0.66666,0 -1.33331,0 -2,0c-0.66666,0 -1.52859,-0.47142 -2,0c-0.47141,0.47141 -0.66666,0.66667 -0.66666,1.33333c0,0.66667 0,1.33334 0,2c0,0.66667 0,1.33334 0,2.66667c0,1.33333 0,2.66667 0,3.33333c0,0.66667 -0.47141,1.52861 0,2c0.47141,0.47139 0.86194,0.19525 1.33334,0.66667c0.47141,0.47141 0.86191,1.52859 1.33331,2c0.47141,0.47142 1.33334,0 2,0c0.66669,0 1.33334,0 2.66669,0c1.33331,0 2,0 2.66666,0c0.66666,0 1.12897,-0.97253 2,-1.33333c0.61591,-0.25511 1.18018,-0.68451 1.33334,-1.33334c0.3425,-1.45082 0.99081,-1.88251 1.33331,-3.33333c0.4595,-1.9465 0.66669,-3.33333 0.66669,-4c0,-2 0,-3.33333 0,-4.66667c0,-2 0,-2.66666 0,-4.66666c0,-2 0,-3.33334 0,-4.66667c0,-0.66667 0,-1.33333 0,-3.33333c0,-0.66667 -1.33334,-0.66667 -1.33334,-2c0,-0.66667 -0.78207,-0.56848 -1.33334,-1.33334c-0.87164,-1.20932 -1.52859,-1.52858 -2,-2c-0.47141,-0.47139 -1.45734,-0.46169 -2.66666,-1.33333c-0.76483,-0.55127 -2,-0.66667 -2.66666,-0.66667c-0.66669,0 -1.36902,0.30634 -2.66669,0c-1.45081,-0.34248 -2,-0.66666 -2.66666,-0.66666l-0.66666,0l-1.33334,0l-0.66666,0" id="svg_44" stroke-width="4" stroke="#bf0000" fill="none"/>
  <path d="m379.83334,214.66667c-0.66669,0 -1.41058,-0.02411 -2,2c-0.76852,2.63911 -1.32111,4.47467 -2,8c-0.50427,2.61855 0,4 0,6c0,1.33333 -0.41156,3.38408 -0.66669,4c-0.36078,0.87103 -0.66666,2.66666 -0.66666,3.33333c0,1.33333 0,2 0,3.33333c0,0.66667 0,1.33334 0,2c0,0.66667 0,1.33334 0,2c0,0.66667 0,1.33334 0,2c0,0.66667 -0.47141,1.52861 0,2c0.94281,0.94281 2.66666,0 3.33334,0c0.66666,0 1.33331,0 2.66666,0c0.66666,0 2,0 2.66666,-0.66666l0.66669,0l0.66666,0" id="svg_45" stroke-width="4" stroke="#bf0000" fill="none"/>
  <path d="m366.5,228c0,-0.66667 0.66666,-0.66667 1.33334,-0.66667c2.66666,0 4,0 6,0c1.33331,0 2,0 2.66666,0c0.66666,0 2,0 2.66666,0c1.33334,0 2,0 2.66669,0c0.66666,0 1.33331,0 2,0l0.66666,0l0,0.66667l0.66666,0" id="svg_47" stroke-width="4" stroke="#bf0000" fill="none"/>
  <path d="m369.16666,149.33333c0.66669,0 1.33334,0 2,0c0.66669,0 2,0 2.66669,0c1.33331,0 2.66666,0 3.33331,0c2,0 2.54919,0.99084 4,1.33334c1.29767,0.30635 2.86194,-0.47139 3.33334,0c0.47141,0.47139 0.66666,0.66666 1.33334,0.66666c0.66666,0 0.66666,0.66667 1.33331,0.66667c0.66669,0 1.07822,0.05075 1.33334,0.66667c0.36078,0.87103 1.63922,1.12895 2,2c0.25513,0.61591 0.66666,1.33333 0.66666,2c0,0.66666 0,2 0,2.66666c0,1.33334 -1.33331,1.99998 -2,2.66667c-0.66666,0.66667 -0.71741,1.07822 -1.33331,1.33333c-1.7421,0.7216 -2.12399,2.4617 -3.33334,3.33334c-0.76483,0.55125 -2.05075,1.74489 -2.66666,2c-0.87106,0.36079 -1.35117,0.51349 -2,0.66666c-1.45084,0.3425 -2.19528,0.19525 -2.66669,0.66667c-0.47141,0.47141 -0.41153,0.71742 -0.66666,1.33333c-0.36078,0.87105 -1.33334,0.66667 -2,0.66667c-0.66666,0 -0.66666,0.66667 0,0.66667c0.66666,0 2.66666,0 4.66666,0c1.33334,0 3.33334,0 5.33334,0c0.66666,0 2,0 4,0c1.33334,0 2,0 2.66666,0c1.33334,0 2.71744,-0.25511 3.33334,0c0.87103,0.36079 1.18018,1.35117 1.33334,2c0.3425,1.45082 0.66666,2 0.66666,2.66666c0,0.66667 0,2.66667 0,3.33334c0,0.66666 0,1.33333 0,2c0,0.66666 0,1.33333 0,2c0,0.66666 0.25513,1.38408 0,2c-0.36078,0.87103 -0.66666,1.33333 -2,1.33333c-0.66666,0 -2,0.66666 -3.33334,1.33333c-1.33331,0.66666 -2.05228,0.52657 -4,1.33334c-1.37723,0.57047 -2,0.66666 -2.66666,0.66666c-0.66666,0 -1.12897,0.30588 -2,0.66667c-0.61591,0.25513 -0.66666,0.66667 -2,0.66667c-0.66666,0 -1.33334,0 -2,0c-0.66666,0 -1.33334,0 -2,0l-0.66666,0l-0.66669,0" id="svg_49" stroke-width="4" stroke="#bf0000" fill="none"/>
  <path d="m299.16666,425.33334c-0.66666,0 -0.66666,-0.66669 -0.66666,-1.33334c0,-2 1.02701,-2.70233 1.33334,-4c0.3425,-1.45084 2.23077,-3.13699 3.33331,-4.66666c0.87164,-1.20935 3.27841,-3.59125 4,-5.33334c0.51025,-1.23184 0.75378,-2.75247 1.33334,-4.66666c0.69656,-2.30057 2.4617,-3.45734 3.33334,-4.66669c1.10254,-1.52966 2.23077,-2.47031 3.33331,-4c0.87164,-1.20932 0.76288,-1.95609 1.33334,-3.33331c0.80676,-1.94769 0.99084,-3.21585 1.33334,-4.66669c0.15317,-0.64883 0.19525,-0.86191 0.66666,-1.33331c0.94281,-0.94281 1.88297,-2.73193 2.66666,-4c0.35049,-0.56711 0.30588,-1.12897 0.66669,-2c0.25513,-0.61594 0.66666,-0.66669 0.66666,0c0,0.66666 0,1.33331 0,2c0,0.66666 0,2 0,2.66666c0,1.33334 0,2.66666 0,3.33334c0,0.66666 0,1.33331 0,2c0,1.33331 0,2.66666 0,4c0,1.33331 0,2 0,2.66666c0,2 0,2.66666 0,3.33334c0,0.66666 0,1.33331 0,2.66666c0,1.33334 0,2.66666 0,3.33334c0,0.66666 0.19525,0.86191 0.66666,1.33331c0.47141,0.47141 0.19528,0.86194 0.66669,1.33334c0.47141,0.47141 1.33331,0 2,0c0.66666,0 1.33331,0 2,0c0.66666,0 1.33331,0 2,0c0.66666,0 0.76816,-0.1564 2,-0.66666c0.87103,-0.36081 1.33331,-0.66669 2,-1.33334c0.66666,-0.66666 1.52859,-0.86194 2,-1.33334c0.94278,-0.94278 1.63919,-1.12894 2,-2c0.51022,-1.23181 0.66666,-2.66666 0.66666,-4c0,-0.66666 0.66666,-2 0.66666,-2.66666c0,-0.66666 0.66669,-1.33334 0.66669,-2c0,-0.66666 0.17099,-1.86465 0.66666,-2.66666c1.10834,-1.79333 0.66666,-2.66669 0.66666,-4c0,-0.66669 0.30588,-1.12897 0.66669,-2c0.25513,-0.61594 0,-1.33334 0,-2c0,-0.66669 0,-1.33334 0,-3.33334c0,-0.66666 0,-1.33334 0.66666,-1.33334l0,0.66669l0.66666,0.66666" id="svg_50" stroke-width="4" stroke="#bf0000" fill="none"/>
  <path d="m349.16666,404c-0.66666,0 -1.33331,-0.00003 -2,0.66666c-0.66669,0.66669 -1.38406,0.41156 -2,0.66669c-0.87103,0.36078 -0.86191,0.86191 -1.33331,1.33331c-0.47141,0.47141 -1.33334,1.33334 -1.33334,2c0,0.66669 -0.66666,1.33334 -0.66666,2c0,0.66669 0,1.33334 0,2c0,0.66669 0,1.33334 0,2c0,1.33334 0,2 0.66666,2c0.66666,0 0.66666,0.66669 1.33334,0.66669c0.66666,0 1.33331,0 2,0c0.66666,0 1.33331,0 2.66666,0c0.66666,0 1.33334,0 2,0c0.66666,0 1.12897,-0.30588 2,-0.66669c0.61591,-0.25513 0.86194,-0.19525 1.33334,-0.66666c0.47141,-0.47141 0.66666,-1.33334 0.66666,-2c0,-0.66666 0,-1.33334 0,-3.33334c0,-0.66666 0,-1.33331 0,-2c0,-0.66666 0,-1.33331 0,-2c0,-0.66666 0.25513,-1.38406 0,-2c-0.36078,-0.87103 -1.33334,-0.66666 -2,-0.66666c-0.66666,0 -1.33334,-0.66666 -2,-0.66666c-0.66666,0 -1.33334,0 -2,0l-0.66666,0l-0.66669,0" id="svg_51" stroke-width="4" stroke="#bf0000" fill="none"/>
  <path d="m366.5,415.33334c0,0.66666 0.41153,1.38406 0.66666,2c0.36081,0.87103 0.71744,1.07819 1.33334,1.33331c0.87103,0.36081 1.33334,0.66669 2,0.66669c0.66666,0 0.66666,0.66666 1.33334,0.66666c0.66666,0 1.33331,0 2,0c0.66666,0 1.44873,0.09821 2,-0.66666c0.87164,-1.20932 1.43289,-2.31619 2,-2.66669c1.26807,-0.78369 1.42953,-1.95609 2,-3.33331c0.80679,-1.94769 0.76285,-3.28946 1.33331,-4.66669c0.80676,-1.94772 0.66669,-3.33331 0.66669,-4.66666c0,-1.33334 -0.15317,-2.01782 0,-2.66666c0.3425,-1.45084 0.66666,-2.66669 0.66666,-4c0,-1.33334 0,-2 0,-3.33334c0,-1.33334 0.66666,-2 0.66666,-2.66666c0,-0.66669 0,-1.33334 0,-2c0,-0.66669 0,-2 0,-3.33334c0,-1.33334 0,-2 0,-2.66666c0,-0.66669 0,-1.33334 0,-2c0,-0.66669 0,-2 0,-2.66669c0,-0.66666 0,-1.33331 0,-2c0,-0.66666 0,-1.33331 0,-2l0,-0.66666" id="svg_52" stroke-width="4" stroke="#bf0000" fill="none"/>
  <path d="m384.5,362.66666c-0.66666,0 -0.19525,0.86194 -0.66666,1.33334c-0.47141,0.47141 -1.33337,1.33334 -0.66669,1.33334c0.66669,0 0,-1.33334 0,-2l0,-0.66669" id="svg_53" stroke-width="4" stroke="#bf0000" fill="none"/>
  <path d="m419.16666,382c0,0.66666 0,1.33334 0,2c0,0.66666 0,1.33334 0,2c0,2 0,3.33334 0,4.66666c0,1.33334 -0.25513,3.38409 0,4c0.36081,0.87106 0.97256,1.79562 1.33334,2.66669c0.51022,1.23181 0,2 0,3.33331c0,0.66669 0,1.33334 0,2.66669c0,1.33331 0,2 0,2.66666c0,0.66666 0,1.33334 0,2l0,0.66666l0,0.66669l0,0.66666" id="svg_54" stroke-width="4" stroke="#bf0000" fill="none"/>
  <path d="m404.5,396c0.66666,-0.66666 1.33334,-0.66666 3.33334,-0.66666c1.33331,0 4,0 5.33331,0c1.33334,0 2.66669,-0.66669 3.33334,-0.66669c0.66666,0 2,0 2.66666,0c0.66669,0 2,0 2.66669,0c0.66666,0 1.33331,0 2,0c0.66666,0 1.33331,0 2,0c0.66666,0 0.66666,-0.66666 1.33331,-0.66666c0.66669,0 1.33334,0 2,0c0.66669,0 1.33334,0 2,0l0.66669,0" id="svg_55" stroke-width="4" stroke="#bf0000" fill="none"/>
  <path d="m470.5,355.33334c0,0.66666 0,1.33331 0,3.33331c0,2 0.66666,4 0.66666,6c0,1.33334 0.30588,2.46231 0.66669,3.33334c0.25513,0.61591 0,1.33334 0,2.66666c0,0.66669 0,2 0,2.66669c0,0.66666 0.19525,0.86191 0.66666,1.33331c0.47141,0.47141 0,1.33334 0,2l0,0.66669l0,0.66666" id="svg_56" stroke-width="4" stroke="#bf0000" fill="none"/>
  <path d="m454.5,390.66666c0.66666,0 2,0 3.33334,0c0.66666,0 2.66666,0 4.66666,0c3.33334,0 4,0 5.33334,0c0.66666,0 1.33331,0 2.66666,0c0.66666,0 1.33334,0 2,0c0.66666,0 1.33334,0 2,0c1.33334,0 2,0 2.66666,0c1.33334,0 2.19528,0.47141 2.66669,0c0.47141,-0.47141 0.66666,-0.66666 1.33331,-0.66666c0.66669,0 1.33334,0 2.66669,0c0.66666,0 1.33331,0 2,0l0.66666,0" id="svg_57" stroke-width="4" stroke="#bf0000" fill="none"/>
  <path d="m471.83334,411.33334c-0.66669,0 -2.66669,0 -4.66669,0c-2,0 -3.88251,0.32416 -5.33331,0.66666c-0.64886,0.15317 -1.88251,0.32416 -3.33334,0.66666c-0.64883,0.15317 -0.71741,0.41156 -1.33334,0.66669c-0.87103,0.36078 -1.63919,1.12894 -2,2c-0.51022,1.23181 0,3.33331 0,4.66666c0,0.66666 0,2 0,2.66666c0,0.66669 -0.15317,2.01782 0,2.66669c0.3425,1.45084 0.97256,1.79562 1.33334,2.66666c0.51025,1.23184 0.46228,1.63922 1.33334,2c0.61591,0.2551 1.33331,0.66666 2,0.66666c0.66666,0 1.52859,0.19528 2,0.66669c0.47141,0.47141 0.19525,0.86191 0.66666,1.33331c0.94281,0.94281 1.52859,0.19528 2,0.66669c0.47141,0.47141 1.33334,0 2,0c0.66666,0 1.33334,0 2,0c0.66666,0 0.86194,-0.19528 1.33334,-0.66669c0.47141,-0.47141 0.71741,-0.41156 1.33331,-0.66666c0.87106,-0.36078 0.71744,-1.07822 1.33334,-1.33334c0.87103,-0.36078 0.86194,-2.19525 1.33334,-2.66666c0.47141,-0.47141 0.66666,-0.66666 0.66666,-1.33334l0,-0.66666l0.66666,0" id="svg_59" stroke-width="4" stroke="#bf0000" fill="none"/>
  <path d="m479.83334,400.66666c0.66666,0 1.21582,-0.32416 2.66666,-0.66666c1.29767,-0.30634 1.33334,-0.66666 2.66666,-0.66666c0.66669,0 2,0 2.66669,0c0.66666,0 2,0.66666 2.66666,1.33331c0.66666,0.66669 1.33334,0.66669 1.33334,1.33334c0,0.66666 0.30588,1.12897 0.66666,2c0.25513,0.61591 0,2 0,3.33334c0,1.33331 0,2.66666 0,3.33331c0,1.33334 0,2 0,2.66669c0,0.66666 0.25513,1.38406 0,2c-0.36078,0.87103 -1.33334,2 -2,2.66666c-0.66666,0.66666 -2,1.33334 -2.66666,1.33334c-0.66669,0 -1.33334,0 -2,0c-0.66669,0 -1.33334,0 -2,0c-0.66669,0 -0.41156,-0.71744 -0.66669,-1.33334c-0.36078,-0.87103 -0.66666,-2 -0.66666,-3.33334c0,-1.33331 0,-2 0,-2.66666c0,-0.66666 -0.47141,-1.52859 0,-2c0.47141,-0.47141 2,0 4,0c2.66666,0 3.33334,0 4,0c0.66666,0 1.33334,0 2,0c0.66666,0 0.86194,0.19525 1.33334,0.66666c0.47141,0.47141 1.33331,0.66669 2,0.66669c0.66666,0 1.33331,0 2,0c0.66666,0 1.33331,0 2,0l0,-0.66669l0,-0.66666l0.66666,0" id="svg_60" stroke-width="4" stroke="#bf0000" fill="none"/>
  <path d="m542.5,368.66666c-0.66669,0 -1.33331,0 -3.33331,0c-2.66669,0 -5.03284,0.63678 -7.33337,1.33334c-0.638,0.19318 -1.52856,0.19525 -2,0.66666c-0.94281,0.94281 0,2.66669 0,3.33334c0,0.66666 0.30585,1.79562 0.66669,2.66666c0.25513,0.61594 0.66669,1.33334 1.33331,2c0.66669,0.66669 1.33337,2 2.66669,2.66669c1.33331,0.66666 2,0.66666 2.66669,0.66666c1.33331,0 2,0 3.33331,0c0.66669,0 2.66669,0 4,-1.33334c1.33331,-1.33331 1.74487,-2.05075 2,-2.66666c0.36084,-0.87103 1.33331,-2 1.33331,-4.66666c0,-2 0,-4.66669 0,-8c0,-2 0,-6 0,-8.66669c0,-1.33331 0,-3.33331 0,-4.66666c0,-0.66666 0.42712,-2.03442 0,-4.66666c-0.33765,-2.08096 -0.66663,-4.66669 -1.33331,-6c-0.66669,-1.33334 -1.33331,-2.66669 -2,-3.33334c-0.66669,-0.66666 -0.86194,-0.86197 -1.33331,-1.33334c-0.47137,-0.47141 -0.54919,-0.99081 -2,-1.33331c-0.64886,-0.15317 -1.33337,0 -2,0c-0.66669,0 -1.33337,-0.66669 -2,-0.66669c-0.66669,0 -1.33337,0 -2,0l-0.66669,0l-0.66669,0" id="svg_61" stroke-width="4" stroke="#bf0000" fill="none"/>
  <path d="m558.5,334c0,0.66666 -0.24438,2.68164 0,4.66666c0.33588,2.72818 2,4.66669 2.66669,7.33334c0.66663,2.66666 1.56342,6.78464 2.66663,10c0.96759,2.82007 2.32898,5.91904 2.66669,8c0.53394,3.29031 1.32111,4.47467 2,8c0.37823,1.96393 0,2.66666 0,4c0,1.33334 0,2.66666 0,4.66666c0,1.33334 0,2 0,2.66669l0,0.66666l0.66669,0" id="svg_62" stroke-width="4" stroke="#bf0000" fill="none"/>
  <path d="m531.16669,396.66666c0.66663,0 1.33331,0 5.33331,0c2.66669,0 6.66669,0 9.33331,0c2.66669,0 5.33337,0 6.66669,0c3.33331,0 6.66669,0 8.66669,0c2,0 4.66663,0 5.33331,0c2,0 4,0 6.66669,0c1.33331,0 2,0 2.66663,0c0.66669,0 2,0 2.66669,0c0.66669,0 1.33331,0 2,0l0.66669,0" id="svg_63" stroke-width="4" stroke="#bf0000" fill="none"/>
  <path d="m541.16669,427.33334c-0.66669,0 -2.05072,0.41153 -2.66669,0.66666c-1.74207,0.72159 -2.41156,2.71741 -2.66669,3.33334c-0.36078,0.871 -0.66663,1.33331 -0.66663,2c0,0.66666 0,2 0,2.66666c0,0.66666 -0.25513,1.38409 0,2c0.36078,0.871 0.46228,1.63922 1.33331,2c0.61597,0.25513 0.66669,0.66666 2,0.66666c0.66669,0 2,0 2.66669,0c1.33331,0 2.66663,0 3.33331,0c1.33331,0 2,0 2.66669,0c0.66663,0 1.79559,-0.97253 2.66663,-1.33331c0.61591,-0.25513 0.41156,-0.71744 0.66669,-1.33334c0.36084,-0.87103 0.66669,-2 0.66669,-2.66666c0,-0.66669 0,-1.33334 0,-2.66669c0,-2 0,-2.66666 0,-5.33331c0,-0.66669 0.51025,-2.1015 0,-3.33334c-0.36084,-0.87103 -1.21631,-0.73193 -2,-2c-0.35046,-0.56708 -0.19531,-1.52859 -0.66669,-2c-0.47144,-0.47141 -0.41156,-0.71741 -0.66669,-1.33334c-0.72156,-1.74207 -1.63916,-1.79562 -2,-2.66666c-0.25513,-0.61591 -0.46228,-1.63922 -1.33331,-2c-0.61597,-0.25513 -1.07819,-0.71741 -1.33331,-1.33334c-0.36084,-0.87103 -0.79065,-1.12839 -2,-2c-0.76483,-0.55127 -0.862,-0.86191 -1.33337,-1.33331c-0.47137,-0.47137 -1.12891,-0.30588 -2,-0.66669c-0.61591,-0.2551 -1.38409,-0.41153 -2,-0.66666c-0.87103,-0.36078 -1.33331,-0.66666 -2.66663,-0.66666c-0.66669,0 -1.33337,0 -2,-0.66669l-0.66669,0" id="svg_64" stroke-width="4" stroke="#bf0000" fill="none"/>
  <path d="m569.16669,405.33334c0,0.66666 0,1.33331 0,2c0,2.66666 0,5.33331 0,6.66666c0,2 0,3.33334 0,4c0,1.33334 0,2.66666 0,4c0,0.66666 0,2 0,3.33334c0,0.66666 0,2 0,4c0,1.33331 0,2.66666 0,3.33331c0,0.66669 0,1.33334 0,2c0,1.33334 0,2 0,3.33334c0,0.66666 -0.25513,1.38409 0,2c0.36078,0.871 0.46167,1.45734 1.33331,2.66666c0.55127,0.76486 1.38403,0.41156 2,0.66669c0.87103,0.36078 1.33331,0.66666 2,0.66666c0.66669,0 0.66669,0.66666 1.33331,0.66666c0.66669,0 1.33337,0 2,0c0.66669,0 1.33337,0 2,0l0.66669,0l0,-0.66666" id="svg_65" stroke-width="4" stroke="#bf0000" fill="none"/>
  <path d="m559.16669,422c0.66663,0 1.33331,0 2,0c0.66663,0 1.33331,0 2.66663,0c0.66669,0 1.33337,0 2,0c0.66669,0 1.33337,0 2,0c0.66669,0 1.33337,0 2.66669,0c0.66669,0 1.33331,0 2,0c0.66669,0 1.52856,0.47141 2,0c0.47137,-0.47141 0.66669,-0.66666 1.33331,-0.66666l0.66669,0" id="svg_66" stroke-width="4" stroke="#bf0000" fill="none"/>
  <path d="m560.5,336.66666c0.66669,0 1.33331,0 2,0c0.66669,0 2,0 4,0c1.33331,0 3.33331,0 4,0c0.66669,0 2.67529,-0.10678 3.33331,0c2.08099,0.33771 3.33337,0.66669 4.66669,0.66669c2,0 2.66669,0 2.66669,0.66666l0.66663,0l0.66669,0l0.66669,0" id="svg_67" stroke-width="4" stroke="#bf0000" fill="none"/>
  <path d="m565.83331,360.66666c1.33337,0 2,0 2.66669,0c2,0 4.66669,0 5.33331,0c1.33337,0 2,0 2.66669,0c0.66669,0 1.33331,0 2,0c0.66669,0 1.33331,0 2,0l0.66669,0" id="svg_68" stroke-width="4" stroke="#bf0000" fill="none"/>
  <path d="m568.5,384c0.66669,0 2.66669,0 5.33331,0c1.33337,0 3.33337,0 4.66669,0c0.66669,0 1.33331,0 2.66669,0c0.66663,0 1.33331,0 2.66663,0c1.33337,0 2.66669,0 4,0c0.66669,0 1.883,0.60141 2.66669,-0.66666c0.35052,-0.56711 0.66669,-0.66669 1.33331,-0.66669l0.66669,0l0.66669,0" id="svg_69" stroke-width="4" stroke="#bf0000" fill="none"/>
  <path d="m383.83334,360.66666c-0.66669,0 -0.66669,0.66669 -0.66669,1.33334c0,0.66666 0,1.33334 0,2c0,0.66666 0,1.33334 0,2c0,0.66666 0,1.33334 0.66669,1.33334c0.66666,0 1.33331,0 1.33331,-0.66669c0,-0.66666 0,-1.33331 0,-2c0,-0.66666 0,-2 0,-2.66666l0,-0.66666" id="svg_70" stroke-width="4" stroke="#bf0000" fill="none"/>
 </g>
</svg>