<svg id="eMbvEO2qCVo1" xmlns="http://www.w3.org/2000/svg" xmlns:xlink="http://www.w3.org/1999/xlink" viewBox="0 0 300 300" shape-rendering="geometricPrecision" text-rendering="geometricPrecision"><path d="M42.41684,115.99557c-30.85777,0-11.82582,27.25112,3.59922,17.9961c15.12738-9.07643-1.93999-52.32906-11.31183-61.7009" fill="none" stroke="#e10ec7" stroke-width="2"/><path d="M86.63582,76.40416c-39.72718-31.78176-10.93119,35.93231-10.28348,43.7048c1.67791,20.13494-15.72939,16.88374-5.65592,12.85435c5.31269-2.12508,28.79375,13.32069,28.79375-2.0567" transform="translate(.000001 0)" fill="none" stroke="#e10ec7" stroke-width="2"/><path d="M34.70423,158.15785c20.07962,0,39.70773-2.57087,59.6442-2.57087" fill="none" stroke="#e10ec7" stroke-width="2"/><path d="M48.58693,197.74926c-22.311,0-10.07654,21.02861-3.08504,14.91105c15.8164-13.83935,2.26385-34.7234-12.34018-39.59141" fill="none" stroke="#e10ec7" stroke-width="2"/><path d="M72.75311,195.17839c-9.20348,1.31478-16.86135,6.81907-13.36853,17.9961.89479,2.86334,12.7419,1.25327,13.8827-1.02835c1.25625-2.51249.51417-7.09976.51417-9.76931c0-.85696,0-3.42783,0-2.57087c0,6.64505-3.81346,30.97042,3.59922,33.9355c5.62377,2.24951,8.58795-3.41246,7.71261-8.22679-.72989-4.01441-10.40584-6.4478-9.25513-10.28348c1.10991-3.69969,7.42346-6.73263,9.25513-11.31183" transform="translate(.000001 0.000001)" fill="none" stroke="#e10ec7" stroke-width="2"/><path d="M108.74531,147.3602c4.21343,3.16007,11.78556,2.0567,16.96775,2.0567" transform="translate(0 0.000001)" fill="none" stroke="#e10ec7" stroke-width="2"/><path d="M109.77366,158.15785c6.27422.89632,12.69043.51418,19.02444.51418" fill="none" stroke="#e10ec7" stroke-width="2"/><path d="M175.07377,76.40416c3.31175,19.87049,3.59922,40.43637,3.59922,60.67255c0,1.88531,1.78856,5.05973,0,5.65592-.94809.31603-.98817-1.73934-1.54252-2.57087-3.54233-5.31349-12.55873-17.23605-20.56697-8.22679-12.56277,14.13311,10.16955,35.76283,20.56697,9.76931" transform="translate(0 0.000001)" fill="none" stroke="#e10ec7" stroke-width="2"/><path d="M147.30837,165.87047c17.14028,0,34.47305-2.0567,51.93159-2.0567" fill="none" stroke="#e10ec7" stroke-width="2"/><path d="M155.53516,176.66812c-1.03846,7.26925-1.53859,44.2229,3.08505,48.84654c2.11653,2.11653-2.36062-5.50186-3.59922-8.22679-2.83073-6.2276-9.02923-14.10861-16.45357-6.68426-15.10663,15.10663,8.56112,23.1429,20.56697,15.9394" transform="translate(.000001 0)" fill="none" stroke="#e10ec7" stroke-width="2"/><path d="M176.10212,178.72482c0,9.85575-5.74434,54.28959,10.28348,46.27567" fill="none" stroke="#e10ec7" stroke-width="2"/><path d="M165.30446,200.32013c5.9987,0,11.9974,0,17.9961,0" transform="translate(0 0.000001)" fill="none" stroke="#e10ec7" stroke-width="2"/><path d="M222.3778,120.62314c-26.84094,13.42047,1.07527,33.00033,9.76931,18.51027c13.85993-23.09988-9.45758-51.93159-33.42132-51.93159" fill="none" stroke="#e10ec7" stroke-width="2"/><path d="M256.82747,87.20182c0-19.61196-10.0443-3.5391-8.74096,10.79766.65803,7.23828,8.00616,44.34175,4.62757,48.84655-2.45074,3.26765-10.54317.87774-7.71261-3.08505c4.95468-6.93655,35.40984,19.36532,40.10558-4.11339" transform="translate(0 0.000001)" fill="none" stroke="#e10ec7" stroke-width="2"/><path d="M216.20771,165.35629c23.15948,0,46.3822,1.02835,69.41351,1.02835" fill="none" stroke="#e10ec7" stroke-width="2"/><path d="M227.00536,197.23509c-2.31084,2.31084-4.70354,2.63165-7.19844,4.62757-8.04131,6.43305-10.29605,21.29058,4.11339,16.96775c7.9337-2.38011,8.13354-22.7631,6.17009-29.30793-1.67104-5.57014-9.35655-8.59614-13.8827-11.31183" transform="translate(0 0.000001)" fill="none" stroke="#e10ec7" stroke-width="2"/><path d="M262.99755,197.23509c-8.04327,0-28.78294,3.24894-20.05279,16.96775c3.55099,5.58013,15.7948,4.51104,17.9961-1.54252c1.1921-3.27826.20785-6.91389.51417-10.28348.15824-1.74068.60443-6.83741,1.02835-5.14174c2.03646,8.14584-7.6683,55.84405,9.76931,44.21898c4.50556-3.00371,4.95621-14.34653,3.08505-19.02444-.78823-1.97057-6.68415-4.11281-6.68426-4.11339-.28459-1.42296,9.67286-7.7554,10.79766-9.25513" fill="none" stroke="#e10ec7" stroke-width="2"/><path d="M255.26992,188.56451c0-2.20902-2.58759-4.26239-4.10329-1.23099-1.67051,3.34102,4.59024,2.69183,3.69296,0-.22055-.66164-1.42785-.72223-2.05165-.41033-.71334.35667-1.48319,1.29504-1.23099,2.05165.26309.78928,3.2778-.24716,2.46198-.41033-.68388-.13678-1.36776-.27355-2.05165-.41033" transform="translate(.000001 0.000001)" fill="none" stroke="#e10ec7" stroke-width="2"/></svg>
