<svg width="731" height="160" xmlns="http://www.w3.org/2000/svg">
 <g id="Layer_1">
  <title>Layer 1</title>
  <polyline stroke-linecap="round" id="svg_3" points="813.5,-18.5 813.5,-18.5 " stroke="url(#svg_2)" fill="none"/>
  <path stroke-width="4" d="m395.5,82.5c1,0 2,0 4,0c1,0 5,0 7,0c3,0 6,0 10,0c3,0 6,0 7,0c3,0 5,0 8,0c2,0 4,0 6,0c2,0 4,0 5,0c2,0 4,0 5,0c1,0 2,0 3,0c1,0 2,0 3,0c2,0 3,0 4,0c2,0 3,0 4,0c1,0 4,0 6,0c3,0 4,0 5,0c1,0 2,0 3,0c2,0 3,0 4,0c2,0 4,0 5,0c1,0 2,0 3,0c1,0 2,0 3,0c2,0 3,0 4,0l1,0l1,0l1,0" id="svg_12" stroke="url(#svg_2)" fill="none"/>
  <path d="m122.5,107.5c0,-1 1,-2 4,-7c3,-5 4.19028,-5.88152 6,-9c1.12234,-1.934 1.71413,-3.21168 4,-6c0.89659,-1.09367 1.69255,-4.186 3,-6c0.8269,-1.14727 1.186,-2.69255 3,-4c1.14726,-0.8269 1.61731,-3.07612 2,-4c1.0824,-2.61313 2.69255,-4.186 4,-6c0.8269,-1.14727 1.61731,-2.07612 2,-3c0.5412,-1.30656 1,-2 2,-3c1,-1 2,-1 3,-2c1,-1 1,-2 2,-3c1,-1 1.1731,-1.85273 2,-3c1.30745,-1.81399 2.48625,-2.82375 3,-5c0.22975,-0.97325 1,-2 2,-3c1,-1 1.29289,-1.29289 2,-2c0.70711,-0.70711 1.07613,-1.38268 2,-1c2.61313,1.08239 3.34619,5.70546 5,8c1.30745,1.81399 3.14429,4.93414 4,7c1.21014,2.92156 1.79393,6.08744 4,11c0.91602,2.03983 1.4588,3.69344 2,5c0.76537,1.84776 0.5405,3.0535 1,5c0.51375,2.17625 -0.41422,4.58578 1,6c0.70711,0.70711 2.48625,0.82375 3,3c0.22975,0.97325 1,2 1,3c0,1 -0.70711,2.29289 0,3c0.70711,0.70711 0.61731,1.07612 1,2c0.5412,1.30656 0.77025,2.02675 1,3c0.51375,2.17625 1,3 1,4c0,1 0.23463,1.15224 1,3c0.5412,1.30656 1,2 1,3c0,2 1.4588,3.69344 2,5c0.38269,0.92388 1.70711,2.29289 1,3c-0.70711,0.70711 -2,0 -3,0c-2,0 -6,0 -10,0c-2,0 -6,0 -10,0c-2,0 -6,0 -11,0c-4,0 -7,0 -10,0c-3,0 -6,0 -9,0c-7,0 -10,0 -13,0c-2,0 -4,0 -5,0c-1,0 -2,0 -3,0c-1,0 -3,0 -4,0c-1,0 -2,0 -3,0c-1,0 -0.38268,-0.07612 0,-1c0.5412,-1.30656 2.4588,-1.69344 3,-3c0.38268,-0.92388 1.29289,-0.29289 2,-1c0.70711,-0.70711 1,-1 2,-3l0,-1" id="svg_18" stroke-width="4" stroke="url(#svg_17)" fill="none"/>
  <path d="m249.5,36.5c0,2 -1.48625,2.82375 -2,5c-0.68925,2.91975 -0.78986,7.07844 -2,10c-0.85571,2.06586 -2,4 -2,6c0,2 0,4 -1,7c-1,3 -2.14429,4.93414 -3,7c-1.21014,2.92156 -1.48625,3.82375 -2,6c-0.22975,0.97325 0.30745,2.186 -1,4c-0.8269,1.14727 -0.69255,3.186 -2,5c-0.8269,1.14727 -1.49345,1.87856 -2,5c-0.16019,0.98709 -0.1731,1.85273 -1,3c-1.30745,1.814 -1,3 -1,5c0,1 -1,2 -1,3c0,1 -0.29289,1.29289 -1,2c-0.70711,0.70711 0,3 0,4c0,1 0,2 0,3c0,1 0,2 0,4c0,1 0.29289,1.29289 1,2c0.70711,0.70711 0,2 1,2c1,0 1,1 2,1c1,0 1.69344,0.4588 3,1c0.92387,0.38268 2,0 3,0c1,0 2,0 3,0c1,0 2,0 3,0c1,0 1.69344,-0.4588 3,-1c0.92387,-0.38268 1,-1 2,-3l1,0l0,-1l0,-1" id="svg_19" stroke-width="4" stroke="url(#svg_17)" fill="none"/>
  <path d="m276.5,112.5c-1,0 -2.0535,-0.4595 -4,0c-2.17624,0.51374 -3,2 -5,4c-1,1 -2.1731,1.85273 -3,3c-1.30746,1.814 -1,3 -1,4c0,1 0,2 0,3c0,1 -0.30655,2.4588 1,3c0.92389,0.38269 1.07611,0.61731 2,1c1.30655,0.5412 2,1 3,1c1,0 2.07611,-0.38269 3,0c1.30655,0.5412 2,1 3,1c1,0 3.07611,0.38269 4,0c1.30655,-0.5412 2,-2 3,-3c1,-1 1.4588,-1.69344 2,-3c0.38269,-0.92388 0,-2 0,-3c0,-1 0,-2 0,-3c0,-1 0.38269,-2.07612 0,-3c-0.5412,-1.30656 -1,-2 -1,-3c0,-2 -0.29291,-2.29289 -1,-3c-0.70709,-0.70711 -2,0 -3,0c-1,0 -2,0 -3,0c-1,0 -2,0 -3,0l-1,0" id="svg_20" stroke-width="4" stroke="url(#svg_17)" fill="none"/>
  <path d="m317.5,77.5c1,0 2,0 4,0c2,0 5,0 7,0c2,0 3,0 6,0c1,0 3,0 6,0c1,0 3,0 4,0c1,0 2,-1 3,-1c1,0 2,0 3,0c1,0 1.29291,-0.29289 2,-1c0.70709,-0.70711 2,0 3,0c1,0 2,0 4,0l1,0l0,-1l1,0" id="svg_21" stroke-width="4" stroke="url(#svg_17)" fill="none"/>
  <path d="m319.5,92.5c1,0 2,0 5,0c4,0 7,0 11,0c2,0 4,0 5,0c2,0 4,0 5,0c2,0 2.29291,0.29289 3,1c1.41422,1.41422 4,0 5,0c1,0 2,0 3,0c1,0 2,0 3,0c1,0 2,0 3,0c1,0 2,0 3,0l1,0" id="svg_23" stroke-width="4" stroke="url(#svg_17)" fill="none"/>
  <path d="m408.5,60.5c1,0 2.07611,-0.38268 3,0c1.30655,0.54119 2.41885,2.41886 4,4c1.58115,1.58114 3,2 4,3c1,1 2,2 4,5c2,3 3.1731,4.85273 4,6c1.30746,1.814 2,3 3,5c1,2 1.2565,2.797 2,4c1.66251,2.68999 2.22421,4.90282 3,7c1.43048,3.867 1,6 2,8c1,2 2,3 3,5c1,2 1,4 1,6c0,1 0,2 0,3c0,1 0,2 0,3c0,1 0,2 0,3c0,1 -1.61731,3.07612 -2,4c-0.5412,1.30656 -1.29291,2.29289 -2,3c-0.70709,0.70711 -2.07611,0.61731 -3,1c-1.30655,0.5412 -1,2 -2,2c-1,0 -1.69345,0.4588 -3,1c-0.92389,0.38269 -2,0 -3,0c-1,0 -1.4588,-0.69344 -2,-2c-0.38269,-0.92387 -1,-5 -1,-11c0,-3 0,-6 0,-9c0,-2 -0.91901,-4.107 0,-8c0.51373,-2.17625 1.48627,-3.82375 2,-6c0.4595,-1.9465 1.5405,-5.0535 2,-7c0.51373,-2.17625 1.69254,-4.186 3,-6c0.8269,-1.14727 2.48627,-1.82375 3,-4c0.22977,-0.97325 2.4588,-2.69344 3,-4c0.76538,-1.84776 1,-3 2,-4c1,-1 2.29291,-1.29289 3,-2c0.70709,-0.70711 1.61731,-1.07612 2,-2c0.5412,-1.30656 1.29291,-1.29289 2,-2c0.70709,-0.70711 1.07611,-1.61732 2,-2c1.30655,-0.54119 2,-2 2,-3l1,0l1,0l0,-1" id="svg_24" stroke-width="4" stroke="url(#svg_17)" fill="none"/>
  <path d="m495.5,30.5c0,1 -0.23462,2.15224 -1,4c-1.0824,2.61312 -1.77023,3.02675 -2,4c-0.51373,2.17625 -2,4 -2,6c0,3 -0.23462,5.15224 -1,7c-1.0824,2.61312 -2.54135,4.70267 -4,8c-1.66803,3.77064 -1.49622,6.90778 -2,11c-0.24435,1.98502 -0.5405,5.0535 -1,7c-0.51373,2.17625 -1.56952,7.133 -3,11c-0.77579,2.09718 -1,5 -1,7c0,2 0.4595,3.0535 0,5c-0.51373,2.17625 -0.87781,5.00749 -1,6c-0.50378,4.09222 0.14804,6.22836 -1,9c-0.5412,1.30656 -1,3 -1,5c0,2 -0.48627,2.82375 -1,5c-0.4595,1.9465 0,3 0,4c0,1 -0.70709,2.29289 0,3c0.70709,0.70711 1.07611,0.61731 2,1c1.30655,0.5412 1,2 2,2c1,0 2,0 3,0c1,0 2,0 3,0c1,0 2,0 3,0c1,0 0.69345,-1.4588 2,-2c0.92389,-0.38269 1,-1 2,-1c1,0 2,-1 3,-2c1,-1 1,-2 2,-2l0,-1l0,-1l0,-1" id="svg_25" stroke-width="4" stroke="url(#svg_17)" fill="none"/>
  <polyline stroke-linecap="round" id="svg_26" points="616.5,222.5 617.5,222.5 " stroke-width="4" stroke="url(#svg_17)" fill="none"/>
 </g>
 <defs>
  <linearGradient spreadMethod="pad" y2="0" x2="1" y1="0" x1="0" id="svg_2">
   <stop stop-opacity="0.99609" offset="0" stop-color="#0000ff"/>
   <stop stop-opacity="0.99609" offset="1" stop-color="#ffff00"/>
  </linearGradient>
  <linearGradient spreadMethod="pad" y2="0" x2="1" y1="0" x1="0" id="svg_17">
   <stop stop-opacity="0.99609" offset="0" stop-color="#7f00ff"/>
   <stop stop-opacity="0.99609" offset="1" stop-color="#00bf00"/>
  </linearGradient>
 </defs>
</svg>