<svg id="eAV4U1d0LZm1" xmlns="http://www.w3.org/2000/svg" xmlns:xlink="http://www.w3.org/1999/xlink" viewBox="0 0 300 300" shape-rendering="geometricPrecision" text-rendering="geometricPrecision"><path d="M48.1709,277.32984c58.60235-23.44096,99.63213-75.97222,149.2373-112.04871c13.6748-9.94531,20.59956-26.12924,34.29077-35.25671.57567-.38378,6.72758-4.41467,6.27859-5.31265-1.3344-2.66881-26.0803,2.07951-26.0803,4.82969c0,.86696,1.55088.89394,2.41484.96594c8.34077.69506,14.72627-7.7275,22.21656-7.7275c5.49229,0,3.38078,21.77695,3.38078,25.59734" fill="none" stroke="#27dcd2" stroke-width="3"/><path d="M239.85972,121.65149c0-21.52779-.53835-68.7752-4.11339-88.43796-.80652-4.43588,2.39056-12.62732-2.0567-13.36853-1.5059-.25098-11.83582,10.27368-10.79766,11.31183.63286.63285,9.48843-11.25811,10.28348-11.82601c5.55809-3.97007,13.11539,17.36326,14.39688,20.56697" transform="translate(0 0.000001)" fill="none" stroke="#f48821" stroke-width="3"/><path d="M46.53023,273.84704c4.67509-4.6751,16.85429-42.99208,23.13784-53.98829c6.50761-11.38832,17.76741-20.1096,23.65201-31.8788c21.46404-42.92808,46.08558-69.42347,74.55525-106.43405c4.37303-5.68494,53.47411-55.21324,53.47411-55.53081c0-2.24226-21.65963,3.96344-23.65201,4.62757-2.48724.82908-5.15797.95299-7.71261,1.54252-.89933.20754-3.49384,1.02835-2.57087,1.02835c6.45479,0,28.49209-13.94214,33.93549-6.68426c3.55152,4.73536-.51417,24.38697-.51417,30.33628" transform="translate(.000001 0.000001)" fill="none" stroke="#760ef6" stroke-width="3"/><path d="M70.18224,84.11677c0,7.73808,4.0201,14.42868,6.17009,21.59532c6.01104,20.0368,7.68244-14.24602,8.74096-19.53862" fill="none" stroke="#760ef6" stroke-width="2"/><path d="M66.06885,76.40416c4.36648,1.74659,25.3993,4.07154,16.45357-3.08505" transform="translate(.000001 0)" fill="none" stroke="#760ef6" stroke-width="2"/><path d="M89.20669,109.82548c-.65426-3.27128,3.15126-7.71895,6.68426-4.62757c1.87793,1.64319,2.68341,6.9572,2.0567,9.25513-.27935,1.02429-4.23599,7.07584-6.17009,5.14174-1.83397-1.83397,5.13186-1.28642,7.71261-1.02835c1.83678.18368,3.7003-.90355,5.14174-2.0567" transform="translate(.000001 0)" fill="none" stroke="#760ef6" stroke-width="2"/><path d="M196.15491,226.02884c1.60176,12.81411,7.10887,25.23876,10.79766,37.53471.51417,1.71391-.24686,5.14174,1.54252,5.14174c1.71391,0-.17054-3.43633,0-5.14174c1.24365-12.43646,2.71405-26.42461,5.14174-38.56306" fill="none" stroke="#27dcd2" stroke-width="2"/><path d="M191.52735,217.28788c10.46776-1.74463,35.53071,1.57413,14.91105-10.79766" fill="none" stroke="#27dcd2" stroke-width="2"/><path d="M215.17936,275.90374c3.81397,0,7.56614.23496,11.31183-.51417" fill="none" stroke="#27dcd2" stroke-width="2"/><path d="M219.80693,273.84704c-.7208-3.60401.78556-22.73318-5.14174-12.85435" transform="translate(0 0.000001)" fill="none" stroke="#27dcd2" stroke-width="2"/><path d="M245.51563,92.85773c0-5.41935,4.12469-9.83146,5.14174-15.42522.64415-3.54285,1.09996-8.07584,2.57087-11.31183c3.30189-7.26416,11.68245,24.30974,8.74096,27.25123-2.69355,2.69355-13.87978,1.02835-17.48192,1.02835" transform="translate(.000001 0)" fill="none" stroke="#f48821" stroke-width="2"/><path d="M262.48338,65.09233c0,6.36206,3.28599,12.83861,5.14174,19.02444.29411.98038,2.10881,10.79766,3.08505,10.79766c1.74786,0,.68557-3.42783,1.02835-5.14174c1.63455-8.17277,5.54674-15.39354,7.19844-23.65201" fill="none" stroke="#f48821" stroke-width="2"/><path d="M258.88416,57.89389c7.00698-1.4014,27.13489,3.48287,18.51027-5.14174" transform="translate(.000001 0)" fill="none" stroke="#f48821" stroke-width="2"/></svg>
