<svg width="600" height="450" xmlns="http://www.w3.org/2000/svg">
 <g id="Layer_1">
  <title>Layer 1</title>
  <path d="m58.5,398c1,0 1.61732,-0.07611 2,-1c1.08239,-2.61313 4,-5 7,-9c3,-4 5.11214,-6.9183 8,-11c2.08247,-2.94336 5.20681,-4.81265 7,-7c2.28588,-2.78833 3.69255,-4.186 5,-6c2.48071,-3.4418 3,-5 4,-6c1,-1 2.41886,-4.41885 4,-6c1.58114,-1.58115 2.69255,-3.186 4,-5c0.8269,-1.14728 2,-2 3,-3c1,-1 2.4588,-2.69345 3,-4c0.38268,-0.92389 2,-2 3,-3c1,-1 2.69255,-2.186 4,-4c1.65381,-2.29453 4.4588,-2.69345 5,-4c0.38268,-0.92389 0.61732,-2.07611 1,-3c1.08239,-2.61313 1.09789,-3.82443 3,-5c0.85065,-0.52573 2,-1 3,-2c1,-1 1.69255,-4.186 3,-6c1.65381,-2.29453 1.69255,-3.186 3,-5c0.8269,-1.14728 1.23463,-2.15225 2,-4c0.5412,-1.30655 2.14935,-1.47427 3,-2c1.90211,-1.17557 0.61731,-3.07611 1,-4c0.5412,-1.30655 1.71022,-2.04291 2,-3c1.04483,-3.45084 1.69255,-4.186 3,-6c0.8269,-1.14728 2.29289,-1.29291 3,-2c0.70711,-0.70709 1,-2 2,-3c3,-3 4.4588,-5.69345 5,-7c0.38269,-0.92389 0.29289,-1.29291 1,-2c0.70711,-0.70709 2,-1 3,-2c1,-1 1.29289,-1.29291 2,-2c0.70711,-0.70709 1.07613,-1.61731 2,-2c1.30656,-0.5412 1.69255,-2.186 3,-4c0.8269,-1.14728 3.48625,-2.82376 4,-5c0.4595,-1.9465 1.4588,-2.69345 2,-4c0.38269,-0.92387 0.61731,-1.07613 1,-2c0.5412,-1.30656 1.1731,-1.85274 2,-3c1.30745,-1.814 3.56349,-4.7025 6,-10c1.32138,-2.87297 1,-4 2,-4c1,0 0.29289,-1.29289 1,-2c0.70711,-0.70711 1,-1 1,-2c0,-1 0,-2 -2,-4c-2,-2 -5,-4 -7,-6c-3,-3 -6,-5 -8,-7c-1,-1 -2.90633,-3.10341 -4,-4c-2.78833,-2.28587 -4.45049,-2.45049 -7,-5c-2.54951,-2.54951 -4.41885,-6.41885 -6,-8c-1.58115,-1.58115 -2.1731,-1.85274 -3,-3c-1.30745,-1.814 -0.96855,-3.41208 -3,-7c-1.39357,-2.4613 -2.23463,-3.15224 -3,-5c-1.0824,-2.61313 -2.9176,-4.38687 -4,-7c-1.14806,-2.77164 -1.9176,-3.38687 -3,-6c-0.38269,-0.92387 -1.95517,-2.54915 -3,-6c-0.57957,-1.91418 -1,-3 -2,-5c-1,-2 -1.71021,-3.04291 -2,-4c-1.04483,-3.45085 -3,-5 -4,-7c-1,-2 -1.38509,-4.37201 -4,-8c-1.65381,-2.29454 -2.61065,-5.15927 -4,-8c-1.58411,-3.23892 -2.95517,-4.54915 -4,-8c-0.86935,-2.87128 -1.61065,-5.15928 -3,-8c-1.58411,-3.23892 -2.87766,-6.066 -4,-8c-1.80972,-3.11848 -4.49346,-4.87856 -5,-8c-0.32037,-1.97417 -0.85195,-3.22836 -2,-6c-0.5412,-1.30656 -2.4588,-1.69344 -3,-3c-0.38268,-0.92388 0.30745,-2.186 -1,-4c-0.8269,-1.14727 -3.91761,-2.38687 -5,-5c-0.38268,-0.92388 -1.4588,-2.69344 -2,-4c-0.38268,-0.92388 -2,-3 -3,-4c-2,-2 -2.61105,-1.92807 -5,-4c-1.68925,-1.46507 -1.69255,-3.186 -3,-5c-0.8269,-1.14727 -2,-2 -4,-4c-1,-1 -2,-2 -3,-3c-2,-2 -3.02675,-2.77025 -4,-3c-2.17625,-0.51374 -2.69344,-3.45881 -4,-4c-0.92388,-0.38268 -2.29289,-0.29289 -3,-1c-1.41422,-1.41422 -2,-3 -3,-5l-1,-1l-1,0l0,-1" id="svg_1" stroke-width="4" stroke="#00bfbf" fill="none"/>
  <polyline stroke-linecap="round" id="svg_2" points="416.5,-54 416.5,-55 " stroke-width="4" stroke="#00bfbf" fill="none"/>
  <path d="m184.5,232c0,-1 0,-2 0,-3c0,-1 0,-2 0,-3c0,-1 0.29289,-2.29289 1,-3c0.70711,-0.70711 0.29289,-1.29289 1,-2c0.70711,-0.70711 1,-1 2,-1c1,0 2,-1 3,-1c1,0 2,0 3,0c1,0 2,0 3,0c1,0 3.07613,-0.38269 4,0c1.30656,0.5412 2,1 3,2c1,1 2,2 3,3c1,1 2.4588,2.69344 3,4c0.38269,0.92387 0.4588,1.69344 1,3c0.38269,0.92387 0,2 0,3c0,1 0,2 0,3c0,1 0.38269,2.07613 0,3c-0.5412,1.30656 -1.61731,1.07613 -2,2c-0.5412,1.30656 -1.69344,1.4588 -3,2c-0.92387,0.38269 -2,0 -3,0c-1,0 -2,0 -3,-1c-1,-1 -1,-2 -1,-4c0,-2 0,-4 0,-6c0,-1 0,-2 0,-3c0,-2 0.61731,-3.07613 1,-4c0.5412,-1.30656 3.07613,-1.61731 4,-2c1.30656,-0.5412 1.38687,-1.9176 4,-3c0.92387,-0.38269 1.69344,-0.4588 3,-1c0.92387,-0.38269 2,0 4,0c1,0 2,0 4,0c2,0 4,0 5,0c1,0 2.186,-0.30745 4,1c1.14726,0.8269 2.29289,0.29289 3,1c0.70711,0.70711 1,2 2,3c1,1 3,2 3,4c0,2 1,2 1,4c0,1 0,2 0,3c0,1 0.70711,2.29289 0,3c-0.70711,0.70711 -2,0 -3,0c-1,0 -1.69344,-0.4588 -3,-1c-0.92387,-0.38269 -0.29289,-1.29289 -1,-2c-0.70711,-0.70711 -1.77025,-1.02675 -2,-2c-0.51375,-2.17625 -2.4588,-2.69344 -3,-4c-0.38269,-0.92387 0,-2 0,-4c0,-2 0,-3 0,-4c0,-1 0,-2 0,-3c0,-1 1.29289,-1.29289 2,-2c0.70711,-0.70711 0.69344,-1.4588 2,-2c1.84776,-0.76537 5.186,0.30745 7,-1c1.14726,-0.8269 4,-1 6,-1c2,0 3,0 4,0c2,0 3,0 5,0c2,0 5,0 7,0c1,0 3,1 4,2c1,1 1.58578,1.58578 3,3c0.70709,0.70711 2.4588,0.69344 3,2c0.76538,1.84776 -0.32037,3.02582 0,5c0.50653,3.12144 1,4 1,6c0,1 0,2 -1,2c-1,0 -2,0 -3,0c-1,0 -2,0 -3,0c-1,0 -2.07611,0.38269 -3,0c-1.30655,-0.5412 -1.61731,-2.07613 -2,-3c-0.5412,-1.30656 -1,-2 -1,-4c0,-2 0,-3 0,-5c0,-2 0,-3 0,-4c0,-1 -0.38269,-2.07613 0,-3c0.5412,-1.30656 2.29291,-0.29289 3,-1c0.70709,-0.70711 1,-1 2,-1c1,0 2,0 3,0c2,0 4,0 7,0c3,0 5,0 7,0c1,0 3.0535,0.5405 5,1c2.17624,0.51375 3.29291,0.29289 4,1c0.70709,0.70711 1.29291,1.29289 2,2c0.70709,0.70711 1,1 1,2c0,1 0.48627,2.82375 1,5c0.22977,0.97325 -0.38269,3.07613 0,4c0.5412,1.30656 1,2 1,3c0,1 0.70709,2.29289 0,3c-0.70709,0.70711 -1,1 -2,1c-1,0 -2,0 -3,0c-1,0 -2.07611,0.38269 -3,0c-1.30655,-0.5412 -1,-2 -1,-5c0,-1 0,-2 0,-3c0,-1 0,-2 0,-3c0,-1 0,-2 0,-4c0,-1 0.29291,-1.29289 1,-2c0.70709,-0.70711 1.69345,-1.4588 3,-2c0.92389,-0.38269 1,-1 4,-1c2,0 3,-1 5,-1c1,0 2,0 3,0c2,0 3,0 5,0c2,0 3,0 5,0c1,0 2,0 3,0c1,0 1.07611,0.61731 2,1c1.30655,0.5412 1.69254,2.186 3,4c0.8269,1.14726 2.4588,1.69344 3,3c0.76538,1.84776 0,3 0,4c0,2 0,3 0,4c0,1 0,3 0,4c0,1 -0.07611,1.61731 -1,2c-1.30655,0.5412 -2,1 -3,1c-1,0 -2.29291,-0.29289 -3,-1c-0.70709,-0.70711 -0.67963,-1.02582 -1,-3c-0.50653,-3.12144 -2,-5 -2,-7c0,-1 -1,-2 -1,-3c0,-2 0,-4 0,-5c0,-1 0,-2 0,-3c0,-1 0.85272,-1.1731 2,-2c1.814,-1.30745 4,-2 6,-2c2,0 4,0 5,0c1,0 3,0 5,0c1,0 2,0 3,0c1,0 2.4588,-0.30656 3,1c0.38269,0.92387 1,1 3,3c2,2 3.48627,2.82375 4,5c0.22977,0.97325 0.61731,3.07613 1,4c0.5412,1.30656 2,2 2,3c0,1 0,2 0,3c0,1 0,2 0,3c0,1 -1,2 -2,3c-1,1 -2,1 -3,1c-1,0 -2.29291,0.70711 -3,0c-0.70709,-0.70711 -1.1731,-0.85274 -2,-2c-1.30746,-1.814 -1.29291,-4.29289 -2,-5c-0.70709,-0.70711 -1,-2 -1,-3c0,-1 0,-2 0,-3c0,-1 -0.38269,-2.07613 0,-3c0.5412,-1.30656 2,-1 3,-2c1,-1 1,-2 3,-2c1,0 1.29291,-1.29289 2,-2c1.41422,-1.41422 3,-1 4,-1c1,0 2.82376,-0.48625 5,-1c0.97324,-0.22975 3.07611,0.38269 4,0c1.30655,-0.5412 1,-2 2,-2c1,0 4,0 7,0c2,0 4,0 5,0c1,0 2,0 3,0c1,0 1.29291,0.29289 2,1c0.70709,0.70711 1,1 2,1c1,0 1.4588,1.69344 2,3c0.38269,0.92387 0.29291,1.29289 1,2c0.70709,0.70711 1,1 1,2c0,1 0,2 0,3l0,1" id="svg_3" stroke-width="4" stroke="#ff7f00" fill="none"/>
  <polyline stroke-linecap="round" id="svg_4" points="38.5,477 38.5,478 " stroke-width="4" stroke="#00bfbf" fill="none"/>
  <path d="m482.5,394c0,-1 -0.48627,-1.82376 -1,-4c-0.22977,-0.97324 -1.48627,-1.82376 -2,-4c-0.22977,-0.97324 -1.48627,-1.82376 -2,-4c-0.22977,-0.97324 0,-2 -1,-3c-1,-1 -2,-2 -2,-3c0,-1 -0.77023,-2.02676 -1,-3c-0.51373,-2.17624 -2.48627,-2.82376 -3,-5c-0.68927,-2.91974 -0.67963,-3.02582 -1,-5c-0.50653,-3.12143 -2.14429,-3.93414 -3,-6c-1.21014,-2.92157 -2.1731,-3.85272 -3,-5c-1.30746,-1.814 -1.61731,-3.07611 -2,-4c-0.5412,-1.30655 -0.61731,-2.07611 -1,-3c-0.5412,-1.30655 -2.4588,-2.69345 -3,-4c-0.38269,-0.92389 -2.08398,-3.96017 -3,-6c-2.20605,-4.91257 -3.82443,-5.0979 -5,-7c-0.52573,-0.85065 -0.78986,-2.07843 -2,-5c-0.85571,-2.06586 -3,-5 -4,-7c-1,-2 -1,-3 -2,-4c-1,-1 -2,-3 -3,-5c-1,-2 -2,-3 -3,-5c-1,-2 -2.1731,-3.85272 -3,-5c-2.6149,-3.62799 -3.95517,-6.54916 -5,-10c-0.86935,-2.87128 -0.47427,-5.14935 -1,-6c-1.17557,-1.9021 -2.69254,-3.186 -4,-5c-0.8269,-1.14728 -1,-2 -2,-4c-2,-4 -3.77023,-6.02676 -4,-7c-0.51373,-2.17624 -2.1731,-3.85272 -3,-5c-1.30746,-1.814 -2.69254,-4.186 -4,-6c-0.8269,-1.14726 -1.61731,-2.07613 -2,-3c-0.5412,-1.30656 -1.29291,-1.29289 -2,-2c-0.70709,-0.70711 -0.69345,-2.4588 -2,-3c-0.92389,-0.38269 -1.61731,-1.07613 -2,-2c-0.5412,-1.30656 -1.07611,-1.61731 -2,-2c-1.30655,-0.5412 -1.4588,-1.69344 -2,-3c-0.38269,-0.92387 -0.29291,-1.29289 -1,-2c-0.70709,-0.70711 -1.61731,-0.07613 -2,-1c-1.0824,-2.61313 -1.82376,-3.48625 -4,-4c-0.97324,-0.22975 -1,-1 -2,-2c-1,-1 -1.29291,-1.29289 -2,-2c-0.70709,-0.70711 -1.29291,-0.29289 -2,-1c-0.70709,-0.70711 -1.29291,-1.29289 -2,-2c-0.70709,-0.70711 -0.29291,-2.29289 -1,-3c-0.70709,-0.70711 -1.29291,-0.29289 -2,-1c-0.70709,-0.70711 0,-2 1,-3c1,-1 2,-3 3,-4c1,-1 1.58578,-1.58578 3,-3c1.41422,-1.41422 0.29291,-4.29289 1,-5c0.70709,-0.70711 1.29291,-1.29289 2,-2c0.70709,-0.70711 0.85272,-1.1731 2,-2c1.814,-1.30745 2.4588,-1.69344 3,-3c0.38269,-0.92387 1.29291,-2.29289 2,-3c0.70709,-0.70711 1.77023,-1.02675 2,-2c0.51373,-2.17625 1.85272,-2.1731 3,-3c1.814,-1.30745 2.53491,-1.31076 4,-3c2.07193,-2.38896 1.41885,-3.41885 3,-5c1.58115,-1.58115 1.297,-3.61383 4,-6c1.67633,-1.47984 4,-4 5,-6c1,-2 2.69254,-3.186 4,-5c0.8269,-1.14726 3.32367,-2.52016 5,-4c2.703,-2.38617 4.1731,-4.85274 5,-6c1.30746,-1.814 2.69254,-3.186 4,-5c0.8269,-1.14726 2,-3 3,-4c1,-1 1.34619,-2.70546 3,-5c1.30746,-1.814 2.9176,-3.38687 4,-6c0.38269,-0.92387 1.9176,-2.38687 3,-5c1.14804,-2.77164 2,-6 3,-8c1,-2 1.9176,-3.38687 3,-6c0.38269,-0.92388 0.61731,-2.07612 1,-3c0.5412,-1.30656 0.77023,-2.02675 1,-3c0.51373,-2.17625 1,-3 2,-4c1,-1 1.4588,-1.69344 2,-3c0.76538,-1.84776 0.69254,-3.186 2,-5c0.8269,-1.14727 0.85196,-2.22836 2,-5c0.5412,-1.30656 1.77023,-2.02675 2,-3c0.51373,-2.17625 1.77023,-3.02675 2,-4c0.51373,-2.17625 2,-3 3,-4c1,-1 2.29291,-2.29289 3,-3c0.70709,-0.70711 1,-2 2,-3c1,-1 1,-2 2,-3c1,-1 1.29291,-1.29289 2,-2c0.70709,-0.70711 1,-3 2,-4c1,-1 1.4588,-1.69344 2,-3c0.38269,-0.92388 1.48627,-1.82375 2,-4c0.22977,-0.97325 0.23462,-2.15224 1,-4c0.5412,-1.30656 1.29291,-1.29289 2,-2c0.70709,-0.70711 0.29291,-3.29289 1,-4c0.70709,-0.70711 0.29291,-1.29289 1,-2c0.70709,-0.70711 0.29291,-1.29289 1,-2c0.70709,-0.70711 1.4588,-0.69344 2,-2c0.38269,-0.92388 0.29291,-1.29289 1,-2c0.70709,-0.70711 0,-2 1,-2l0,-1" id="svg_5" stroke-width="4" stroke="#00bfbf" fill="none"/>
  <path d="m88.5,404c1,0 2,0 3,0c1,0 1.69344,0.4588 3,1c0.92388,0.38269 2,1 4,1c2,0 3,0 4,0c1,0 2.07612,0.38269 3,0c1.30656,-0.5412 1,-2 1,-3c0,-1 0,-2 0,-3c0,-1 0,-2 0,-4c0,-1 0,-2 0,-3c0,-1 0.30656,-2.4588 -1,-3c-0.92388,-0.38269 -2,0 -3,0c-1,0 -2,0 -3,0c-1,0 -2,0 -3,0c-1,0 -2,0 -3,0c-1,0 -1.29289,0.29291 -2,1c-0.70711,0.70709 -1.58578,0.58578 -3,2c-0.70711,0.70709 -1.29289,1.29291 -2,2c-0.70711,0.70709 0.22975,2.02676 0,3c-0.51374,2.17624 -1,3 -1,5c0,2 0,3 0,4c0,2 -0.76537,3.15225 0,5c0.5412,1.30655 2.41886,2.41885 4,4c1.58114,1.58115 3.4588,2.69345 4,4c0.38268,0.92389 0.61732,1.07611 1,2c0.5412,1.30655 2,1 3,1c2,0 2.29289,0.29291 3,1c0.70711,0.70709 2,0 3,0c1,0 1.29289,-2.29291 2,-3c0.70711,-0.70709 1,-1 1,-2l1,0l1,0" id="svg_6" stroke-width="4" stroke="#00bfbf" fill="none"/>
  <path d="m85.5,47c1,0 2,0 3,0c1,0 2,0 3,0c1,0 2,-1 3,-1c1,0 1.69255,-1.18601 3,-3c0.8269,-1.14727 1,-2 1,-4c0,-1 0,-2 0,-3c0,-1 0,-2 -2,-2c-1,0 -2,0 -3,0c-2,0 -2.61732,0.07612 -3,1c-0.5412,1.30656 -2.29289,1.29289 -3,2c-0.70711,0.70711 -1.29289,1.29289 -2,2c-0.70711,0.70711 -0.61732,1.07612 -1,2c-0.5412,1.30656 -1,2 -1,3c0,1 0,2 0,3c0,1 0,2 0,3c0,1 0,2 0,4c0,1 1.82375,2.48626 4,3c0.97325,0.22975 1.29289,0.29289 2,1c1.41422,1.41422 3,0 4,0c1,0 2,0 3,0c1,0 2.07612,0.38268 3,0c1.30656,-0.54119 2,-2 3,-3l0,-1l1,0" id="svg_7" stroke-width="4" stroke="#00bfbf" fill="none"/>
  <path d="m115.5,389c1,-1 1.69344,-2.4588 3,-3c0.92388,-0.38269 2.58578,1.41422 4,0c0.70711,-0.70709 1,-1 2,-1l1,0l1,0l1,0" id="svg_8" stroke-width="4" stroke="#00bfbf" fill="none"/>
  <path d="m104.5,28c1,0 2.29289,0.29289 3,1c0.70711,0.70711 3,0 4,0c1,0 2,0 3,0l1,0l1,0" id="svg_9" stroke-width="4" stroke="#00bfbf" fill="none"/>
  <path d="m507.5,404c1,0 2,1 3,1c1,0 2,0 3,0c1,0 2,0 3,0c1,0 1,-1 1,-2c0,-2 0,-3 -1,-4c-1,-1 -1.29291,-2.29291 -2,-3c-0.70709,-0.70709 -1,-1 -2,-1c-2,0 -3,0 -4,0c-2,0 -3,0 -4,0c-1,0 -1.61731,1.07611 -2,2c-0.5412,1.30655 -1,2 -1,3c0,1 0,2 0,3c0,2 0,4 0,5c0,1 -0.52573,3.14935 0,4c1.17557,1.9021 3,2 4,3c1,1 1,2 2,2c1,0 1,1 2,1c1,0 3,0 5,0c1,0 2.29291,0.70709 3,0c0.70709,-0.70709 1,-1 2,-2l0,-1l1,0l0,-1" id="svg_10" stroke-width="4" stroke="#00bfbf" fill="none"/>
  <path d="m507.5,64c1,0 2.29291,-0.70711 3,0c0.70709,0.70711 1,1 2,1c1,0 2,0 3,0c1,0 1.29291,-0.29289 2,-1c0.70709,-0.70711 -0.38269,-2.07612 0,-3c0.5412,-1.30656 1,-2 1,-3c0,-1 0,-2 0,-3c0,-1 0,-2 -1,-2c-1,0 -3,0 -4,0c-1,0 -3.07611,-0.38268 -4,0c-1.30655,0.54119 -1.69345,1.45881 -3,2c-0.92389,0.38268 -1.58578,-0.41422 -3,1c-0.70709,0.70711 0,2 0,3c0,1 -0.38269,2.07612 0,3c0.5412,1.30656 1.71021,4.04291 2,5c1.04483,3.45084 2.69254,5.186 4,7c1.65381,2.29454 2.1731,2.85273 3,4c1.30743,1.814 1,3 2,3c1,0 2,0 3,0c1,0 2,0 3,-1c1,-1 1.61731,-2.07612 2,-3c0.5412,-1.30656 1,-2 2,-2l0,-1" id="svg_12" stroke-width="4" stroke="#00bfbf" fill="none"/>
  <path d="m524.5,390c0,-1 1.29291,-0.29291 2,-1c0.70709,-0.70709 1,-1 2,-1c1,0 2,0 3,0l1,0l1,0l1,0" id="svg_13" stroke-width="4" stroke="#00bfbf" fill="none"/>
  <path d="m526.5,49c0,-1 1,-1 2,-1c1,0 2,0 3,0c1,0 2,0 3,0l1,0l1,0l1,0" id="svg_14" stroke-width="4" stroke="#00bfbf" fill="none"/>
  <path d="m272.5,259c1,1 2.4588,1.69345 3,3c0.38269,0.92389 1.82443,0.0979 3,2c0.52573,0.85065 0.61731,2.07611 1,3c0.5412,1.30655 1.4588,1.69345 2,3c0.38269,0.92389 1,2 1,3c0,1 0,2 0,3c0,2 0,3 0,4c0,1 0,2 0,3c0,1 0.70709,2.29291 0,3c-0.70709,0.70709 -1.29291,0.29291 -2,1c-0.70709,0.70709 -0.69345,2.4588 -2,3c-0.92389,0.38269 -1,1 -2,1c-1,0 -2,0 -3,0c-1,0 -2,0 -2,-1c0,-1 0,-3 0,-4c0,-2 0.61731,-4.07611 1,-5c0.5412,-1.30655 1,-2 2,-3c1,-1 1.69345,-2.4588 3,-3c0.92389,-0.38269 1,-1 1,-2c0,-1 0.69345,-1.4588 2,-2c0.92389,-0.38269 0.29291,-1.29291 1,-2c0.70709,-0.70709 1.07611,-0.61731 2,-1c1.30655,-0.5412 1.29291,-2.29291 2,-3c0.70709,-0.70709 1.29291,-0.29291 2,-1c0.70709,-0.70709 2.29291,0.70709 3,0c0.70709,-0.70709 1,-1 2,-1l0,-1" id="svg_15" stroke-width="4" stroke="#ff7f00" fill="none"/>
 </g>
</svg>