<svg id="eM9vz2fyDZj1" xmlns="http://www.w3.org/2000/svg" xmlns:xlink="http://www.w3.org/1999/xlink" viewBox="0 0 300 300" shape-rendering="geometricPrecision" text-rendering="geometricPrecision"><line x1="-0.266623" y1="-127.445879" x2="0.266623" y2="127.445879" transform="translate(15.048051 156.710829)" fill="none" stroke="#000" stroke-width="3"/><line x1="-133.578212" y1="0" x2="133.578212" y2="0" transform="translate(147.892887 283.156708)" fill="none" stroke="#000" stroke-width="3"/><path d="M25.94784,274.34997c75.69401,0,108.05012,13.25475,137.5717-67.9296c12.73417-35.01897,5.75737-69.41425,10.8459-105.034.82158-5.75108,1.77175-35.59653,13.70009-30.8252c19.45281,7.78112,25.50811,32.60207,28.54185,50.80449c5.25064,31.50382-2.04348,121.43766,21.6918,140.42589c10.13404,8.10724,32.04963,7.42088,44.52528,7.42088" fill="none" stroke="#0053fa" stroke-width="2"/><path d="M115.99071,277.57747c4.76455-.95291,13.17495-12.81179,14.21925-12.69576c4.85112.53901,1.87645,9.59715,3.55481,10.15661.80295.26765,1.14498-1.27429,1.52349-2.03132c4.05489-8.10978,4.85213-17.93441,9.14095-25.89934.56748-1.0539,1.34951-2.67133,2.53915-2.53915c3.99975.44442,2.03132,27.45199,2.03132,30.97765c0,1.18494,0,3.55481,0,3.55481s.32652-5.07913.50783-7.61745c.57885-8.10394,8.7325-53.39808,16.25057-54.33784c7.69385-.96173,1.27161,33.22823,1.01566,37.57944-.20709,3.52052,0,7.13491,0,10.66444c0,1.01566-.71818,3.76516,0,3.04698c4.19307-4.19306,3.24588-20.77767,4.57047-26.40718c7.41882-31.52998,8.63311-71.68478,8.63311-104.10521c0-15.56743-3.04698-30.50849-3.04698-46.21255c0-1.89257-.77979-6.18462,1.01566-5.58613c4.88248,1.62749,2.24203,20.51323,2.53915,24.37585c2.22799,28.96394,7.10962,57.58425,7.10962,86.83898c0,19.9256,2.08602,41.12246,0,60.93963-.09444.89721-1.64243,15.23491-2.03132,15.23491-2.03836,0,.08073-4.10085.50783-6.09396c2.82445-13.18078,7.30885-25.84336,9.64878-39.10293c4.82098-27.31889,5.58613-53.16584,5.58613-81.25284c0-12.52648,0-25.05296,0-37.57944c0-3.72409,0-7.44818,0-11.17227c0-1.86204,0-7.44818,0-5.58613c0,40.74991,3.55481,81.01049,3.55481,121.87927c0,13.11369.21016,26.60835-1.52349,39.61076-.57894,4.34206-1.01566,8.29433-1.01566,12.69576c0,3.05168-1.87258,11.87045-.50783,9.14094c5.60875-11.21749,7.09253-26.15961,11.6801-38.08727c1.55441-4.04148,2.41653-8.52206,3.55481-12.69576.46501-1.70503-.05723-5.86867,1.52349-5.0783.90843.45422,0,2.03132,0,3.04698c0,14.38852,0,28.77705,0,43.16557c0,3.16625.05694,6.03472-.50783,9.14095-.33447,1.83956-2.18016,6.4223-.50783,5.58613c1.86184-.93092,7.3438-20.52424,11.6801-18.78972c2.73882,1.09553-1.53551,13.70541.50783,14.72708.75703.37851,1.43284-.92501,2.03132-1.52349c8.74935-8.74935,4.29784,2.44827,7.61745,3.55481c3.69952,1.23317,10.77659-6.67656,13.71142-8.63311.70423-.46949,1.21021-1.72877,2.03132-1.52349c4.89932,1.22483.93734,12.07853,7.10962,12.69576c4.0635.40635,8.00332-9.02923,11.17227-8.63311c2.98987.37373,3.73084,13.3391,6.09396,1.52349" fill="none" stroke="#0fc684"/></svg>
