<svg id="eGwezsPaBt31" xmlns="http://www.w3.org/2000/svg" xmlns:xlink="http://www.w3.org/1999/xlink" viewBox="0 0 300 300" shape-rendering="geometricPrecision" text-rendering="geometricPrecision"><path d="M65.16995,233.83501c27.54331-3.44291,55.90993-7.87657,82.97238-14.64218c4.59397-1.14849,20.16509-.85266,22.77673-5.42303c4.08038-7.14066-18.43831-5.96533-18.43831-5.96533s31.27136-2.52929,17.3537,11.38837c-2.34351,2.34351-4.75968,3.72349-7.59224,5.42303" transform="translate(3.274524 1.477198)" fill="none" stroke="#1ca593"/><path d="M176.34209,213.76979c8.71775-17.43549,13.38881-35.64122,20.60752-53.68801.02808-.07021,2.21821-5.06825,1.62691-5.42303-.79381-.47628-12.95102,6.15811-12.47297,7.59224.70512,2.11536,13.11604-6.65482,13.55758-6.50764c1.55019.51673,4.07031,12.07383,4.88073,14.09988" transform="translate(2.711515 0.000001)" fill="none" stroke="#a006f1"/><path d="M174.71519,213.76979c-15.63587-8.93478-37.15898-19.74782-54.23031-24.40364-9.09687-2.48096-17.5596-2.81446-26.03055-7.04994-.94277-.47138-1.74269-2.04212-2.71151-1.62691-3.50497,1.50213,3.78102,14.08478,1.08461,11.38837-12.35156-12.35156,13.18492-11.38837,18.43831-11.38837" transform="translate(0 0.000001)" fill="none" stroke="#da0e0e"/><path d="M116.83939,248.8086c1.20848,2.01413,4.56536,18.17056,5.27239,18.45337c3.62012,1.44805,6.33458-15.47914,6.77879-17.70017" transform="translate(0 0.000001)" fill="none" stroke="#1ca593"/><path d="M114.95639,243.15961c2.90205-.96735,17.45509-.84286,12.05118-4.89579" transform="translate(.000001 0)" fill="none" stroke="#1ca593"/><path d="M129.26717,263.11937c0,2.08799.72283,3.61415,1.1298,5.64899" fill="none" stroke="#1ca593"/><path d="M204.96365,185.1633c0,4.75731.89924,9.79469,2.6362,14.31078c5.12997,13.33792,3.58804-6.64219,4.51919-11.29798" fill="none" stroke="#a006f1"/><path d="M215.13183,201.73367c7.50527,0,6.25947,10.23029,1.883,8.28519-.4736-.21049-2.06756-2.73471-1.5064-3.38939c2.41212-2.81415,5.77647,3.58869,9.79158.3766" fill="none" stroke="#a006f1"/><path d="M204.96365,181.7739c2.98371,0,13.05049,1.58348,9.03839-3.76599" transform="translate(.000001 0.000001)" fill="none" stroke="#a006f1"/><path d="M122.48838,182.9037c0-2.24682.1572-4.59345.7532-6.77879c5.11753-18.76427,7.99499,6.67078,6.40219,8.66179-.76352.95441-4.69853-1.31631-5.64899-1.5064" transform="translate(.000001 0)" fill="none" stroke="#da0e0e"/><path d="M131.15017,171.60572c3.31737,4.42316,5.41746,19.98764,7.90859,7.53199.52527-2.62637.3766-5.23477.3766-7.90859" transform="translate(.000001 0.000001)" fill="none" stroke="#da0e0e"/><path d="M131.15017,165.20353c3.05779-.61156,10.7461.95452,6.02559-3.76599" fill="none" stroke="#da0e0e"/></svg>
